<svg id="Capa_1" enable-background="new 0 0 512 512" height="512" viewBox="0 0 512 512" width="512" xmlns="http://www.w3.org/2000/svg">
<g>
<path fill="#FAFBFB" d="m436.978 74.993c-48.342-48.341-112.614-74.963-180.978-74.963s-132.637 26.622-180.978 74.963c-100.026 100.028-100.034 261.919 0 361.955 100.027 100.026 261.919 100.034 361.955 0 100.027-100.028 100.034-261.92.001-361.955zm38.758 215.071c-9.082 9.504-24.895 6.362-29.643-5.914-8.718-22.537-19.469-42.744-32.021-60.196 25.897 7.51 55.459 21.586 65.54 47.58 2.426 6.254.904 13.528-3.876 18.53zm-443.38-18.529c10.081-25.995 39.643-40.071 65.539-47.581-12.55 17.451-23.303 37.66-32.02 60.196-4.74 12.258-20.546 15.431-29.643 5.914-4.78-5.002-6.302-12.276-3.876-18.529zm223.644 210.383c-100.569 0-185.989-66.052-215.192-157.048 22.037 3.88 44.554-7.958 53.041-29.9 8.843-22.862 19.919-42.894 32.92-59.54 15.774-20.198-2.85-48.982-27.722-42.832h.001c-21.451 5.303-46.756 14.572-66.622 30.68 15.889-109.15 110.088-193.255 223.574-193.255 113.496 0 207.701 84.119 223.578 193.283-19.871-16.125-45.193-25.401-66.655-30.707-24.882-6.15-43.493 22.639-27.723 42.831 13.002 16.647 24.077 36.68 32.92 59.541 8.357 21.605 30.642 33.864 53.074 29.894-29.201 90.998-114.622 157.053-215.194 157.053z"/>
<path fill="#FAFBFB" d="m347.612 207.649c0-13.782-11.212-24.994-24.994-24.994h-133.236c-13.782 0-24.994 11.212-24.994 24.994v137.334c0 50.59 41.181 91.613 91.612 91.613 50.515 0 91.612-41.097 91.612-91.613 0-3.344 0-133.991 0-137.334zm-29.994 4.998v67.872c-12.558.122-30.744 1.239-50.392 5.541-30.067 6.583-54.629 18.703-72.846 35.707v-109.12zm-61.618 193.955c-26.695 0-49.47-17.066-58.011-40.859 25.33-48.32 90.43-54.809 119.63-55.186v34.426c-.001 33.977-27.642 61.619-61.619 61.619z"/>
<path fill="#FAFBFB" d="m175.51 125.041-29.493-18.703c-6.995-4.435-16.261-2.361-20.696 4.634-4.435 6.994-2.361 16.261 4.633 20.696l8.714 5.525-8.259 4.835c-7.148 4.185-9.551 13.371-5.366 20.519s13.37 9.549 20.518 5.366l29.493-17.265c9.675-5.664 9.934-19.597.456-25.607z"/>
<path fill="#FAFBFB" d="m382.046 142.305-8.714-5.525 8.259-4.835c7.148-4.185 9.55-13.371 5.366-20.519-4.185-7.149-13.371-9.548-20.519-5.366l-29.493 17.265c-9.675 5.665-9.931 19.598-.455 25.607 31.953 20.262 31.803 21.036 37.51 21.036 14.941.001 20.717-19.627 8.046-27.663z"/>
</g></svg>