<svg xmlns="http://www.w3.org/2000/svg" viewBox="0 0 2334 2522.38"><defs><style>.cls-1{fill:#242b2c;}.cls-2,.cls-3{fill:#fff;}.cls-3{stroke:#000;stroke-miterlimit:10;}</style></defs><g id="Camada_2" data-name="Camada 2"><g id="IronNotes_Logos"><g id="DarkMode"><path class="cls-1" d="M1257.75,23.38l979.16,540.3A187.81,187.81,0,0,1,2334,728.13V1794.25a187.83,187.83,0,0,1-97.09,164.46L1257.75,2499a187.83,187.83,0,0,1-181.5,0L97.09,1958.71A187.83,187.83,0,0,1,0,1794.25V728.13A187.81,187.81,0,0,1,97.09,563.68l979.16-540.3A187.83,187.83,0,0,1,1257.75,23.38Z"/><path class="cls-2" d="M905.58,1328.25a114.37,114.37,0,0,1-21.13,3.81q-10.56.89-18.78,2a84.71,84.71,0,0,0-15,6.46,139.43,139.43,0,0,0-12.62,8.21,3.18,3.18,0,0,1,.88,2.94,20.9,20.9,0,0,0-.29,3.52q-8.22,2.94-10,13.79a67,67,0,0,0-.59,19.65q-3.52,4.13-3.23,6.46a4,4,0,0,1-.88,3.52,17.89,17.89,0,0,1,1.76,11.74,62.14,62.14,0,0,0-1.17,12.32q1.17,21.71,1.76,46.65a396.48,396.48,0,0,1-1.76,48.41,20.68,20.68,0,0,1,1.47,11.14q-.89,5.3-2.06,10a204.21,204.21,0,0,1,.88,23.18q-.3,9.68-.59,19.36t-.58,19.36a103.24,103.24,0,0,0,.88,17.9,11.14,11.14,0,0,0,1.47,4.11q1.45,2.94-1.47,5.28c1.17,1.57,2.35,3,3.52,4.4a18.2,18.2,0,0,1,2.93,5,70.37,70.37,0,0,0-3.52,12.32c-.39,2.74,0,4.69,1.18,5.87q-1.77,8.22-.3,22t-2,23.18a196.85,196.85,0,0,1,.59,33.45Q825.76,1749,824.6,1766c-2.35,0-4,.39-5,1.18a7,7,0,0,1-4.4,1.17q-2.36-1.18-4.69-7.63-5.29-2.92-9.69-9.68t-5.57-11.44q-7.63-2.34-8.22-5.87t-5.28-4.69c-2-3.13-3.72-5.08-5.28-5.87s-2.35-2.54-2.35-5.28L763,1706.72a93.78,93.78,0,0,0-11.14-9.39,9.65,9.65,0,0,0-2.94-7,16.7,16.7,0,0,0-6.45-4.11,16.59,16.59,0,0,1-5.58-1.76,14.59,14.59,0,0,1-3.22-2.35q-5.88-15.24-12.62-24t-13.79-18.78q-4.11-.59-5.57-2.94A31,31,0,0,1,699,1631a57.79,57.79,0,0,1-10.85-13.2q-4.41-7.33-9.1-13.79-6.47,1.18-8.8-2.35t0-6.45a15.57,15.57,0,0,0-2.93-3.23,14.8,14.8,0,0,1-2.94-3.22q-4.11-1.17-5.57-1.47a1.8,1.8,0,0,1-1.47-2q4.7-4.11,2.64-7.93a35.28,35.28,0,0,0-6.16-7.92,21.81,21.81,0,0,0-5.28.59,4.92,4.92,0,0,1-4.11-.59c-1.56-2.73-2-5.28-1.17-7.63s.19-5.28-1.76-8.8a6.17,6.17,0,0,0-4.7.59c-1.17.79-2.74.79-4.69,0a7.57,7.57,0,0,1,0-5.87q1.17-2.92,2.35-5.28a20.94,20.94,0,0,0-6.75-8.51,13.83,13.83,0,0,1-5.58-7.92,6,6,0,0,0-3.52-1.47,9.19,9.19,0,0,1-4.1-1.46q1.17-7.62-3.82-10a19.79,19.79,0,0,1-7.92-6.45c.39-4.3-.69-6.36-3.23-6.16s-3.81-1.27-3.81-4.4a4.39,4.39,0,0,1-4.7,1.76,4.14,4.14,0,0,1-3.52-3.53,7.11,7.11,0,0,0,3.23-1.46c.59-.59,1.85-.88,3.82-.88-2.75-2.73-4.31-4.89-4.7-6.46a7.29,7.29,0,0,1,0-4.1q-7-.59-11.44,3.81t-12,5c-.39-4.7.59-7.72,2.93-9.1s5.28-1.66,8.81-.88c-2-3.52-2.35-5.57-1.18-6.16a6.84,6.84,0,0,0,2.94-3.23q-3.52-1.75-7.93.59a14.93,14.93,0,0,1-9.09,1.76c.38-3.91,1.07-6.75,2.05-8.51a22.34,22.34,0,0,1,3.82-5q-1.18-2.92-4.11-.88c-2,1.38-3.52,1.47-4.7.3q-1.17-5.86,0-8.51c.78-1.76.2-3.61-1.76-5.57h-6.92a33.87,33.87,0,0,0-.88-6.1,15,15,0,0,1-.88-5.27c-3.13.39-5.56.2-7.32-.59s-3.22-1.36-4.4-1.76c-.78-.77-.58-1.85.59-3.22a6.63,6.63,0,0,0,1.76-4.39c-.79-2-1.76-3-2.93-3.23a5.85,5.85,0,0,0-3.81.88,14.64,14.64,0,0,0-3.81,3.23,10.59,10.59,0,0,1-2.93,2.63q-2.94,3.52-3.22,10a47.35,47.35,0,0,1-1.47,10.55c1.56,3.91,2.25,6.65,2,8.2a4.67,4.67,0,0,1-2,3.52A15.31,15.31,0,0,1,523,1465v5a6.48,6.48,0,0,1,1.57,5c-.2,1.75-.39,3.42-.59,5a36.87,36.87,0,0,0-.29,4.68,7.77,7.77,0,0,0,1.76,4.69q-2.94,1.18-2.34,3.52c.38,1.56-.4,3.13-2.35,4.69.78,2.73,1.07,4.59.88,5.56a10.33,10.33,0,0,0,0,3.52,29.75,29.75,0,0,1,.29,4.1,5.31,5.31,0,0,1-1.75,3.81,16.34,16.34,0,0,1,2.63,4.39q1.46,3.22-.88,5c1.18,3.52,1.37,5.67.59,6.45s-1,2.15-.59,4.1a9.55,9.55,0,0,0,1.47,4.39q1.45,2.64-1.47,3.23a61.22,61.22,0,0,0-1.17,12,20,20,0,0,1-2.93,10.84q-1.18,9.38-1.46,17.28t-1.47,17.87q1.75,2.94,1.47,4.4a5.15,5.15,0,0,1-1.47,2.64q1.17,18.17,1.47,35.45a254.94,254.94,0,0,0,2.63,33.1c3.13,2,5,4.1,5.57,6.45a13.79,13.79,0,0,0,3.81,6.44,90.34,90.34,0,0,1,2.05,9.67,52,52,0,0,1,.29,5.57l2.93,2.93a6.33,6.33,0,0,1,1.76,4.68,61.8,61.8,0,0,0,16.11,20.22,49.9,49.9,0,0,0,23.73,10.84c.78,3.13,2.93,4.39,6.45,3.81a10.42,10.42,0,0,1,8.79,2,34.92,34.92,0,0,0,.58,7.61q-2.93,3.52-9.37,3.52t-9.38-2.93q-10.54-3.51-15.52-.59c-3.33,2-6.55,3.9-9.67,5.86a7.54,7.54,0,0,1-3.52-3.22c-1.17-1.76-2.15-2.64-2.93-2.64a24.25,24.25,0,0,1-7.61,0q-4.11-.57-8.79-1.17a39.54,39.54,0,0,0-10.55,1.47,32.87,32.87,0,0,1-8.2,1.46,8.25,8.25,0,0,1-4.69-1.17c-1.17-.78-2.55-.38-4.1,1.17a11.94,11.94,0,0,0-10.55-.88q-5.26,2.07-8.79-.29-1.17,2.94-4.69,2c-2.34-.59-3.51-.09-3.51,1.47-5.48,0-9.38.38-11.72,1.17a6,6,0,0,1-6.45-1.76,46.64,46.64,0,0,1-18.45,2.34,115.35,115.35,0,0,0-20.22.59c.4-2-.09-3.22-1.46-3.81s-2.24-1.85-2.64-3.81q4.69-1.17,9.67-2.93t9.67-2.93a74.3,74.3,0,0,1,19.63-.88,48.61,48.61,0,0,0,17.87-1.46,20.93,20.93,0,0,0,7.91-3.52,53.45,53.45,0,0,0,8.2-6.73,47.93,47.93,0,0,0,6.74-8.5,32.91,32.91,0,0,0,4.1-9.38q.59-7.61,2.05-9.66a12.89,12.89,0,0,0,2.05-5,72.24,72.24,0,0,0,3.22-14.65q.88-7.62,2.06-14.65c.77-4.3.57-13.77.57-13.77v-12.6s1.38-17.77,1.77-26.37S503,1596,503,1596v-6.59a110.15,110.15,0,0,0,0-15.84q-.6-7.62-1.18-14.08-.58-19.37,0-39.61t-.58-39q-.6-15.25-.3-31.39a80.37,80.37,0,0,0-4.4-29.05,124.68,124.68,0,0,0,.29-15.26,121.79,121.79,0,0,0-2.05-18.19c-3.91-2-5.57-3.52-5-4.69l2.06-4.11a3.8,3.8,0,0,0-1.18-3.22,4.3,4.3,0,0,0-2.64-.88h-2.93a2.1,2.1,0,0,1-2.06-1.18c1.18-6.25,1.27-10.17.3-11.73a20.21,20.21,0,0,0-3.82-4.4,37.85,37.85,0,0,0-4.69-3.53,6.12,6.12,0,0,1-2.93-3.81c-4.31-.38-6.95-1.47-7.93-3.23s-2.44-2.24-4.4-1.46q-1.75-3.53-6.45-5a71.24,71.24,0,0,0-10.86-2.35L430,1335.58a42.88,42.88,0,0,1-11.44-3.23q.58-2.92-.88-4.4c-1-1-1.27-2.44-.88-4.4q20.55-.57,39.61-1.76a147.63,147.63,0,0,1,37.26,2.35,14.06,14.06,0,0,1,7.33-1.76,11.35,11.35,0,0,0,7.34-2.35,27.45,27.45,0,0,0,9.39,2.06,98.16,98.16,0,0,0,10.85,0q5.57-.3,11.15-.3a29.18,29.18,0,0,1,10.27,1.76q8.21-2.92,11.74.59c1.95,4.69,4.19,7.73,6.74,9.09s4.2,4,5,7.93l12.91,14.08a42.59,42.59,0,0,1,9.39,17q4.69-.59,5,3.81t5,4.4q-1.76,3.52,1.18,5.87t1.76,5.28c2-.78,3.23-1.27,3.81-1.47s1.85.1,3.82.88c.38,1.57.29,2.74-.3,3.52s-1.27,1.76-2,2.94a110,110,0,0,0,7.63,9.09,37.86,37.86,0,0,0,9.39,7.34c3.9-.78,6.45-.39,7.62,1.17-1.56,4.69-1.86,7.33-.88,7.92a14.13,14.13,0,0,1,2.65,2.06,5.4,5.4,0,0,0,4.4-1.77q1.46-1.75,4.4,0a18.7,18.7,0,0,1-.3,4.41,8.9,8.9,0,0,1-2.05,2.64,16,16,0,0,0,6.75,9.68,11.36,11.36,0,0,1,5.57,8.51,13.33,13.33,0,0,1,5.87,3.81,38.23,38.23,0,0,1,4.11,5.57c1.17,2,2.44,3.92,3.81,5.87a10.8,10.8,0,0,0,6.16,4.11q-1.76,3.52,1.18,5.57t1.17,5c4.3,2,6.65,3.52,7,4.7a3.92,3.92,0,0,1-.58,3.52,43.9,43.9,0,0,0,5.86,9.68,38.07,38.07,0,0,1,5.87,10.85,10.85,10.85,0,0,1,4.4,5.28,6.86,6.86,0,0,1-.29,6.46,3.53,3.53,0,0,1,4.4.88,51.93,51.93,0,0,1,4.11,4.69,33,33,0,0,0,4.4,4.7,8.57,8.57,0,0,0,5.87,2q2.34,8.22,3.81,10.56t9.1,5.28a6.72,6.72,0,0,0,2.05,6.17,19.46,19.46,0,0,1,3.23,3.81q0,3.53,2.34,4.11a20.31,20.31,0,0,1,5.29,2.34A59.76,59.76,0,0,0,760.05,1582a160.14,160.14,0,0,1,13.5,16.13c3.9-.78,6.64-.38,8.21,1.18a14.6,14.6,0,0,0,5.87,3.52,52.61,52.61,0,0,0-2.35,5.57c-.79,2.16-2.34,2.84-4.69,2.06a22.78,22.78,0,0,1,5.87,4.4c1.17,1.37,2.14,3.81,2.93,7.33q6.45-1.17,9.68,4.4a34.55,34.55,0,0,0,7.34,9.1q6.45-10,5.87-19.37a59.66,59.66,0,0,1-.59-24.93,121.43,121.43,0,0,0,2.35-24.35v-18.19c0-6.65-.21-13.3-.59-20a43.93,43.93,0,0,1,0-10.26,33.94,33.94,0,0,0-.59-10.86,30.5,30.5,0,0,1-.58-10.85,69.91,69.91,0,0,0,0-12.62q-1.18-6.45-2.65-12.62T807,1459.1q-2.34-15.25-3.81-30.51a123.36,123.36,0,0,0-6.16-28.76,73.92,73.92,0,0,1-3.82-14.67,16.48,16.48,0,0,0-5.57-10.56c-2,.4-4,.79-6.16,1.18s-3.82,0-5-1.18q1.17-4.1,2.64-8.51c1-2.93.3-5.18-2-6.74a11.33,11.33,0,0,0-3.52.58,12.81,12.81,0,0,1-4.11.59q-2.36-2.34-2.35-4.11a13.41,13.41,0,0,1,1.18-4.69,18.43,18.43,0,0,0-6.46-8.22,88.63,88.63,0,0,0-10-6.45c-5.49-3.13-9.1-4.59-10.86-4.4a8.67,8.67,0,0,1-5-.88q-8.81-4.69-15-3.82a109.91,109.91,0,0,0-10.86,2.06q-4.11-5.87-3.52-7c.39-.78.2-2.15-.58-4.11a15.38,15.38,0,0,1,13.2-3.23,82.28,82.28,0,0,0,16.14,1.47,173.59,173.59,0,0,0,25.81,2.64q12.33.3,24.65.88A64,64,0,0,1,812,1318a158.33,158.33,0,0,0,25.53.88q6.45-.58,13.79-.88a56.56,56.56,0,0,1,13.2.88q5.28,2.94,7.63,1.76a9.45,9.45,0,0,1,4.11-1.17q6.45,0,14.37.29a47.52,47.52,0,0,0,14.38-1.47,5.32,5.32,0,0,1,2.93,4.7A7.33,7.33,0,0,1,905.58,1328.25Zm-436.93,9.3a19.52,19.52,0,0,1-4.1-4.1c-.79-1.17-2.15-1.75-4.1-1.75a3.65,3.65,0,0,0,3.52,3.22A6.45,6.45,0,0,1,468.65,1337.55Zm18.17-4.1a54.47,54.47,0,0,1-8.79,2.93,7,7,0,0,0-4.69,3.52,51.45,51.45,0,0,1,9.08-2.93A5.49,5.49,0,0,0,486.82,1333.45Zm37.5-.58a42.54,42.54,0,0,0-18.17,9.37c-.78-2.34-.2-3.9,1.76-4.69s3.12-2.53,3.52-5.27a65.46,65.46,0,0,0-9.67.59c-2.55.39-5.77,1-9.67,1.75a3.29,3.29,0,0,1-1.76,3.23,12.35,12.35,0,0,1-3.81,1.17,9.44,9.44,0,0,0-3.51,1.17c-1,.59-1.27,1.86-.88,3.81.38,2.34.78,4.5,1.17,6.45q4.09,1.75,5.57.87a14.11,14.11,0,0,1,3.81-1.46c3.9,2,7,1.46,9.37-1.47s6.05-4.39,11.13-4.39q1.17-4.68,5-6.15A12.8,12.8,0,0,0,524.32,1332.87Zm62.11,38.79a17.63,17.63,0,0,0-3.52-4.4c-1.17-1-1.76-2.64-1.76-5a16.78,16.78,0,0,1-7.32-5,43.66,43.66,0,0,1-4.69-7,57.83,57.83,0,0,0-4.69-7.32,17.26,17.26,0,0,0-6.15-5.28q-2.94,2.36-4.39,2.35h-4.4a65.28,65.28,0,0,1-11.72,9.66,107.28,107.28,0,0,1-11.72,6.16q-4.7,8.79-15.23,11.13c0-3.9,2.14-5.86,6.45-5.86,2.34-3.52,4.1-5.27,5.27-5.27a1.56,1.56,0,0,0,1.76-1.76,17.13,17.13,0,0,1,5.86-7.62,53.65,53.65,0,0,1,7.32-4.1c2.54-1.17,5.07-2.44,7.62-3.81a43.44,43.44,0,0,0,7.32-5,61.23,61.23,0,0,0-6.44-.88q-3.53-.29-7-.29-11.15,6.45-22,14.06t-22,15.24q4.1,2.92,6.74.58c1.76-1.56,3.81-1.76,6.15-.58a15.63,15.63,0,0,0-4.1,2.92,15.37,15.37,0,0,1-4.1,2.93,8.4,8.4,0,0,1,0,4.4,3.35,3.35,0,0,0,.58,3.22q4.09-4.1,4.4-4.1a12.66,12.66,0,0,1,2.05.59q9.36-2.92,13.48-6.74t11.71-5a17.23,17.23,0,0,1,4.69-5.86,12.32,12.32,0,0,0,5-1.17c1.76-.78,3.32-1.47,4.69-2.05a10.23,10.23,0,0,1,4.1-.88q2.05,0,3.22,2.93a80.94,80.94,0,0,1-20.5,16.7,58.27,58.27,0,0,0-19.34,17.87,18.7,18.7,0,0,0,12-6.45,13.59,13.59,0,0,1,10.84-5.27q2.34-5.85,6.45-5.86,0-4.68,7-3.52,2.92-2.93,9.67-5.86t10.84-1.75a15.9,15.9,0,0,1-7.33,8.49,20.39,20.39,0,0,0-7.91,7.33c-3.51.39-4.89,1.08-4.1,2.05s.39,1.66-1.17,2q-3.52-1.17-5,0a12.72,12.72,0,0,0-2.64,2.93,5.58,5.58,0,0,1-4.69,2.34q-2.94,0-1.75,4.1a5.39,5.39,0,0,0-4.4,1.76,10.85,10.85,0,0,1-4.39,2.93c-.4,2-.1,3.32.88,4.1s1.07,1.57.29,2.35q6.44,1.17,9.67-2.93a8.92,8.92,0,0,1,8.49-3.52,42.45,42.45,0,0,0,11.14-7.62,28.2,28.2,0,0,1,10.54-6.44,32.94,32.94,0,0,1,10.26-3.81A17.44,17.44,0,0,0,586.43,1371.66Zm-53.32-8.32q-7.62,4.7-15.82,9.37a37.38,37.38,0,0,0-12.89,11.72q4.68,2.35,6.44-.88a20.47,20.47,0,0,1,2.93-4.39,7.37,7.37,0,0,1,2.93-1.76,7.33,7.33,0,0,0,2.93-1.76c3.9-3.52,5.86-5.47,5.86-5.86s.38-1,1.17-1.76a34.47,34.47,0,0,1,3.52-2A7.58,7.58,0,0,0,533.11,1363.34Zm-4.69,351.56q-6.45-5.85-8.79-11.43a35.39,35.39,0,0,1-2.34-13.77,6.78,6.78,0,0,1-3.23-2.93c-.58-1.17-1.27-2.53-2-4.1a23.19,23.19,0,0,0-1.76,4.69,8.69,8.69,0,0,1-2.34,4.1c1.56,1.17,1.95,2.84,1.17,5a12.57,12.57,0,0,1-2.34,4.4c1.17.78,2.24,1.46,3.22,2.05a5.16,5.16,0,0,1,2.05,2q4.68-1.76,5.57-1.17c.58.39.88,1.37.88,2.93-.79,1.17-1.57,2.25-2.35,3.22a21.86,21.86,0,0,0-2.34,3.81,7.39,7.39,0,0,1,8.2.29Q526.07,1716.66,528.42,1714.9Zm-14.65-262.5q-2.35-11.13-.29-19.34t-.88-18.16c-2.35.39-3.81,1.27-4.4,2.64a10.06,10.06,0,0,0-.58,5,56.21,56.21,0,0,0,.88,5.85,28.11,28.11,0,0,1,.58,5.28q.59,7,.59,8.2a19.08,19.08,0,0,1-1.17,4.69,9.35,9.35,0,0,0,.29,5.27,5.64,5.64,0,0,1-.29,4.69c2.34-3.12,3.6-4.39,3.81-3.81S513,1453.19,513.77,1452.4Zm0-94.92a3.54,3.54,0,0,1-2,2.34,17.83,17.83,0,0,0-3.22,1.76,13.26,13.26,0,0,1,2.63-2A14.35,14.35,0,0,0,513.77,1357.48Zm1.17,103.12q-1.76,0-3.51-2.34c-1.18-1.56-2.15-1.56-2.93,0,2.34,3.51,3.6,5.47,3.81,5.86s.87.39,2.05,0ZM516.7,1477c-1.57,0-2.54-.59-2.93-1.76s-1.37-1.76-2.93-1.76q-2.94,11.15,2.34,17.58a50,50,0,0,1,1.47-8.79A32.53,32.53,0,0,1,516.7,1477Zm15.23,247.26q0-4.1-2-5.56a24.59,24.59,0,0,0-5-2.64c.39,4.69.09,7.32-.88,7.91a16.05,16.05,0,0,1-3.22,1.47c-1.17.39-2.25.78-3.22,1.17s-1.27,1.17-.88,2.34q3.51.58,5-.29c1-.59,2.44-.3,4.39.88q.58-5.28,2.64-5A5.39,5.39,0,0,0,531.93,1724.27Zm5.86-345.11c-3.51-1.18-6.84-.1-10,3.22a116.25,116.25,0,0,1-8.79,8.49c2,1.18,3.52,1.28,4.69.3a11.76,11.76,0,0,0,2.93-3.81,8.93,8.93,0,0,0,4.69-2.34,38.43,38.43,0,0,0,3.51-4.11Zm-7.61,34a7.45,7.45,0,0,0-2.35-4.39c-1.17-1-2.73-1.08-4.68-.3.38,1.57.29,2.74-.3,3.52s-.49,2.15.3,4.1a5.82,5.82,0,0,0,3.51-.88A25.1,25.1,0,0,1,530.18,1413.14Zm13.47,326.37q-2.34-5.85-7.91-3.22t-7.32,6.15a9.16,9.16,0,0,0,8.2.88A17,17,0,0,0,543.65,1739.51Zm66.21-329.3a22.49,22.49,0,0,1-.87-3.51c-.21-1.18-1.28-1.76-3.23-1.76q-5.87,4.1-7.61,2.93t-2.35,1.75c-2,1.57-3.91,3.14-5.86,4.69s-3.91,2-5.86,1.17a6.79,6.79,0,0,1,2-4.1c1-.78,2.25-.58,3.81.59q4.09-2.92,5.28-6.15c.77-2.15,3.12-2.83,7-2q-3.53-5.28-4.1-3.52c-.4,1.17-1.57,1.57-3.52,1.17-.39-1.55-.29-2.63.29-3.22a7,7,0,0,1,2.35-1.47,6.73,6.73,0,0,0,2.34-1.46c.59-.59.68-1.66.29-3.22a6.21,6.21,0,0,0-5.27,0,10.46,10.46,0,0,1-4.69,1.17c.39.79.09,1.27-.88,1.46a30,30,0,0,0-3.22.88,7.49,7.49,0,0,0-2.93,1.76c-.79.79-.79,2,0,3.52a12.52,12.52,0,0,1-3.51-2.64c-.4-.59-.4-1.85,0-3.81a8,8,0,0,0-5.57.88q-2.64,1.47-3.81-.29a7.48,7.48,0,0,0,5.27-3.23q1.77-2.62,7-1.46a105.73,105.73,0,0,1,8.21-7c1.17-.78,1.36-2.35.58-4.69q-11.72,2.94-18.16,8.2t-14.65,11.72c-.79-3.51-.58-5.86.59-7s2.53-1,4.1.59c-.39-3.52-.88-5.66-1.47-6.45a2.13,2.13,0,0,0-2.63-.58c-1.17,2.34-2.45,3.8-3.81,4.39a24.56,24.56,0,0,1-5,1.46,4.15,4.15,0,0,1-3.52,3.52,30,30,0,0,1-5.86.59,3.81,3.81,0,0,1-1.17,3.22,11.05,11.05,0,0,1-2.64,1.46,7.06,7.06,0,0,0-2.34,1.47c-.58.58-.69,1.66-.29,3.22a10.66,10.66,0,0,0,9.37-2c2.73-2.14,5.28-4.19,7.62-6.15a31.59,31.59,0,0,0-1.76,10q-1.75-1.17-4.39,0a5.37,5.37,0,0,0-3.22,4.1,36.72,36.72,0,0,1,4.68,7.62,33.78,33.78,0,0,0,5.57-.29,8.62,8.62,0,0,1,4.39.87q2.93-8.19,5.86-9.08a6.12,6.12,0,0,0,4.1-3.81q3.53-2.93,5.86-4.68c2.35,2,2.93,3.61,1.76,5s-3.32,1.85-6.44,1.46a32.5,32.5,0,0,1-7.33,8.2,32.65,32.65,0,0,0-7.32,8.21,37.34,37.34,0,0,1,4.1-3.52q2.34-1.76,4.1,1.17a5.35,5.35,0,0,0-2.93,3.81,7.69,7.69,0,0,1-1.76,3.81q5.85.58,8.21-1.17c1.55-1.17,3.51-1.37,5.86-.59.77-3.12,1.95-5.07,3.51-5.86a21,21,0,0,1-.58,5.86c-.4,1.17-1.57,2-3.52,2.35q-4.69,0-4.69,4.68,4.09,1.77,6.45.3c1.55-1,2.73-1.07,3.51-.3a6.88,6.88,0,0,0-5,2.93,32.49,32.49,0,0,0-2.63,5.28q5.27,0,7.32-3.81a5.58,5.58,0,0,1,6.15-3.22q-1.75-2.92-3.51-2.35c-1.17.4-2,.2-2.35-.58a3.48,3.48,0,0,1,3.81-2,3.48,3.48,0,0,0,3.81-2.06c2.34-1.55,3.61-1.95,3.81-1.17s1.07,1,2.64.59c1.55-5.07,3.51-7.62,5.86-7.62Q599.3,1412,609.86,1410.21Zm-65-36.33a15.71,15.71,0,0,1-3.8,1.47,2.72,2.72,0,0,0-2,1.46,13.48,13.48,0,0,1,4.68-1.17C544.82,1375.64,545.21,1375.05,544.82,1373.88Zm9.38-5.86-5.86,4.69q4.68-2.34,5.57-2.93C554.49,1369.4,554.58,1368.81,554.2,1368Zm101.37,89.65c0-2.34-.88-3.81-2.64-4.39s-3.62-1.27-5.57-2a72.94,72.94,0,0,0-10.54,7.91,39.33,39.33,0,0,1-10.55,6.73q0-5.26.88-4.68c.59.39,1.07-.19,1.46-1.76,3.13-1.17,4.88-1.47,5.28-.88s.78.49,1.17-.29c-.39-2,.38-3.61,2.34-5a15.48,15.48,0,0,1,5.86-2.64q-2.34-5.85-3.51-3.81t-2.35-.88q3.52-5.85,2.64-6.74a7.5,7.5,0,0,1-1.47-2q-9.37-2.92-12.89.3a8.42,8.42,0,0,1-8.2,2,14.93,14.93,0,0,0-4.39,5.56q-1.47,3.24-4.4.88a7.25,7.25,0,0,1-3.81,4.69,54.14,54.14,0,0,0-5.56,2.93,7.39,7.39,0,0,0,2.93-7,24.12,24.12,0,0,0,8.79-5,23.75,23.75,0,0,1,9.37-5,2.38,2.38,0,0,1,1.17-2.35,11.06,11.06,0,0,1,2.64-.87,10.92,10.92,0,0,0,2.64-.88c.77-.39,1.17-1.37,1.17-2.93q-7,0-7.62.88a2,2,0,0,1-1.76.87,2.83,2.83,0,0,0-2.34-2,10.94,10.94,0,0,0-3.52,0,8.7,8.7,0,0,1-3.22,0c-1-.19-1.46-.88-1.46-2,1.95.4,3.41.3,4.39-.29a4.9,4.9,0,0,1,3.81-.29,10.1,10.1,0,0,1,1.76-4.4,21.71,21.71,0,0,0,2.34-3.81q-4.7-3.51-11.72-.58-.59,5.26-5.27,5.27a6.44,6.44,0,0,0-6.45,4.1c-3.13,2-5.56,3.62-7.32,5a19.5,19.5,0,0,1-6.74,3.23c-2.74,3.91-5.27,5.66-7.62,5.27a62.1,62.1,0,0,0-.58,7,3.84,3.84,0,0,0,3.51-.59c1.18-.77,2.15-1.46,2.93-2a3.91,3.91,0,0,1,2.35-.87c.78,0,1.55.58,2.34,1.75l-5.27,3.52q-1.76,1.18,0,3.51a6.53,6.53,0,0,0,7-3.51c1.56-2.73,3.31-3.71,5.27-2.93.39-2.73,2.35-3.9,5.86-3.52,0-2,.68-3.12,2-3.51s2.83-.78,4.4-1.17a8.67,8.67,0,0,1,4.68-6.45,6.18,6.18,0,0,1,7.62.59,84.5,84.5,0,0,0-12,7.91,70.66,70.66,0,0,0-10.84,10.84,4.79,4.79,0,0,0-.29,4.39q.87,2.64-1.47,2.64-3.51-4.1-3.81-5.28c-.2-.77-1.08-1-2.63-.58,0,2,.67,3,2.05,3.22a4.53,4.53,0,0,1,3.22,2.05,6.8,6.8,0,0,1-2.93,3.22c-1.17.59-2,1.86-2.34,3.81a19.45,19.45,0,0,0,12-.29,25,25,0,0,1,10.84-1.46,10.71,10.71,0,0,1-3.81,3.22,43.77,43.77,0,0,0-5,3.22,7.32,7.32,0,0,0-2.93,4.1c-.39,1.57.19,3.52,1.76,5.86,3.12,0,5.36-.78,6.74-2.34a12.9,12.9,0,0,1,5-3.52c0,3.52-.5,5.38-1.47,5.57s-1.08,1.27-.29,3.22c1.55,4.3,1.66,7.13.29,8.5a4.26,4.26,0,0,0-.88,5q2.92,0,3.81-1.47c.59-1,1.85-1.07,3.81-.29a61.13,61.13,0,0,1,12.3-12.3l12.89-9.38q-1.17-4.1-2.63-1.17c-1,2-2.84,2.34-5.57,1.17a53.37,53.37,0,0,1-7.62,5.27c-1.56.79-3.13.2-4.68-1.75a15.54,15.54,0,0,0,6.15-3.81c1.76-1.76,3.61-2.25,5.57-1.47a10.59,10.59,0,0,1,4.39-5q3.21-2,5.57.88c0-3.12,1.65-5,5-5.57A17.22,17.22,0,0,0,655.57,1457.67Zm-72.07-41.6c-3.52,2.74-5.48,4.3-5.86,4.69s-1.17.39-2.35,0a17.62,17.62,0,0,0,2.93-3.81Q579.39,1414.9,583.5,1416.07Zm36.32,41.6-4.68,2.35q-2.35,1.17-5.28,2.34c-1.17-2.73-2.25-3.61-3.22-2.64s-2.64,1.08-5,.3l3.52-2.35a26.64,26.64,0,0,1,4.68-2.34c-1.56-1.17-1.08-2.35,1.47-3.52s4.19-1,5,.59Zm5.28,8.2c-4.3,0-6.65.5-7,1.47s-1.38,1.46-2.93,1.46c0,3.14-.5,5.19-1.47,6.16s-1.08,1.86-.29,2.63q4.68,3.53,6.44,4.11a1.64,1.64,0,0,0,2.35-1.18q-4.7-5.85-3.52-6.44a9.17,9.17,0,0,0,2.35-1.76A63.75,63.75,0,0,1,625.1,1465.87Zm7,26.37c-2.34-1.17-3.52-2.24-3.52-3.22s-.39-1.47-1.17-1.47q-1.76,2.94-3.51,6.45t-7.62.59q7,3.51,9.37,1.17A14.67,14.67,0,0,1,632.13,1492.24ZM628,1441c.38,2,.19,3.32-.59,4.1a7.24,7.24,0,0,1-2.93,1.75l-3.51,1.18c-1.18.39-1.76,1.37-1.76,2.93a21.13,21.13,0,0,0,7-10Zm-.59,12.55c-.39,2-1.27,2.84-2.63,2.64a14.32,14.32,0,0,1-4.4-1.47,4,4,0,0,1,3.52-.88A6.33,6.33,0,0,0,627.44,1453.57Zm28.13,34c-1.57-2-3.23-2.82-5-2.63a14.7,14.7,0,0,0-5,1.46,58.16,58.16,0,0,0-11.14,9.08,57.62,57.62,0,0,1-11.13,9.09,10.49,10.49,0,0,0,9.08-2,71.5,71.5,0,0,1,10.26-6.16c2.34-2.72,4.29-4.88,5.86-6.44S652.44,1487.55,655.57,1487.55Zm-18.17-41a15.25,15.25,0,0,1-7.32,1.46q-3.23-.29-4.4,3.81a76.16,76.16,0,0,0,8.21-1.76Q635.65,1449.48,637.4,1446.54Zm45.12,51q-1.75-2.93-3.81-3.23a6.34,6.34,0,0,0-4.1.88,27.92,27.92,0,0,0-4.39,3.22,11.31,11.31,0,0,1-4.69,2.64c-1.17-2.34-.69-4,1.46-5a8,8,0,0,0,4.4-5c-.79-.78-1.86-.68-3.23.29s-2.44.69-3.22-.88c-1.56.79-1.86.79-.88,0a10,10,0,0,1,3.81-1.75,29.11,29.11,0,0,0,4.4-1.47,4.46,4.46,0,0,0,2.63-3.22c-4.68,0-8.4.58-11.13,1.76a14.3,14.3,0,0,0-6.45,5.27,11.18,11.18,0,0,0,1.18,2.64c.38.58.38,1.86,0,3.81q-4.69,2.93-5.86,2.93a5.21,5.21,0,0,1-2.35-.59,49.49,49.49,0,0,0-5.86,6.74,14.41,14.41,0,0,1-4.68,4.39c-2.35.79-4.1,1.38-5.28,1.76s-1.37,1.57-.58,3.52a4,4,0,0,1-2.93,1.17,3.43,3.43,0,0,0-2.93,1.76q7,4.1,9.08.58a10,10,0,0,1,6.15-4.69q0,4.7-1.17,5.28c-.79.39-1,1.56-.59,3.51a60,60,0,0,1,7-3.22,11.59,11.59,0,0,0,2.34-.88,54,54,0,0,1-5.57,6.74,65.81,65.81,0,0,1-5.56,5q4.68,3.51,7.32,2a5.1,5.1,0,0,1,5-.29,23.08,23.08,0,0,0,2.05-3.81,4.49,4.49,0,0,1,3.22-2.64q8.2-6.43,11.14-10a37.36,37.36,0,0,1,7-6.44c-3.91-.78-6-1.18-6.15-1.18s-.3-.19-.3-.58a7.31,7.31,0,0,0,3.81-.88,13.93,13.93,0,0,0,2.64-2c3.51-2.35,5.57-3.9,6.15-4.69A5.78,5.78,0,0,0,682.52,1497.52Zm-18.75-30.47a68.34,68.34,0,0,0-12.6,5.56,38.19,38.19,0,0,0-9.67,7.91q-2.93,2.94-10,4.1,8.79,2.36,15-3.22a35.57,35.57,0,0,1,15.52-7.91,23.41,23.41,0,0,1,1.17-2.93A8.14,8.14,0,0,0,663.77,1467.05Zm-13.48,48q-5.87,2.36-6.15.88a10.7,10.7,0,0,0-.88-2.63,12.92,12.92,0,0,1,2.93,2.63C647,1517,648.33,1516.66,650.29,1515.09Zm6.45-22.26c-2-.78-3.42-.49-4.4.88s-1.85,2.63-2.63,3.81c1.95,1.17,3.41.87,4.39-.88A17.41,17.41,0,0,1,656.74,1492.83Zm5.86,13.47c-3.13.4-5.48,1.38-7,2.93a64,64,0,0,0-4.69,5.28c-.79-2.73-.59-4.3.59-4.69s2.53-.78,4.1-1.17c0-2.35.48-3.81,1.46-4.4a14.36,14.36,0,0,1,4.4-1.46Zm29.3,24.61c-2.35-3.12-3.81-5-4.4-5.56a1.63,1.63,0,0,0-2-.3c-.39,2-1.37,3-2.93,3.23a40.28,40.28,0,0,0-4.69.88,31.73,31.73,0,0,1-6.44,5,31.59,31.59,0,0,0-6.45,5c-3.91,2-6.15,3.13-6.74,3.51s-1.27.2-2.05-.58c.78,2,.2,2.83-1.75,2.63a2.92,2.92,0,0,0-3.52,2.64,2.49,2.49,0,0,1,1.76,2.64,3.57,3.57,0,0,0,2.34,3.22q2.92-3.51,6.45-2.64a8.14,8.14,0,0,0,6.44-.88c-2.34-2.34-2.84-4.1-1.46-5.27s3.6-2,6.74-2.34a4.13,4.13,0,0,1,.58-3.81,13.67,13.67,0,0,1,2.34-2.35,30.24,30.24,0,0,1,2.64-1.75,4.73,4.73,0,0,0,2-2.64c2-.78,4.49-.38,7.62,1.17Zm-21.1-1.17c-1.56-2.34-2.64-3.51-3.22-3.51a5.57,5.57,0,0,1-2.64-1.18c-.78,3.52-1.86,5.57-3.22,6.16s-1.27,1.66.29,3.22a21,21,0,0,0,4.1-2.64A10.57,10.57,0,0,1,670.8,1529.74Zm39.85,8.79a17.24,17.24,0,0,0-10,.59,13.08,13.08,0,0,0-7,5.86,162.44,162.44,0,0,1-18.16,9.37A29.88,29.88,0,0,0,662,1566.07a5.08,5.08,0,0,1,4.4,2c1,1.37,2.05,2.84,3.22,4.4a69.8,69.8,0,0,0,5.27-5.86,19.73,19.73,0,0,1,5.28-4.69,6.71,6.71,0,0,1,3.81-1.17,6.66,6.66,0,0,0,3.8-1.18,31,31,0,0,0,9.09-7.61,31,31,0,0,1,9.08-7.62,9.82,9.82,0,0,1,3.51-2.64C710.25,1541.56,710.65,1540.49,710.65,1538.53Zm-18.75-28.12a8.18,8.18,0,0,0-5.86.88,22.89,22.89,0,0,0-4.11,3.22,50.8,50.8,0,0,0-5.86,4.69,13.51,13.51,0,0,0-2.92,5.85,6.49,6.49,0,0,0,2.92-.58,5.3,5.3,0,0,1,3.52,0,5.39,5.39,0,0,1,3.22-4.1c1.76-.78,3.52-1.47,5.28-2a8.91,8.91,0,0,0,4.1-2.64C693.16,1514.51,693.07,1512.75,691.9,1510.41ZM706,1533.26c-.79-4.3-2.84-6-6.15-5a9.71,9.71,0,0,0-6.74,6.15c-3.13,0-5.48,1.08-7,3.22a16.06,16.06,0,0,1-5.86,5q-2.94,1.18-4.69,2c-1.17.59-1.37,2-.59,4.4a149.53,149.53,0,0,0,14.94-8.5A64.83,64.83,0,0,1,706,1533.26Zm18.16,22.85Q720,1552,718,1554.94t-4.4,0a17.89,17.89,0,0,1,7.62-5.28c-.39-3.51-2-5.86-4.69-7a4.71,4.71,0,0,0-2.63,2c-.59,1-1.86,1.28-3.81.88a44.74,44.74,0,0,1-8.2,10q-4.11,3.52-8.21,3.52c-1.17,4.3-2.25,6.15-3.22,5.57a14.18,14.18,0,0,0-4.39-1.47q-2.35,5.28-2.93,6.45a20.47,20.47,0,0,1-5.28,3.22,2.47,2.47,0,0,0-1.76,3.22c.39.79,1.66.88,3.81.29s3,.1,2.64,2a3.64,3.64,0,0,0-3.81,2.35,6.9,6.9,0,0,1-2.64,3.51q5.28,4.11,6.16,4.11c.58,0,1.07-.39,1.46-1.18-.39-.77.3-1.36,2-1.75a17.4,17.4,0,0,0,3.81-1.18c2.35-2.72,4.1-4.88,5.27-6.44q6.45-1.17,7.62-3.81a16.57,16.57,0,0,1,4.69-5.57c3.52-3.9,6.44-6.53,8.79-7.91S721,1557.67,724.12,1556.11Zm13.48,18.16q-4.11-6.43-6.74-3.81t-6.15.3a28.82,28.82,0,0,1,3.81-3.22,12.77,12.77,0,0,1,5-2.06c.38-1.55.29-2.63-.3-3.22a19.82,19.82,0,0,0-2.05-1.76c-.78-.58-1.46-1.07-2-1.46s-.68-1-.29-1.76q-4.69,4.7-6.74,5.27c-1.37.4-2.84.79-4.39,1.18-3.91,3.13-5.57,5.56-5,7.32s1.85,2.45,3.8,2a3.82,3.82,0,0,1,3.81-3.22c2.15-.19,3.42.29,3.81,1.46q-4.7,5.87-6.74,7a11.12,11.12,0,0,1-5.56,1.18q1.17,2.34-.59,3.81c-1.17,1-2.74,1.08-4.69.29q-5.87,2.34-5.86,5.86a24.27,24.27,0,0,0-7.91,4.69,80.79,80.79,0,0,1-7.32,5.85,22,22,0,0,0,2.93,4.11c.78.78.78,2,0,3.51a28.43,28.43,0,0,1,6.44-.58c.78-1.95,1.56-3.13,2.35-3.52s2.73-.59,5.86-.59q1.17-7,2.93-5.27c1.17,1.17,2.14,1.17,2.93,0a16.38,16.38,0,0,1,2.63-5.27,14.82,14.82,0,0,1,3.23-2.93c3.9-1.56,6.53-2,7.91-1.47s2.05-.09,2.05-2c2.34-3.9,3.51-5.76,3.51-5.56s.39.29,1.18.29c2-2.73,3.6-4.3,5-4.69A7.18,7.18,0,0,0,737.6,1574.27Zm32.22,36.92c-.78-3.52-2.63-4.78-5.56-3.81s-5.18.49-6.74-1.47q5.85-4.68,3.22-7.61a8.67,8.67,0,0,0-6.74-2.93c-4.68,2-7.42,2.83-8.2,2.63s-1.17-.88-1.17-2a23.19,23.19,0,0,0,7-8.2c-1.56-1.17-2.93-1.26-4.1-.29s-2.15.68-2.93-.88q-7,2.34-8.5,5.27c-1,2-2.63,2.15-5,.59a70.09,70.09,0,0,1-8.79,8.49,17.24,17.24,0,0,1-7.61,3.81,16.86,16.86,0,0,1-7.62,6.74,11.56,11.56,0,0,0-6.45,7.32q2.34,2.94,4.11,5.28c1.17,1.56,3.31,2,6.44,1.17a13.49,13.49,0,0,0,1.76-3.81c.38-1.36,1.36-1.66,2.93-.88-.39-1.17.09-2.93,1.46-5.27s3-2.93,5-1.76a25,25,0,0,1,7.33-7.62,23,23,0,0,1,10.84-3.51c1.55-2,2.83-2.83,3.81-2.64a5.16,5.16,0,0,1,2.63,1.47q-9.37,5.26-11.72,9.08t-7.61,3.22c-4.31,1.57-7.23,3.91-8.79,7,1.95,4.31,3.12,6,3.51,5s1.56-1.07,3.52-.29a23.11,23.11,0,0,1,5.27-2.93q2.93-1.17,2.35,1.76a3.79,3.79,0,0,0-3.81-.29,4.37,4.37,0,0,0-2.64,2.63,10.4,10.4,0,0,0-5.56,4.69q-1.47,2.94-5.57,3.51c2,3.14,3.61,5.86,5,8.21a19.41,19.41,0,0,0,6.74,6.44,52.5,52.5,0,0,0,8.79-8.49,44.64,44.64,0,0,1,8.2-7.91,7.27,7.27,0,0,1,3.22-1.76,13.22,13.22,0,0,0,3.81-1.76,25,25,0,0,0,5.57-6.74c1.76-2.93,4.58-4.19,8.49-3.81Q764.55,1614.12,769.82,1611.19ZM713,1557.28c-.79,1.17-1.67,2.45-2.64,3.81a5,5,0,0,1-4.39,2.05,23.73,23.73,0,0,0,3.51-5C709.86,1557.19,711,1556.9,713,1557.28Zm32.23,22.85q-5.87,2.36-9.38-.58a42.07,42.07,0,0,1-1.17,4.68c-.39,1.18-1.57,1.38-3.52.59.78,1.17,3,1.47,6.74.88S744,1583.26,745.22,1580.13Zm-2.93,34.57c-2.74,2-4.31,3.43-4.69,4.4s-1.37,1.46-2.93,1.46q-1.75-3.51,2.34-3.81C739.74,1616.56,741.5,1615.87,742.29,1614.7Zm42.77,16.41c-3.52-.39-6.15.29-7.91,2.05a67.54,67.54,0,0,1-5.57,5c-1.17-2-2.25-2.14-3.22-.59s-2.25,1.76-3.81.59a44.46,44.46,0,0,1-6.15,6.15,9.07,9.07,0,0,1-8.5,2,16.22,16.22,0,0,1-7.61,7.33,18.1,18.1,0,0,0-7.62,6.15,7.62,7.62,0,0,0,2.93,2.64c1.17.58,1.56,2,1.17,4.39q5.28,4.7,11.72-.88a41.9,41.9,0,0,1,12.89-7.91,23.7,23.7,0,0,1,5-9.37c2.14-2.35,4.59-2.54,7.32-.59a5.2,5.2,0,0,1,1.47-5c1.36-1.36,2.73-2.64,4.1-3.81s2.64-2.34,3.81-3.51S786.23,1633.07,785.06,1631.11ZM754,1613.53q-4.69-1.17-5.56-.29a7.11,7.11,0,0,1-3.22,1.46c-.79-1.55-.79-2.63,0-3.22a4.68,4.68,0,0,1,2.93-.88,16.13,16.13,0,0,0,3.22-.29,2.74,2.74,0,0,0,2-2Zm28.13,10c-.39-2-1.27-3-2.64-3.22a5.41,5.41,0,0,1-3.22-1.47,18.58,18.58,0,0,0-10,6.16c-2.34,2.93-5.67,4.39-10,4.39q.57,5.87-3.22,7a16.17,16.17,0,0,0-6.74,4.1q5.85,1.18,7.32-1.75t6.15-2.93a13.58,13.58,0,0,1,10-7.33A34.5,34.5,0,0,0,782.13,1623.49ZM805.57,1654q0-2.34-2.64-3.81a14.69,14.69,0,0,0-5.57-1.76,10.05,10.05,0,0,0-5,.59c-1.37.59-1.85,1.47-1.46,2.64q-3.52-1.75-1.17-5a8.87,8.87,0,0,1,5.86-3.81c0-2.73-.69-4.1-2.05-4.1a9.75,9.75,0,0,1-4.4-1.18q-3.51,1.77-3.51,4.69c0,2-1.18,2.74-3.52,2.35,0,3.91.48,5.66,1.46,5.27s1.47.2,1.47,1.76q-10.54,7.62-14.06,10a31.7,31.7,0,0,0-7.62,6.15,34.42,34.42,0,0,1-8.79,6.74q5.28,18.16,18.75,28.71a5.64,5.64,0,0,1,2.64-2.93,7.56,7.56,0,0,0,2.63-1.76,71,71,0,0,0,6.74-10.25c1.76-3.32,3.61-5,5.57-5,0-1.56-.69-1.85-2-.88a4,4,0,0,1-4.4.29,7.44,7.44,0,0,1-5.56,5.86,63.56,63.56,0,0,0-8.5,2.93q0-10,5.57-14.35t12-9.09a10.29,10.29,0,0,1,4.39-5.56c2.15-1.37,3.81-2.44,5-3.23Q799.7,1652.8,805.57,1654ZM769.82,1331.7a18.73,18.73,0,0,0-3.51-1.18c-1.57-.38-2.55,0-2.93,1.18Q768.66,1335.21,769.82,1331.7Zm23.44,2.34c-2.73,0-4.79.79-6.15,2.34a4,4,0,0,1-5,1.17,3.51,3.51,0,0,1-2.34,2.35,7.23,7.23,0,0,0-2.93,1.76q3.51,3.51,5.56,1.46a10.08,10.08,0,0,1,5.57-2.64c0-2,.68-3,2-3.22S792.48,1336,793.26,1334Zm24.61,366.8a8.83,8.83,0,0,1,0-8.79c1.56-2.73,1.37-4.69-.58-5.86a44.28,44.28,0,0,1-4.11,4.68,5.53,5.53,0,0,1-5.27,1.76q-4.7,4.11-3.22,5.28c1,.78.88,1.56-.29,2.34-3.14,2.34-4.89,3.72-5.28,4.1s-1.37.4-2.93,0q0,3.53-4.69,4.69,1.17,2.94-.58,3.51a3.56,3.56,0,0,0-2.35,2.35,7.13,7.13,0,0,0,6.45-2.35,10.31,10.31,0,0,1,7.62-2.93q1.17-3.51,6.44-3.51a5.3,5.3,0,0,1,3.81-3.52A21,21,0,0,0,817.87,1700.84ZM804.4,1344.59q-2.35-1.17-5.57.29c-2.15,1-2.84,2.64-2.05,5q-7-.58-6.45,1.76-2.94,6.45,0,4.68t5.28-.58a13.22,13.22,0,0,1,3.8-5.86A43.3,43.3,0,0,0,804.4,1344.59Zm11.71,375.58c-2,1.17-2.83,3.43-2.63,6.74s-1.08,4.2-3.81,2.64c-1.57-4.3-2.45-6-2.64-5s-1.08,1.08-2.63.29a66,66,0,0,0,5.27-8.79,30.33,30.33,0,0,0,2.93-8.2q-2.36,5.87-6.15,6.44a31.16,31.16,0,0,0-6.74,1.76,17,17,0,0,1-5,4.39,8.46,8.46,0,0,0-3.81,4.4,57.59,57.59,0,0,0,4.39,5,14.11,14.11,0,0,1,3.23,6.15,17.8,17.8,0,0,1,8.78,7,39.54,39.54,0,0,0,7.62,8.79,108.15,108.15,0,0,1,1.17-16.4A49.92,49.92,0,0,0,816.11,1720.17Zm-14.64-45.7q-3.53-1.17-5.28-.29a9.13,9.13,0,0,1-4.1.87q6.43,4.11,7,2.93c.39-.77,1-.77,1.76,0Zm2.34-337.5c-2,.39-3.72.69-5.27.88s-2.55,1.46-2.93,3.81a25.23,25.23,0,0,1,3.22.29,5.5,5.5,0,0,0,3.22-.29Zm6.44,24.61q-4.69-1.17-6.15,1.17c-1,1.57-2.84,2.15-5.56,1.76a21.83,21.83,0,0,0-1.47,5q-.3,2.05-.88,5.56a17.59,17.59,0,0,0,3.81-3.8c1-1.37,1.85-2.73,2.64-4.11a12.94,12.94,0,0,1,2.93-3.51A10.42,10.42,0,0,1,810.25,1361.58Zm17-19.34q-1.18-4.1-2-3.51t-3.81,0a23.26,23.26,0,0,0-3.52,5.86,7.11,7.11,0,0,1-4.1,4.1q-5.28.58-6.45.58-.59,2.94-2.63,3.81a6.46,6.46,0,0,0-3.22,3.22,32.94,32.94,0,0,1,7.32-1.17,28.51,28.51,0,0,0,5.57-.58c2.72-2.35,4.39-4.59,5-6.74s2-2.83,4.39-2Zm-18.17,322.27a10.08,10.08,0,0,0-2.93-2.93c-1.56-1.17-2.73-1-3.51.58a18.06,18.06,0,0,0,4.1,2A9,9,0,0,0,809.08,1664.51Zm8.21-333.4q-1.77-.58-6.74,0c-3.33.39-5,2.15-5,5.27Q813.18,1334.63,817.29,1331.11Zm-7,65c-2.73,3.91-4.2,6.06-4.39,6.44a6.09,6.09,0,0,0-.29,2.35,5.29,5.29,0,0,0,2.93-3.52A40.9,40.9,0,0,1,810.25,1396.15Zm8.21,273a8.92,8.92,0,0,0-6.45,5.27,21.93,21.93,0,0,1-4.69,7q3.52-1.76,7.92-4.1T818.46,1669.2Zm-1.17-289.46a10.81,10.81,0,0,0-7,0c-2,.79-2.54,2-1.75,3.52a31.3,31.3,0,0,1,6.15-.59C816.79,1382.67,817.67,1381.7,817.29,1379.74Zm-1.76,48.63q-2.35,5.87-3.81,10.84t3.22,6.74Q818.46,1438.35,815.53,1428.37Zm.58-19.33a16,16,0,0,0-4.1,7.62c-.78,3.13-.2,5.27,1.76,6.44a12,12,0,0,0,2.05-6.44C816,1413.93,816.11,1411.38,816.11,1409Zm1.76,244.33a10.65,10.65,0,0,0-4.69.88c-1.17.59-1.37,1.67-.58,3.23a5.29,5.29,0,0,1,2.93-1.47Q817.29,1655.73,817.87,1653.37Zm-4.1-198.63q3.51.6,2.34-2.63c-.78-2.15-1.75-3.42-2.93-3.81ZM846,1332.28a13.32,13.32,0,0,0-9.09-.29c-2.92,1-5,2.25-6.15,3.81a5,5,0,0,0,4.4.29,15.7,15.7,0,0,0,3.81-2.34,11.06,11.06,0,0,1,3.51-2A3.89,3.89,0,0,1,846,1332.28Z"/><path class="cls-2" d="M1196.39,1578.37c-4.69,0-7.13.21-7.33.59s-.68.59-1.46.59a7.16,7.16,0,0,0,3.22,1.75,7.36,7.36,0,0,1,3.22,1.76,11.54,11.54,0,0,1-3.51,3.23,11.22,11.22,0,0,0-3.52,3.22c2,2,2.35,4.59,1.17,7.91s-1.37,6.15-.58,8.49a14.6,14.6,0,0,1,6.44,1.18,8.12,8.12,0,0,1-1.46,5.27q-1.47,1.76-3.22,3.51a17.79,17.79,0,0,0-2.93,3.81,11.19,11.19,0,0,0-1.18,5.57,18.9,18.9,0,0,0-2.63,7.91,15.24,15.24,0,0,1-2,6.74q1.76,7-1.17,10.25a41.1,41.1,0,0,0-5.28,7.33,165.91,165.91,0,0,0-15.23,38.67,179,179,0,0,0-18.46,21.68,52.42,52.42,0,0,1-22,17.58q-7,4.1-13.19,7t-12.59,5.86a8.12,8.12,0,0,1-5.57-4.4,8.1,8.1,0,0,0-4.39-4.39,8.52,8.52,0,0,1-4.11,6.74c-2.34,1.37-3.71,3.8-4.1,7.32a12.22,12.22,0,0,1-6.15,4.1q-3.81,1.18-7.62,2c-2.54.59-5.08,1.07-7.61,1.47a18.15,18.15,0,0,0-6.74,2.34q-7.62-1.18-9.08-.58a35.37,35.37,0,0,1-3.81,1.17q-11.73-2.94-23.44-5.28a131.7,131.7,0,0,1-22.27-6.44,25.94,25.94,0,0,1-6.73-4.4c-1.38-1.36-3-1.46-5-.29a6.16,6.16,0,0,0-4.1-3.81c-2-.58-3.13-2.05-3.51-4.39q-9.39-1.17-14.06-6.45a31.3,31.3,0,0,0-12.31-8.2,31.12,31.12,0,0,1-2.05-3.52,33.59,33.59,0,0,0-2-3.51q-6.45,0-6.45-5.86a2.86,2.86,0,0,1-3.51-1.47,5.43,5.43,0,0,0-3.52-2.63,34.55,34.55,0,0,0-9.67-16.12,38.72,38.72,0,0,1-10.25-16.11c-3.91-.78-6.44-1.56-7.62-2.34a27.21,27.21,0,0,0,.59-5.28c0-1.55,1-2.73,2.93-3.51q-3.51-2.92-2.64-9.08c.59-4.11-.49-7.13-3.22-9.09a15.77,15.77,0,0,0,.29-7.91,11.37,11.37,0,0,1,.3-6.73c-2-.78-3-2.64-3.23-5.57s.68-5,2.64-6.15a63.39,63.39,0,0,1-.59-7.33,49.78,49.78,0,0,1,.59-6.74c-1.17-2-2.64-2.72-4.39-2.34s-3-.59-3.81-2.93a7.82,7.82,0,0,1,1.75-4.69,18,18,0,0,1,4.4-4.1c1.76-1.17,3.41-2.34,5-3.51a7.4,7.4,0,0,0,2.93-4.11,8,8,0,0,1-2-5.86,14.14,14.14,0,0,1,1.76-5.56c1-1.76,2-3.52,3.22-5.27a30.83,30.83,0,0,0,2.93-5.57q-2.94-1.76-7,.29t-6.45-2a4.45,4.45,0,0,1,2.35-2.64q1.75-.87.58-3.8a170.41,170.41,0,0,1,15.82-11.43q7-4.39,7.62-14.94,4.1-4.68,8.2-9.08a22.48,22.48,0,0,1,9.38-6.16q.57-4.08,5.86-7a14.24,14.24,0,0,1,3.22-8.2,28.51,28.51,0,0,1,5.86-5,71.33,71.33,0,0,0,6.15-4.4,16.11,16.11,0,0,0,4.69-6.44,73.15,73.15,0,0,1,23.14-14.06,112,112,0,0,0,23.15-11.72c2,.39,4.48-.19,7.61-1.76a17.64,17.64,0,0,1,10-1.76,9.17,9.17,0,0,1,4.1.88,4.4,4.4,0,0,0,4.1-.29,7.94,7.94,0,0,0,5.86,2.34c2.34,0,4.88-.09,7.62-.29a54.94,54.94,0,0,1,7.91,0,15.27,15.27,0,0,1,6.73,2c4.3-.78,7.33-.38,9.09,1.17s4.58,2.15,8.49,1.76q1.17,4.11,3.81,2.93a7.62,7.62,0,0,1,5-.59q5.85.6,8.79,3.52a21,21,0,0,0,7.62,4.69,10.66,10.66,0,0,1,7.32,2.34,18.81,18.81,0,0,0,5.57,3.52l9.37,3.51a85.85,85.85,0,0,0,9.38,2.93c.78,3.13,1.65,6.15,2.63,9.08s3.42,4.4,7.33,4.4q-1.18,7,2.93,9.08a9.85,9.85,0,0,1,5.27,6.74,13,13,0,0,0,5.57,0q3.8-.58,5,2.34c3.9-.38,6,.2,6.44,1.76a8.73,8.73,0,0,1-2.93,3.52,8.58,8.58,0,0,0-2.93,4.1,13.49,13.49,0,0,1,1.76,3.81,24.8,24.8,0,0,0,1.76,4.39c3.52,2.34,5.86,3.42,7,3.22a2.84,2.84,0,0,1,2.93,1.47q-2.34,8.79,1.76,18.45a59.25,59.25,0,0,1,4.69,19.63q4.68-1.15,5.86.88A7.64,7.64,0,0,0,1196.39,1578.37Zm-222.07-24c-2,0-3,.4-3.23,1.17s-1.27.79-3.22,0q-4.7,2.36-5.56,5c-.59,1.76-2.45,2.26-5.57,1.47a19.41,19.41,0,0,1-10.25,6.74,17.46,17.46,0,0,0-10.26,7.91c-3.51-.39-5.67-.59-6.44-.59-1.57,2-2.35,3.32-2.35,4.1a3.37,3.37,0,0,0,1.17,2.35,49.48,49.48,0,0,1,10.26-6.16,64.81,64.81,0,0,1,9.08-2.63q-2.94,5.86-7.91,6.44a10.94,10.94,0,0,0-7.91,4.69q-7,5.87-13.48,6.74a23.42,23.42,0,0,0-11.13,4.39,14.57,14.57,0,0,0-5.27,9.67q-.6,5.58-1.18,12a48.43,48.43,0,0,0,6.74-1.17,3.68,3.68,0,0,0,2.64-2.93,2.31,2.31,0,0,0,2.93.29,4.52,4.52,0,0,1,3.52-.29q.57-4.68,4.1-5.27a9.26,9.26,0,0,0,5.86-3.52,12.82,12.82,0,0,1-6.16,7.62,69.41,69.41,0,0,0-9.08,5.86q-3.51,5.87-5.56,7.32a33.28,33.28,0,0,1-4.4,2.64q-.58,5.28,2.34,8.2a142.22,142.22,0,0,0,13.19-8.2,27.57,27.57,0,0,1,13.18-5.27c2.73-3.13,4.4-5.08,5-5.86a9.3,9.3,0,0,1,3.22-2.35q6.45-2.92,7.62-4.39l2.35-2.93a6.42,6.42,0,0,1,2.63-2.05c1-.39,2.25-.19,3.81.58q6.45-5.27,6.74-7.61a3.15,3.15,0,0,1,2-2.93c0-3.12,1-4.49,2.93-4.1a7.93,7.93,0,0,0,5.27-.59q1.17-8.21-.58-8.5c-1.17-.19-1.76-1.26-1.76-3.22a12.36,12.36,0,0,0,3.22-5.27,8.64,8.64,0,0,0-.29-5.86,19.34,19.34,0,0,1-8.2-.59,3.72,3.72,0,0,1-2.35,2.93,20.39,20.39,0,0,1-4.1.88,40.68,40.68,0,0,0-4.69.88,5.68,5.68,0,0,0-3.51,2.34q2.92-5.85,6.44-4.1a134.85,134.85,0,0,0,12.6-5.86Q975.49,1560.8,974.32,1554.35Zm-1.17,61.52c-2.35-2.34-3.14-3.9-2.35-4.68a13.32,13.32,0,0,0,2.05-2.64,20.58,20.58,0,0,0,1.47-2.93c.38-1,0-2.24-1.17-3.81a15.27,15.27,0,0,0-7.33,1.47,7.92,7.92,0,0,1-5.57.88,6.64,6.64,0,0,1-3.8,5.56,32.75,32.75,0,0,1-5.57,2,65.83,65.83,0,0,1-5.86,6.45,8.56,8.56,0,0,1-9.37,2.34c-2.74,2.35-3.81,3.81-3.23,4.4s.49,1.08-.29,1.46c-2.34,0-3.52.59-3.52,1.76a2.28,2.28,0,0,1-1.75,2.34,8.9,8.9,0,0,1-10,2.93c.38,2.74-.3,3.91-2.06,3.52s-2.83.39-3.22,2.34a70.69,70.69,0,0,1,8.2-2.93,20,20,0,0,0,7-3.51c.77,1.56.58,2.83-.59,3.81a10.35,10.35,0,0,1-4.69,2,6.11,6.11,0,0,1-4.39-.59q-2.64-1.17-2.64,1.76-3.51,7.62-4.69,7.62a5.67,5.67,0,0,1-2.93-1.18,6.25,6.25,0,0,0-1.46,7c1,2.74,2.44,4.5,4.39,5.28q11.13-7,22.27-13.48a254.52,254.52,0,0,0,21.68-14.06c3.12-1.56,4.88-2.64,5.27-3.22s1.17-.68,2.35-.3a12.28,12.28,0,0,1,5.56-6.15A16.86,16.86,0,0,0,973.15,1615.87Zm2.92-80.85c-3.9-.39-7.13.1-9.66,1.46a36.66,36.66,0,0,1-8.5,3.22c-.79,3.91-2.44,6.06-5,6.45a23.2,23.2,0,0,0-8.5,3.51,7.58,7.58,0,0,0-2.63,2.93c-.59,1.18-1.86,1.76-3.81,1.76,0-2.73.29-4.1.88-4.1a24.88,24.88,0,0,0,3.81-.59,6.11,6.11,0,0,1,.88-3.22,7.36,7.36,0,0,0,.87-3.81,85.92,85.92,0,0,1-19,9.08,18.64,18.64,0,0,0-12,10.26q11.72-2.92,14.94-6.45t9.08-.58a8.93,8.93,0,0,1-5.86,4.68,9,9,0,0,0-5.86,4.69,18.54,18.54,0,0,0-4.39-2c-1.76-.58-2.84.1-3.22,2-.4,3.13-1.76,5.08-4.1,5.86s-3.14,2.15-2.35,4.1c.78-1.55,1.76-2,2.93-1.46a10.62,10.62,0,0,0,4.69.88q2.34,1.17-2.93,2.93a12.56,12.56,0,0,0-7.62,6.44,4.22,4.22,0,0,1,3.81.59,10.12,10.12,0,0,0,4.4,1.76q-.6-7,4.1-7,6.43-6.43,11.13-6.73c3.12-.2,5.47-1.27,7-3.23,3.12-2.72,6.05-4.29,8.79-4.68a14.3,14.3,0,0,0,7-2.93q-4.11-2.92-10-1.18a14,14,0,0,0,5.57-3.51q3.21-2.92,6.15-1.76c.38,1.17,1.56,1.47,3.51.88a6.17,6.17,0,0,0,4.11-3.81,9.78,9.78,0,0,1,3.51-2.05c1.56-.58,2.35-1.85,2.35-3.81Q976.66,1542.63,976.07,1535Zm-7,108.28A37.32,37.32,0,0,0,955,1648a29.39,29.39,0,0,1-12.89,4.11c0,2-1.08,2.93-3.22,2.93h-4.4c-3.13,5.08-6.73,8.4-10.84,10a21.12,21.12,0,0,0-9.66,7,7.69,7.69,0,0,1,3.22,2.63,13,13,0,0,0,2,2.64q9.36-5.85,18.16-11.72A146.58,146.58,0,0,1,956.15,1655q1.17-2.93,5.86-5.28A16.1,16.1,0,0,0,969,1643.3Zm10-130q-14.06,3.51-23.43,11.13a115.09,115.09,0,0,1-21.1,13.48c-2.34,2.73-4.59,4.49-6.73,5.27a17,17,0,0,0-6.16,4.1c1.95,1.17,3.61.79,5-1.17s3-2.35,5-1.17a9.43,9.43,0,0,1,5.28-4.11,52.89,52.89,0,0,0,7-2.92q3.51-6.45,10-1.76a53.65,53.65,0,0,1,10-7.91,43.43,43.43,0,0,1,14.06-5C979.39,1519.4,979.78,1516.07,979,1513.34Zm-4.68,176.36a13.43,13.43,0,0,0-4.4-1.17,9.12,9.12,0,0,0-3.81,1.17c0,1.17-.78,2.25-2.34,3.23a8.15,8.15,0,0,1-5.86.87,3.63,3.63,0,0,1-2.64,3.81c-1.75.59-3,.5-3.8-.29q-3.53,6.45-14.07,5.27c-.78-1.55-1.46-2.83-2-3.8s-.49-2.64.3-5a17.27,17.27,0,0,0,7.91-6.15,8.73,8.73,0,0,1,8.49-3.81,11.62,11.62,0,0,1,6.45-6.15,8.13,8.13,0,0,0,5.27-6.15c2,0,3.31-.39,4.1-1.17a19.88,19.88,0,0,1,2.93-2.35,10.37,10.37,0,0,0,2.64-2.34c.58-.78.48-2-.29-3.52a19.71,19.71,0,0,0-7.62,1.47,41.48,41.48,0,0,0-7,3.81,47.77,47.77,0,0,1-7.62,4.1,25.32,25.32,0,0,1-10,1.76q-7,7-9.38,9.08a27.24,27.24,0,0,1-5.86,3.81q1.77,10,7.91,15.82t12.6,11.72a52.82,52.82,0,0,0,7.91-5.57q3.81-3.21,9.08-.29,2.34-8.2,6.16-10.84A12.26,12.26,0,0,0,974.32,1689.7Zm-41-123a18.55,18.55,0,0,1-4.1,1.75c-.39,0-1,.79-1.76,2.35-1.17-2.35-.78-3.81,1.17-4.4S932.13,1565.88,933.3,1566.66Zm4.1,85.54c.78-.78,1-2,.59-3.81s-1.57-2.43-3.52-2.05a20.33,20.33,0,0,1,1.47,3.52A5.07,5.07,0,0,0,937.4,1652.2Zm4.69-23.43a5.52,5.52,0,0,1-3.22,1.46,5.46,5.46,0,0,1-3.22-.29c0-1.17.87-1.76,2.63-1.76A9.1,9.1,0,0,1,942.09,1628.77ZM986,1499.27a11.73,11.73,0,0,1-.59-6.44,62.58,62.58,0,0,0-17.87,9.67,65.29,65.29,0,0,1-17.29,9.66,30.49,30.49,0,0,0-7.32,4.4,13.3,13.3,0,0,0-4.4,7.32q8.79.6,14.07-4.1a75.79,75.79,0,0,1,10-7.62,24.85,24.85,0,0,1,7-2.34,8.69,8.69,0,0,0,5.86-4.1c2.73-.39,4.69-1.37,5.86-2.93A10.71,10.71,0,0,1,986,1499.27ZM974.9,1629.94c-2-2.73-3.71-3.52-5.27-2.35a44.35,44.35,0,0,0-4.69,4.11,22.25,22.25,0,0,1-5,3.8,5.07,5.07,0,0,1-5,.3,5.63,5.63,0,0,1-4.1,4.68q-3.51,1.18-2.93,4.11a59.59,59.59,0,0,1,7.91-3.23c2.93-1,5.76-2,8.5-3.22.38-2,1.85-3.31,4.39-4.1A12.22,12.22,0,0,0,974.9,1629.94Zm-1.17,25.19q-7-2.93-10.84.59a47.08,47.08,0,0,1-9.08,6.44q5.85,2.35,10.25-1.75A20.78,20.78,0,0,1,973.73,1655.13Zm7.62,80.28a40.63,40.63,0,0,1-1.76-11.72,22.68,22.68,0,0,0-2.93-11.14,23.2,23.2,0,0,0-9.37,3.52,72,72,0,0,0-8.79,6.45,36.71,36.71,0,0,0,11.42,7A57,57,0,0,1,981.35,1735.41Zm-8.79-55.67q-5.28,2.94-7.32,3.22a3.1,3.1,0,0,0-2.64,2.64q2.92-1.17,5.86-2A6.16,6.16,0,0,0,972.56,1679.74Zm3.51,22.85q-2.34-1.75-6.44.88T966.7,1709c1.56-.39,2.93-.78,4.1-1.17a40.19,40.19,0,0,1,4.69-1.17ZM997.17,1477q-10,1.76-15.82,5.27a64.87,64.87,0,0,1-12.89,5.86q8.79,2.35,15.53-2.05T997.17,1477Zm110.15,140.62a10.63,10.63,0,0,0-3.8-2.05c-1-.19-1.86-1.26-2.64-3.22q1.17-8.79,5.27-9.38a48.28,48.28,0,0,1,.59-7.32,49.55,49.55,0,0,0,.58-7.32q-3.51-2.34-3.51-4.4a15,15,0,0,1,.88-4.69q.87-2.62,1.76-5.86a13.6,13.6,0,0,0-.3-7.32,22.15,22.15,0,0,1-6.44,1.47,20.13,20.13,0,0,1-6.15-.3,4.58,4.58,0,0,1-3.52-2.63q-.88-2.05,1.46-6.16a24.91,24.91,0,0,0,10-5.56q4.08-3.81,1.75-12-5.87-4.08-6.44-5.27a16.85,16.85,0,0,1-1.17-3.51,13.79,13.79,0,0,0,3.8-6.45,33.77,33.77,0,0,0,.88-8.2l-3.51-2.35a10.22,10.22,0,0,1-2.93-2.93c-.79-1.55-.69-2.83.29-3.8a4.54,4.54,0,0,0,1.47-3.23c0-2-.59-3.31-1.76-4.1a8.84,8.84,0,0,1-2.93-3.51q-2.36-7-3.52-8.79a18.75,18.75,0,0,0-2.34-2.93q-1.18-7-4.4-8.21a7,7,0,0,1-4.39-4.1,18.67,18.67,0,0,1-8.79-.88q-4.11-1.45-8.49-2.93a35.59,35.59,0,0,0-8.79-1.75,20.54,20.54,0,0,0-9.67,2q-6.45-3.52-11.72.58-7.62,1.18-10.25,4.1a26.88,26.88,0,0,1-6.74,5.28,23.51,23.51,0,0,1-8.21,4.39q-4.7,1.47-5.27,7.91,2.92,0,8.79-2.34t12.3-4.69a9.9,9.9,0,0,1,2.06,3.81q.87,2.64-2.06,3.81-8.2,3.51-16.69,6.74A18.44,18.44,0,0,0,991.31,1511q-3.51,4.69-2.93,6.15c.38,1-.2,1.86-1.76,2.64a29.07,29.07,0,0,0,5-1.76q2.64-1.15,5,1.18a23.78,23.78,0,0,1-11.13,8.78,12.26,12.26,0,0,0-1.17,5.57,16.61,16.61,0,0,1-1.17,6.15,35,35,0,0,0,7.61-.58q-1.76,6.45-4.39,8.79a19.11,19.11,0,0,1-5.57,3.51q5.28,5.86,7.91,5a10.77,10.77,0,0,1,5.57-.29q-7,2.94-9.38,6.44t-5.27,2.93a12.18,12.18,0,0,0,0,9.09c1.17,3.32,1.36,6.15.59,8.49q3.51,1.18,5.56-.88c1.37-1.36,3.61-2,6.74-2q0,2.94,1.17,3.81t0,3.81a11.51,11.51,0,0,0-7,3.81,20.11,20.11,0,0,1-7,5,6.67,6.67,0,0,1,1.47,6.15,6.12,6.12,0,0,0,.87,5.57q1.17-1.76,7.91-1.76a44.48,44.48,0,0,0,9.09-.59q1.16,4.69-4.69,7.33a25.19,25.19,0,0,1-10,2.63c0,3.91-.29,6.07-.88,6.45a14,14,0,0,0-2,1.76q3.51,4.7,7.91,4.1c2.93-.39,4.78.79,5.56,3.52a5,5,0,0,1-1.75,5,47.14,47.14,0,0,1-5.57,4.1,26.43,26.43,0,0,0-5.57,4.68q-2.34,2.64-1.17,6.74a48,48,0,0,1,8.5-.29,3.13,3.13,0,0,1,2.64,2.64,7.12,7.12,0,0,1,4.1-1.76,2.29,2.29,0,0,1,2.34,1.76,11.43,11.43,0,0,1-3.81,5.56c-1.76,1.38-3.51,2.74-5.27,4.1a37.16,37.16,0,0,0-5,4.69q-2.35,2.64-2.35,7.33a14.09,14.09,0,0,0,8.5-.3q4.4-1.46,6.15,2.64a4,4,0,0,1-.29,4.39,17.41,17.41,0,0,1-3.81,3.81c-3.51.79-5.47,1.57-5.86,2.35a3.73,3.73,0,0,1-2.34,1.75c-.79,3.14-.88,5.19-.29,6.16a14.38,14.38,0,0,1,1.46,3.81,9.92,9.92,0,0,0,6.15-.88,4.58,4.58,0,0,1,5.57.88c-.79,2-2.45,3-5,3.22a16.93,16.93,0,0,0-6.15,1.46,20.28,20.28,0,0,1,.29,5.86,12.12,12.12,0,0,0,.88,5.86,2.64,2.64,0,0,0,2.93.59,5.41,5.41,0,0,1,3.51,0c-1.17-2.73-.88-4.69.88-5.86a29.17,29.17,0,0,0,4.4-3.52c1.55,2.74,1.75,4.4.58,5a11.53,11.53,0,0,0-2.93,2,3.52,3.52,0,0,1-1.46,4.69,5.39,5.39,0,0,0-2.64,4.69c4.3,2,6,3.13,5.27,3.51s-1,1.18-.58,2.35a156.19,156.19,0,0,0,19,14.94q10.85,7.33,27.25,5a49.14,49.14,0,0,0,19.92-6.74,130,130,0,0,0,15.82-10.84,133.83,133.83,0,0,1,11.43-16.7,54.3,54.3,0,0,0,9.66-18.45,15.22,15.22,0,0,0,.3-5,9.8,9.8,0,0,1,.88-5,10.15,10.15,0,0,1,1.75-3.23,10.33,10.33,0,0,0,1.76-3.22,50.13,50.13,0,0,0,0-10.84,40.79,40.79,0,0,1,.59-12,45.77,45.77,0,0,1,1.46-5.57,11.54,11.54,0,0,0-.29-6.74,35.43,35.43,0,0,1-6.45,3.52,7.27,7.27,0,0,1-5.27-2.34,15.43,15.43,0,0,1-3.52-5.28,21,21,0,0,1,5.86-5,29.68,29.68,0,0,0,6.16-4.69,18.89,18.89,0,0,0,4.1-6.15C1108.59,1624.08,1108.5,1621.15,1107.32,1617.63Zm-99,82a20.74,20.74,0,0,0-1.76,5.28c-.39,2-2.15,2.93-5.27,2.93q1.76-6.45-.29-6.16a22.4,22.4,0,0,1-3.23.3Q1005.37,1697.92,1008.3,1699.66Zm151.76-32.81c-3.13.4-5.08,1.37-5.86,2.93s-2.15,1.76-4.1.59q0,3.51-2.64,4.1a7.69,7.69,0,0,0-3.81,1.76,7.81,7.81,0,0,1-3.51,2.93c-1.17.39-2.74,1-4.69,1.75-2.34,3.91-4.6,6.45-6.74,7.62a9.16,9.16,0,0,0-4.39,5.86,24.86,24.86,0,0,0-6.74,3.52c-2.15,1.56-3.22,3.91-3.22,7a9.07,9.07,0,0,0-5.28,4.39c-1.17,2.15-3.51,2.84-7,2.05a10.17,10.17,0,0,1-2,4.1,41.91,41.91,0,0,0-2.64,3.52q-1.17,1.76-2.34,3.81a5.7,5.7,0,0,0-.59,4.39,8.63,8.63,0,0,0-3.8,4.4,13.28,13.28,0,0,0-1.47,5q26.94-7,43.36-24.32t26.37-41.89Zm-53.32-186.33a51.15,51.15,0,0,1-7-2.93,10.07,10.07,0,0,0-6.45-1.17c0,3.13,1,5.18,2.93,6.15a16.1,16.1,0,0,1,5.28,4.4,37.38,37.38,0,0,0,4.39-3.22A4.54,4.54,0,0,0,1106.74,1480.52Zm4.69,7.62q-2.94-1.76-4.4.88t-4.39.88c.78,2.74,2.43,3.81,5,3.22S1111.43,1490.88,1111.43,1488.14Zm23.43,17.58q-5.27-4.1-5.27-5.27,4.1-5.87,0-6.16a15.9,15.9,0,0,0-7,.88q-2.36,5.28-7,5.57t-6.45,5.56q5.28-2.92,8.21-1.75-.6,5.87-4.69,7a20.1,20.1,0,0,0-7,3.51,24.75,24.75,0,0,1,.88,3.81,3.08,3.08,0,0,0,2.63,2.64q7-2.34,8.21-5c.77-1.76,2.53-2.24,5.27-1.47-.39-1.95.09-3,1.46-3.22a5.52,5.52,0,0,0,3.23-1.46,20.68,20.68,0,0,0-3.52-4.4c-.79-.58-2.15-.48-4.1.29,3.52-2.72,6.24-3.51,8.2-2.34A13.44,13.44,0,0,0,1134.86,1505.72ZM1119,1495.17c-2.73-2-5.08-2.63-7-2.05s-2.93,2.45-2.93,5.57a13.34,13.34,0,0,1,4.69-2.35C1115.33,1496,1117.08,1495.57,1119,1495.17Zm54.5,133c-3.52.79-6.06,1.37-7.62,1.76a41.11,41.11,0,0,0-5.27,1.76c.38,3.13-1.08,5.18-4.4,6.15a34.1,34.1,0,0,1-9.67,1.46,40.15,40.15,0,0,1-3.51,6.15,21.62,21.62,0,0,0-2.35,3.81c-3.91,1.18-6.73,1.57-8.49,1.18s-2.64,0-2.64,1.17q4.68,6.45,6.45,5.27c1.17-.78,2.14-.78,2.93,0-3.91,3.13-6.16,5.27-6.74,6.45s-1.86,1.56-3.81,1.17q-4.7,7.62-15.24,11.13-1.76,1.75-1.46,5.57t-2.64,5q13.47,1.17,22-6.74a64.31,64.31,0,0,1,20.21-12.6q1.17-7,8.79-6.44a4,4,0,0,1,2-5.28,15.11,15.11,0,0,0,5-4.1c-2-2.73-2.15-4.29-.59-4.69s2-1,1.18-1.75a31.63,31.63,0,0,0-6.45,1.75c-2,.79-3.51.59-4.69-.58a23.1,23.1,0,0,1,7.33-2.64,16.76,16.76,0,0,0,7.32-3.22q-.59-4.1.88-6.15A9.48,9.48,0,0,0,1173.54,1628.18Zm5.86-53.91q-1.77-1.15-1.18-4.1a8,8,0,0,0-.58-5.27q-11.15,2.94-14.94,8.49c-2.55,3.72-6,5.19-10.26,4.4a18.17,18.17,0,0,0-1.76,3.22,5.89,5.89,0,0,1-2.34,2.64,18.8,18.8,0,0,0-5.57,3.22,21.52,21.52,0,0,1-3.8,2.93,38.86,38.86,0,0,0-4.11,2.93,7.06,7.06,0,0,0-2.34,3.81c.78-2,.78-3.12,0-3.52s-1.37-1.36-1.76-2.93a33.76,33.76,0,0,1,6.45-.58q3.51-4.68,7.61-9.67c2.73-3.31,6.45-4.59,11.14-3.81a8.33,8.33,0,0,0,1.17-4.69q0-2.92,3.52-3.51c.38-2.35-.3-3.22-2.06-2.64s-3,.29-3.8-.88a54.62,54.62,0,0,1,8.78-2.34c2.35-.78,4.2-.78,5.57,0s2.44.58,3.22-.59c.39-2.34.88-3.81,1.47-4.39a4.58,4.58,0,0,0,.88-3.22,12.65,12.65,0,0,1-1.76-4.11,23.11,23.11,0,0,0-1.76-4.68,48.06,48.06,0,0,1-5.56.58c-1,0-1.28-.58-.88-1.76.78-1.17,1.55-2.34,2.34-3.51s.39-2.14-1.17-2.93c-2,0-3.22.39-3.81,1.17a3.06,3.06,0,0,1-2.64,1.17q4.69-8.79.59-9.66a26.41,26.41,0,0,0-8.79-.3c0-1.55.78-3.9,2.34-7a7.56,7.56,0,0,0-2.63-3.22,13.7,13.7,0,0,1-2.64-2c-.79-3.12-2-5.07-3.81-5.86a10.88,10.88,0,0,0-5.56-.88,18.92,18.92,0,0,0-6.45,2l-5.86,2.93q-4.7,4.69-8.79,4.1,4.68,6.45,9.08,5.27t2,2.93q-1.76-2.93-2.93-.87a2.86,2.86,0,0,1-3.51,1.46c-2-.78-3.13-1.46-3.52-2a4.43,4.43,0,0,0-2.34-1.47,41.3,41.3,0,0,0,4.69,5c.38.2.38.68,0,1.46a30.83,30.83,0,0,0-5.57,2.93,30.53,30.53,0,0,1-5.57,2.93c.78,3.91,1.27,6.15,1.47,6.74a2.63,2.63,0,0,0,1.46,1.46,35.82,35.82,0,0,0,14.65-6.74,36.06,36.06,0,0,1,14.65-6.73c-2.34,4.3-4.3,6.73-5.86,7.32s-3.32,1.27-5.27,2q-4.69,4.11-5.28,5.86a5.65,5.65,0,0,1-2.34,2.93c-1.56,2.34-3,4.6-4.39,6.74a10.39,10.39,0,0,1-6.16,4.39,20.65,20.65,0,0,0,.59,8.79,43.29,43.29,0,0,1,5.27-1.76c1.56-.38,3.13.21,4.69,1.76q1.17-4.1,4.69-3.81c2.34.2,3.9-.67,4.69-2.63a21.9,21.9,0,0,0-3.52.29,4.71,4.71,0,0,1-2.93-.29,14,14,0,0,1,7.33-3.81,22,22,0,0,0,7.91-3.22q3.51-1.17,4.39,0a3.81,3.81,0,0,0,3.22,1.17c1.56-4.3,2.83-6.83,3.81-7.62s2-.38,3.22,1.17l-2.93,2.93a23.73,23.73,0,0,0-2,2.35,21.45,21.45,0,0,1-2,2.34q-1.17,1.18-4.69,0c-2.73,1.56-5.27,2-7.61,1.17q-5.28,7.62-8.21,9.67a44.43,44.43,0,0,1-8.78,4.39c.77,2.74,1.85,3.91,3.22,3.52a12.51,12.51,0,0,1,3.22-.59q-3.51,3.52-6.74,6.45a18.83,18.83,0,0,1-6.74,4.1c1.18,1.57,1.37,3.72.59,6.45a12.24,12.24,0,0,0,6.74-.59q2.64-1.17,5.56-2.34c2,2.34,3.32,3.22,4.11,2.63s1.36-.29,1.75.88a2.81,2.81,0,0,0-1.46,2.93c.19,1.17.48,2.74.88,4.69a123.54,123.54,0,0,1-11.72-4.1c1.95,2.73,3.31,3.91,4.1,3.51a5.32,5.32,0,0,1,2.34-.58,19.56,19.56,0,0,1-3.22,7.32,11.41,11.41,0,0,1-5.56,3.81,21.85,21.85,0,0,0-1.76,4.69,43.29,43.29,0,0,1-1.76,5.27q5.28,5.87,6.74,1.76t6.15-3.52a3.76,3.76,0,0,1,2.34-3.51,9.92,9.92,0,0,1,4.4-1.18,4.38,4.38,0,0,1,3.22,1.18c.78.78.59,2-.58,3.51q-5.86,0-6.74,2.64a6.15,6.15,0,0,1-3.81,3.81q-3.51,4.7-5.57,4.69c-1.37,0-2.05.78-2.05,2.34q-.58,6.45-1.46,8.5a16.73,16.73,0,0,0-1.17,5,54.58,54.58,0,0,0-.3,5.85,8.33,8.33,0,0,1-1.17,4.69,12.53,12.53,0,0,1,6.15-3.22c2.54-.59,3.81-1.85,3.81-3.81a19.78,19.78,0,0,0,4.1-1.46,10.48,10.48,0,0,1,4.69-.88c0-3.12,1.85-5.07,5.57-5.86s6-2.54,6.73-5.28q3.53.6,4.69-.87a13,13,0,0,1,2.93-2.64c2-.78,3.12-1.56,3.52-2.34s1.36-1.18,2.93-1.18c-.79-2-.4-3.31,1.17-4.1l4.69-2.34q7-5.85,8.2-4.69c0-2.34.38-3.81,1.17-4.39a16.73,16.73,0,0,0,2.93-3.23c-3.13-.77-4.89-.88-5.27-.29a2.64,2.64,0,0,1-2.35.88,20.74,20.74,0,0,0,8.5-6.74q3.21-4.39.88-11.42a4.9,4.9,0,0,0-3.81.29,5,5,0,0,1-3.81.29,12.57,12.57,0,0,1-5.86,5.57,17.1,17.1,0,0,1-7.61,2.05,37.85,37.85,0,0,1-2.64,6.15q-1.47,2.64-6.15,1.47-.6,3.51-5.86,4.68c-2-1.17-3.52-1.65-4.69-1.46a10.6,10.6,0,0,0-2.93.88q4.1-6.45,12.89-4.69a7.6,7.6,0,0,0,4.1-7c.78,0,1.66-.59,2.64-1.76s2.05-2.34,3.22-3.52a11.32,11.32,0,0,1,4.1-2.63c1.56-.59,3.32-.29,5.28.88q3.51-7,6.44-8.5a6.11,6.11,0,0,0,3.52-4.39c-2-1.18-2.25-2.44-.88-3.81A9.63,9.63,0,0,0,1179.4,1574.27Zm-59.18-86.72q-1.18-1.75-4.69-1.75t-2.93,3.51a10.87,10.87,0,0,0,4.39.59C1119.14,1489.9,1120.22,1489.12,1120.22,1487.55Zm10.54,169.93c-3.13-1.18-5.37-.88-6.74.88a11.39,11.39,0,0,1-5.56,3.8q5.85.6,7-.29c.78-.58.58-1.66-.59-3.22Zm10-134.77a5.78,5.78,0,0,0-3.51.88,4.74,4.74,0,0,1-2.93.88Q1140.71,1519.79,1140.72,1522.71Zm3.52,72.07a3.54,3.54,0,0,1-2,2.34,15.77,15.77,0,0,1-2.93.88,6.45,6.45,0,0,0-2.64,1.18,2.11,2.11,0,0,0-.58,2.63q-.6-4.1,1.46-5.56a24.06,24.06,0,0,1,5-2.64Zm17.58,56.25a6.82,6.82,0,0,0-2.93.88,3.3,3.3,0,0,1-3.52-.29c0-1.56,1-2.44,2.93-2.64S1161.42,1649.47,1161.82,1651Zm1.17-65.62c-.39,2-1.27,2.83-2.64,2.63a3.1,3.1,0,0,0-3.22,1.47q0-1.76,2.34-2.64C1161,1586.29,1162.2,1585.8,1163,1585.41Z"/><path class="cls-2" d="M1415.7,1662a56.54,56.54,0,0,0,.59,8.2q.57,4.11-3.5,4.69c-.79,7.81-1.46,14.16-2,19a21.73,21.73,0,0,1-5,12c.77,3.13.58,5.57-.59,7.32a43.64,43.64,0,0,0-3.5,6.74,76.77,76.77,0,0,0-2.33,12q-.58,5.58-3.5,8.5a16.08,16.08,0,0,1-8.75,6.15q-5.25,1.47-7.58,7.33-8.18,2.34-8.17,4.1a186.52,186.52,0,0,1-43.17.88,84.82,84.82,0,0,1-40.83-14.36,13.46,13.46,0,0,0-5-7.61q-3.79-2.92-7.87-5.86a21.81,21.81,0,0,1-1.75-4.69,5.3,5.3,0,0,0-3.5-3.52,84.72,84.72,0,0,1-3.21-14.94,25.83,25.83,0,0,0-5.54-13.18q2.91-13.47,2.62-20.8t-.87-17.29q-2.93,2.36-4.38,2.35h-7c0-2,.59-3,1.77-3.23a2.83,2.83,0,0,0,2.36-2c-2.36-1.17-3.35-2.34-2.95-3.51a31.13,31.13,0,0,1,1.77-4.11q6.49-6.43,7.38-10.25a8.14,8.14,0,0,0-2.06-7.32q1.77-3.52.88-5.86t-.29-7a4.38,4.38,0,0,0-3.25-2.64,5.5,5.5,0,0,1-3.25-1.47q1.77-5.27-1.18-8.2c0-2.34.68-4,2.07-5A14.46,14.46,0,0,0,1258,1594v-7.62a17.1,17.1,0,0,0-1.19-6.45A103.21,103.21,0,0,1,1256,1548a244,244,0,0,0,2.07-33.11c-.8-.77-1.88-.77-3.25,0a5.8,5.8,0,0,1-4.43.59c0-4.29.59-6.64,1.77-7a5.69,5.69,0,0,0,2.95-2.34c-2.76-2.73-3.64-4.3-2.65-4.69s1.47-1.37,1.47-2.93a18.23,18.23,0,0,0-11.22-3.52q-6.5,0-13.28.59a93.35,93.35,0,0,1-12.7.29,12,12,0,0,1-9.45-5c1.19-3.12,3.64-5.46,7.39-7a39.66,39.66,0,0,1,10.33-2.93,30.24,30.24,0,0,1,5-5,29.85,29.85,0,0,0,5-5q10-5.28,17.71-9.38a122.07,122.07,0,0,0,14.17-8.78q2.35-5.28,3.55-6.16a10.41,10.41,0,0,1,3-1.46q17.11-15.23,25.09-40.43a269.91,269.91,0,0,0,10.93-52.74,82.37,82.37,0,0,1,0-14.06c.39-5.07,2.16-8.79,5.31-11.13,2.75.79,4.23,1.76,4.43,2.93s1.27,1.76,3.25,1.76a60,60,0,0,0-3.55,15.82q-.58,7.62-1.77,15.82a9,9,0,0,1-.88,4.1,9,9,0,0,0-.89,4.1,57.36,57.36,0,0,0,3.84,16.11,30.94,30.94,0,0,1,.89,18.46q-1.79,7,0,11.13a57.93,57.93,0,0,0,3.54,7,24.1,24.1,0,0,0-1.48,10,96.81,96.81,0,0,0,1.18,10.54,97.14,97.14,0,0,1,1.18,10.84,39.86,39.86,0,0,1-.88,10.84q7.67,6.45,20.37,5.57t24.5-.88a24.55,24.55,0,0,1,10.34,1.17,24.31,24.31,0,0,0,10.33,1.17,35,35,0,0,1,13.29,1.47q6.78,2.05,6.2,10.84-22.45,4.11-39.86,2.93a129.87,129.87,0,0,0-36.31,2.93c-2,.39-3.06,0-3.25-1.17s-1.09-2-2.66-2.35c-2,.79-2.66,2.25-2.07,4.4a29.53,29.53,0,0,0,2.07,5.56q-3.54,2.94-4.72,9.08a14.38,14.38,0,0,0,1.77,10.84,3.09,3.09,0,0,0-1.77,3.81,4.07,4.07,0,0,1-1.77,4.4v28.42a163.62,163.62,0,0,1-2.92,30.76,12.42,12.42,0,0,1,1.17,10.54,10.53,10.53,0,0,0,2.33,10.55,12.68,12.68,0,0,0-3.21,7,30.91,30.91,0,0,0,.29,7.33q.58,3.81,1.46,7.61a21.59,21.59,0,0,1,.29,7.91c0,2,.59,3.33,1.75,4.11s.78,1.75-1.16,2.93q.57,14.05,1.16,25.19t1.75,21.09a48.48,48.48,0,0,1,1.75,10.84,23.06,23.06,0,0,0,1.17,7.33c3.88,0,5.25,1.86,4.08,5.56s-.39,6.74,2.34,9.09c4.27,2.34,6,3.81,5.25,4.39a2.52,2.52,0,0,0-1.17,2,14.26,14.26,0,0,0,3.21,5,26.35,26.35,0,0,1,3.79,5,88.12,88.12,0,0,1,9,3.23,61.46,61.46,0,0,0,10.21,3.22,45,45,0,0,0,9.92,1.17,12.3,12.3,0,0,0,8.16-2.93q8.16-6.44,8.46-18.16t1.46-24a127.32,127.32,0,0,0,.29-14.65q-.3-7-.29-13.47a41.11,41.11,0,0,1-.58-6.74v-6.15a65.74,65.74,0,0,0-3.8-10.55,18.9,18.9,0,0,1-1.45-11.72,36.17,36.17,0,0,1,3.5-10.84,46.31,46.31,0,0,1,5.83-9.67,15.13,15.13,0,0,1,9.92-2.34,27.71,27.71,0,0,0,2.33,10c.77,2,1.46,3.72,2,5.27s1.26,3.33,2,5.28a17.59,17.59,0,0,0,2.92,5,10.75,10.75,0,0,1,2.33,5,34.18,34.18,0,0,1,.29,7.91C1415.79,1656.38,1415.7,1659.22,1415.7,1662ZM1313.57,1443a16.79,16.79,0,0,0-7.61,1.76,74.4,74.4,0,0,0-6.74,3.81,52.62,52.62,0,0,1-6.45,3.52,12.92,12.92,0,0,1-7.32.87q-8.79,5.87-13.18,9.38a76,76,0,0,0-8.21,7.62q-3.81,4.1-7.61,8.49a27.72,27.72,0,0,1-8.5,6.74,3.54,3.54,0,0,0,3.22.88,27.91,27.91,0,0,1,3.81-.29c3.9-2.35,5.76-3.9,5.57-4.69s.09-1.17.88-1.17a8,8,0,0,1,5.56-3.23,18.67,18.67,0,0,0,6.74-2,38.73,38.73,0,0,0,9.08-8.2q4.39-5.26,8.5-4.1a28.76,28.76,0,0,1,12-8.79A17.64,17.64,0,0,0,1313.57,1443Zm1.76,27.54a16.14,16.14,0,0,1,.59-9.67q1.75-4.4-1.17-9.66-5.87,3.51-11.43,7a101.06,101.06,0,0,1-12,6.44,22.39,22.39,0,0,1-2.64,3.23c-1,1-2.63,1.27-5,.87a26.7,26.7,0,0,1-12.3,9.38,24.68,24.68,0,0,0-11.72,8.79,12.57,12.57,0,0,0,5-.88c1.36-.59,2.83-1.26,4.39-2-2.73,2-4.3,3.91-4.68,5.86a23.75,23.75,0,0,0,8.79-3.22,31,31,0,0,0,5.85-5.57,20,20,0,0,1,2.64-3.52c1.37-1.55,3.61-2.34,6.74-2.34a14.46,14.46,0,0,1,6.44-6.74,43.53,43.53,0,0,1,8.79-3.22q7.62-3.51,8.79-2.34a32.45,32.45,0,0,0-4.39,5.56c-1.37,2.15-3.43,2.84-6.15,2-1.57,2-3.13,3.81-4.69,5.57s-4.1,2.64-7.62,2.64a23.38,23.38,0,0,1-11.72,9.37,25.51,25.51,0,0,0-12.3,10q5.27-3.51,7.91-2c1.76,1,3,.88,3.81-.29a20.51,20.51,0,0,0,6.15-2.64,24.06,24.06,0,0,1,5-2.64,15.6,15.6,0,0,0,3.81,1.47,2.75,2.75,0,0,0,2.63-.88,26.91,26.91,0,0,1,11.14-10Q1312.4,1478.19,1315.33,1470.56Zm-31.64,75.59a77.78,77.78,0,0,1-10,5.27q-5.26,2.36-10.55,5.28,5.28,2.92,7.33.29c1.36-1.76,3.41-2.24,6.15-1.47a10,10,0,0,1,4.69-5.56Q1284.86,1547.9,1283.69,1546.15Zm28.71-51a8.33,8.33,0,0,1,.3-5,3.81,3.81,0,0,0-.3-3.81,31,31,0,0,0-11.42,4.4,31.34,31.34,0,0,1-10.26,4.39q-5.27,2.94-5.27,4.69a2.35,2.35,0,0,1-1.17,2.34,10.62,10.62,0,0,0-9.08,3.23,18.46,18.46,0,0,1-9.67,5,6.66,6.66,0,0,1,.29,7.32c-1.37,2.55-1.27,4.79.29,6.74a4.15,4.15,0,0,0,3.52-.29c.78-.59,1.95-.68,3.52-.3q4.68-5.27,7-5.86a40,40,0,0,0,4.1-3.22c1.55-1.36,3.71-1.85,6.44-1.46q6.45-2.92,5.86-4.11a6.48,6.48,0,0,1-.58-2.93c4.29-.38,7.22-2,8.79-4.68A15.77,15.77,0,0,1,1312.4,1495.17Zm-9.37,64.45a33.66,33.66,0,0,0-9.38,3.52,24.61,24.61,0,0,1-10,2.93q-5.26,6.45-15.23,11.13a6,6,0,0,0-1.17,6.16c.77,2.15.19,3.61-1.76,4.39q12.3-7.61,21.68-13.48A56.74,56.74,0,0,0,1303,1559.62Zm6.9,84.47q.57-1.15-.87-4.37a17.24,17.24,0,0,1-1.46-7.28,42.25,42.25,0,0,1-.29-8.73c.19-3.11-1.07-5-3.79-5.83a51,51,0,0,1-5.24,7c-1.16,1.17-2.72,1.37-4.66.59,1.55-4.27,2.91-6.79,4.08-7.58s1.75-2.13,1.75-4.07c-3.12,2.33-6.12,3.3-9,2.91a9.26,9.26,0,0,0-7.28,1.75c1.55-1.94,4.17-3.21,7.86-3.79a41.06,41.06,0,0,0,8.45-2q4.65-6.41,7.28-9.32c1.74-1.94,2.23-4.46,1.45-7.57q-4.08,1.76-3.78,3.79a2.11,2.11,0,0,1-1.46,2.62l-4.66-6.41q2.91,2.34,3.79,0a9.57,9.57,0,0,1,2-3.49,17.38,17.38,0,0,0-6.41,0,3.83,3.83,0,0,0-4.08,0c-1.16.78-1.95.58-2.33-.59,1.94-1.93,3.5-2.91,4.66-2.91a3.93,3.93,0,0,0,2.91-1.16,12.14,12.14,0,0,1,3.79-.58H1307c.77-2.33,1.45-4.46,2-6.41a14.62,14.62,0,0,0-.3-7.57,17.21,17.21,0,0,0-9,4.37,17.2,17.2,0,0,1-9,4.36q-.59,4.68-5.82,6.41a10.51,10.51,0,0,0-7,6.41q1.15,2.91,2.91,2c1.16-.59,1.94.29,2.33,2.62-3.89,1.55-5.53,2.43-5,2.62s.67.87.29,2q-4.67,0-6.12,2.91a10.57,10.57,0,0,1-4.95,4.66q-1.17,6.4,2,8.44a27.25,27.25,0,0,0,7.28,3.21,7,7,0,0,1,3.79-2.63c1.74-.58,2.81-.29,3.2.88q-1.74,1.17-4.37,2.62a28.7,28.7,0,0,0-4.66,3.2,9.94,9.94,0,0,0-2.91,4.08,5.6,5.6,0,0,0,.29,4.66c.78-1.94,1.84-2.81,3.21-2.62a5.88,5.88,0,0,0,4.36-1.46q-1.17,4.67-5.24,5.83a1.62,1.62,0,0,1-.29,2l-1.75,1.75a6.28,6.28,0,0,0-1.16,1.46c-.2.39.67.78,2.62,1.16q0-4.06,3.49-4.07h7.58q2.89-4.66,9.9-8.45c4.66-2.52,8.53-2.62,11.65-.29a62.83,62.83,0,0,0-6.12,5.82c-1,1.17-2,2.33-2.91,3.5a24.88,24.88,0,0,1-3.21,3.2,7,7,0,0,1-4.65,1.46,12.49,12.49,0,0,1,.58-3.21,3.68,3.68,0,0,1,2.91-2.62c-2-1.16-3.3-1.16-4.08,0a19.1,19.1,0,0,1-2.33,2.92,3.46,3.46,0,0,0-4.07.29q-1.75,1.45-4.66.29-2.93,7.58-5.54,9.32c-1.74,1.16-2.23,3.49-1.45,7,2.71-.39,4.56-1.55,5.53-3.5a11.19,11.19,0,0,1,4.37-4.66l-1.17,7A5.27,5.27,0,0,0,1275,1661a6.94,6.94,0,0,0-1.16,5.24,3.15,3.15,0,0,0,2.91-.29,4.45,4.45,0,0,1,4.08.29,20.92,20.92,0,0,0,3.49-4.07,3.81,3.81,0,0,1,1.75-1.75,71.58,71.58,0,0,1,7.86-4.37l6.41-2.91a61,61,0,0,0,6.12-3.2A7.64,7.64,0,0,0,1309.93,1644.09ZM1279,1528.57a54.06,54.06,0,0,1-6.15,2,5,5,0,0,0-3.81,4.4c2.73,0,4.78-.68,6.16-2.06A40,40,0,0,0,1279,1528.57Zm26.37,127.15a14.57,14.57,0,0,0-7.62,1.76,55.65,55.65,0,0,0-5.56,3.81l-5.28,4.1a9.68,9.68,0,0,1-6.15,2,6.35,6.35,0,0,1-2.34,2.93,8.24,8.24,0,0,1-3.52.58c-.78,2-1.75,4.21-2.93,6.74a5.49,5.49,0,0,0,1.18,6.74q3.51-5.85,7.61-5.86,1.17-3.51,5.57-6.15a63.81,63.81,0,0,0,9.08-6.74,29.68,29.68,0,0,0,3.52-4.39c1.17-1.76,2.53-2.06,4.1-.88Zm-4.1-53.32a8.93,8.93,0,0,1-4.39,3.22,6.15,6.15,0,0,0-3.81,3.81q-7.62,1.75-9.38,3.81c-1.17,1.37-2.34,2.63-3.51,3.81a12.25,12.25,0,0,1-3.81,2.63,6.37,6.37,0,0,1-5-.29c3.12-2.73,4.48-4.19,4.1-4.39s-.39-.68,0-1.47c2,.79,3.12.39,3.51-1.17s1.56-1.95,3.52-1.17c3.9-2.35,5.76-3.9,5.57-4.69a1.75,1.75,0,0,1,.29-1.76,9.05,9.05,0,0,0,3.81-2.34,15.33,15.33,0,0,0,1.46-2.35,5.41,5.41,0,0,0,3.23,1.47C1298.24,1601.72,1299.7,1602,1301.27,1602.4Zm11.13,80.86c-3.51,1.56-5.08,2.54-4.68,2.93s.38,1.17,0,2.34c-3.91.39-6.16.5-6.74.29s-.69-1.07-.3-2.63c1.56-1.17,3.13-2.44,4.69-3.81a4.07,4.07,0,0,0,1.17-5q-6.45,4.11-11.72,7.32t-10,6.15c-3.51-.77-5.27.59-5.27,4.11-3.13,0-4.79,1.75-5,5.27s1.07,5.67,3.81,6.45a12,12,0,0,1,4.39-4.4,11.72,11.72,0,0,0,4.4-4.39,40,40,0,0,1,10-10,24.18,24.18,0,0,1,2,3.8,22.68,22.68,0,0,0,2,3.81,25.34,25.34,0,0,1-8.5,5,24.39,24.39,0,0,0-7.91,4.4q7,4.1,12-.3a23.19,23.19,0,0,1,10.25-5.56q5.85-2.92,6.15-7A28.24,28.24,0,0,0,1312.4,1683.26Zm-22.85-55.67a12.64,12.64,0,0,1-3.22,3.23,4.92,4.92,0,0,1-5,.29,18.25,18.25,0,0,0,4.1-4.4C1287,1624.57,1288.38,1624.87,1289.55,1627.59Zm2.35-70.31c-2.35-1.17-4.31-1.36-5.86-.58s-2,1.75-1.18,2.92a6.83,6.83,0,0,1,3.81-1.17A4.35,4.35,0,0,0,1291.9,1557.28Zm18.16,115.43q1.76-1.76,1.46-5.27c-.2-2.35-.87-3.9-2-4.69a3.32,3.32,0,0,1-4.1,2.34,10.22,10.22,0,0,0-5.86.59c-2,4.69-3.61,7-5,7a6.76,6.76,0,0,0-3.81,1.17c.78,2.35.3,3.52-1.46,3.52s-2.45,1-2,2.93c4.69-.39,8-1.17,10-2.35.78-1.55,1.66-2.43,2.64-2.63a13.11,13.11,0,0,0,3.22-1.17,26.19,26.19,0,0,1,3.51-1.47A5.58,5.58,0,0,1,1310.06,1672.71Zm-12.31,47.46a9,9,0,0,0-5.56-1.76c-2.15,0-3.43,1.38-3.81,4.11a6.21,6.21,0,0,0,5.27,0A12.4,12.4,0,0,0,1297.75,1720.17Zm13.48-307a30.05,30.05,0,0,0-2.64,2.93c-.58.79-.68,2.15-.29,4.1a63.6,63.6,0,0,1-7.62,8.5,41.91,41.91,0,0,0-7,8.49,45.64,45.64,0,0,1,6.74-4.39,27.21,27.21,0,0,0,6.45-4.69,19.1,19.1,0,0,0,4.1-6.15Q1312.4,1418.42,1311.23,1413.14Zm-1.17,126a35.6,35.6,0,0,0-8.2,7,35.37,35.37,0,0,1-8.21,7q8.2,1.75,11.72-2.34C1307.72,1548.11,1309.27,1544.2,1310.06,1539.12Zm1.17-29.3c-2.74-.38-4.2.49-4.39,2.64s-1.86,3-5,2.63a10.56,10.56,0,0,1-3.52,5.28,10.75,10.75,0,0,0-3.52,5.86c3.91-.78,6.16-1.85,6.74-3.23s1.47-1.46,2.64-.29a16.06,16.06,0,0,1,5-5.86C1311.32,1515.29,1312,1513,1311.23,1509.82Zm2.93,201q-6.45-.58-9.67,2.34a14,14,0,0,1-7.91,3.52c.78,2,1.85,2.93,3.23,2.93a10.51,10.51,0,0,0,4.1-.88,33.08,33.08,0,0,0,4.39-2.35,8.82,8.82,0,0,1,4.69-1.46Zm-.59-277.74a20.91,20.91,0,0,0-7.61,2.64q-3.53,2.05-3.52,5a67.43,67.43,0,0,0,6.74-2.64A8,8,0,0,0,1313.57,1433.06Zm-4.1-22q2.92-2.93,2.64-8.21t-2.64-8.2a32.15,32.15,0,0,0-2.34,8.2,18.72,18.72,0,0,1-3.52,8.21Zm35.16,341.38c-2.34-4.3-5.67-6.74-10-7.33a32.82,32.82,0,0,0-14.06,1.47,2.48,2.48,0,0,1-1.76-2.64c0-1.36-.79-2.43-2.35-3.22a3.54,3.54,0,0,1-4.39,2.34c-2.15-.38-3.81,0-5,1.18q8.79,2.92,18.16,5.85A53.58,53.58,0,0,0,1344.63,1752.4ZM1400.88,1637c.78-.78.88-2,.29-3.52s-1.08-2.73-1.46-3.51C1398.54,1634.24,1398.92,1636.58,1400.88,1637Zm1.17,55.66a127.83,127.83,0,0,1,1.17-16.11,33.87,33.87,0,0,0-1.75-16.7q-.6,8.21-1.18,16.41A47.11,47.11,0,0,0,1402.05,1692.63Z"/><path class="cls-2" d="M1708.82,1666.13c.38,3.52.19,6.26-.59,8.21s-1.37,3.51-1.76,4.68c-1.17,3.52-2,5.48-2.63,5.86a17.41,17.41,0,0,1-2,1.17,69.19,69.19,0,0,1-1.18,13.48q-1.17,5.87-5.27,7c.78.79,1,2.25.59,4.4s-2.15,3-5.28,2.63c0,3.13-1,5.48-2.93,7q-3.51-.57-3.81,1.76a37,37,0,0,0-.29,4.69,120.26,120.26,0,0,0-8.79,8.5,26.38,26.38,0,0,1-10.54,6.73q-4.11,4.71-6.16,5.86a9.81,9.81,0,0,1-5,1.18,39.59,39.59,0,0,1-6.44,4.68q-4.7,2.94-8.79,0a10,10,0,0,1-5.27,5,43.13,43.13,0,0,1-7.91,2.35c-2.93.58-5.77,1.17-8.5,1.76a21.64,21.64,0,0,0-7.62,3.22q-9.37,1.17-14.94,2.05a57.65,57.65,0,0,1-11.72.58q-6.15-.3-12.3-.87a54.51,54.51,0,0,0-11.43,0q-12.3-2.35-18.46-5.28a61.76,61.76,0,0,1-11.42-7q-5.28-4.1-10.55-8.49a58,58,0,0,0-11.13-7.33,15.44,15.44,0,0,0-7-7l-9.38-4.69q.59-8.19-6.44-14.65c-2.74-.38-4.4-.88-5-1.46s-1.28-1.26-2-2.05q3.51-3.52,0-8.79-4.69-.58-6.45-2a3.65,3.65,0,0,1-1.46-3.52,14.14,14.14,0,0,1,1.46-4.39q1.17-2.34,2.34-5.28a28.21,28.21,0,0,1-5.86-10.54,23.41,23.41,0,0,0-5.85-10c.77-2.35.29-2.83-1.47-1.47a6.64,6.64,0,0,1-5.57,1.47,21.79,21.79,0,0,0,2.06-2.35c.58-.78,1.84-1.17,3.8-1.17q.59-4.68.88-9.08t-6.15-6.15a6.7,6.7,0,0,0,1.76-7q-1.18-4.1,2.93-5.28-7.62,1.18-7.91-.29a30.65,30.65,0,0,0-.88-3.22c2.73-.39,4.29-1.18,4.69-2.35s2-2.14,4.68-2.93a33.62,33.62,0,0,1-1.17-7.91,9,9,0,0,1,1.17-5q-4.1-4.68-2.63-5a2.75,2.75,0,0,0,2-1.46c1.55-4.69,2-7.91,1.46-9.67a2.8,2.8,0,0,1,1.47-3.81q-2.36-1.17-.88-2.64t-.88-3.8q4.68-7.62,5.57-11.43t1.46-8.2c.39-2.93.68-5.66.88-8.21a15.19,15.19,0,0,1,2-6.74c-2-2.72-2.44-4.77-1.46-6.15a23.59,23.59,0,0,0,2.63-5q5.28-3.51,6.15-3.51a2,2,0,0,0,1.47-.59c1.56-3.52,2.83-6.44,3.81-8.79s2-4.69,2.93-7a49.72,49.72,0,0,1,3.22-6.45,9.52,9.52,0,0,1,5.86-4.1q.57-5.85,2.93-9.08t5.27-6.74a52.43,52.43,0,0,0,17.58-10.84,54.25,54.25,0,0,1,17-10.84q12.88-5.85,25.49-10.25a58.17,58.17,0,0,1,24.9-3.22q4.1-2.34,11.14-2.35a7.24,7.24,0,0,0,1.75,2.93,7.44,7.44,0,0,1,1.76,2.93q3.52,1.18,5.86,1.76a14.68,14.68,0,0,0,5.86,0,11.06,11.06,0,0,0,5.86,2q3.51.3,4.69,2.64a35.16,35.16,0,0,1,14.65,2.93,58.83,58.83,0,0,1,12,7.32q5.57,4.4,11.42,8.79A45.06,45.06,0,0,0,1676,1495a11.59,11.59,0,0,0,.59,8.2,23.14,23.14,0,0,0,4.4,6.15,42.77,42.77,0,0,1,4.68,5.57,11,11,0,0,1,2,6.45,40.24,40.24,0,0,0,2.64,3.51,22.24,22.24,0,0,1,2.64,4.1q-.6,5.87,2.34,6.45,2.92,12.9,4.1,20.8a87.35,87.35,0,0,0,5.28,18.46c-2.35,3.91-3,5.76-2.06,5.56a1.7,1.7,0,0,1,2.06.88q.57,7-2.93,8.79,7,3.51,3.22,7.33a19.41,19.41,0,0,0-5,7.32,13,13,0,0,0-.59,8.5,6.3,6.3,0,0,1-1.76,6.73q-7.62-3.51-15.23,1.18a88.37,88.37,0,0,0-14.06-2.35,26.84,26.84,0,0,0-13.48,2.35,18.1,18.1,0,0,1-13.77,1.46,67.81,67.81,0,0,0-14.35-2.64q-16.41,0-32.52.59a190.54,190.54,0,0,1-33.11-1.76,14.38,14.38,0,0,1-8.2,2.35h-9.08a22.31,22.31,0,0,0-7.62,1.17c-2.15.78-3.43,2.73-3.81,5.86q0,7-.59,9.08a3.69,3.69,0,0,0,1.18,3.81v8.49a18.66,18.66,0,0,1-.59,4.4,8.17,8.17,0,0,1,5.57,6.44q.87,4.7-4.4,6.45a30.37,30.37,0,0,1,1.47,6.44,20.9,20.9,0,0,0,1.46,5.86c2-1.17,3.52-1.26,4.69-.29a4.45,4.45,0,0,1,1.76,3.52,8.42,8.42,0,0,1-1.47,4.39,4.82,4.82,0,0,1-4.39,2.34,7.36,7.36,0,0,1,2.34,5.28,20.48,20.48,0,0,0,1.17,6.44c1.95,0,3.13-.38,3.52-1.17s1.36-.78,2.93,0c-2,3.52-2.15,5.67-.59,6.45s1.76,2.15.59,4.1c-.4,2.34.48,5.77,2.64,10.25a38,38,0,0,0,9.08,12q8.19,7,15.52,14.07a29.84,29.84,0,0,0,17.88,8.2,35.11,35.11,0,0,0,15.52-1.17,109.52,109.52,0,0,1,17.29-3.52,27.23,27.23,0,0,1,7.62-3.51c2.72-.78,5.46-1.47,8.2-2.05a53.47,53.47,0,0,0,7.91-2.35,10,10,0,0,0,5.56-5,13.28,13.28,0,0,0,7.33-4.39,13.68,13.68,0,0,1,7.91-4.4,5.28,5.28,0,0,1,3.22-2.93c1.37-.38,2-2,2-4.69q4.68-2.92,8.79-12.59a77,77,0,0,0,5.28-16.7,48.49,48.49,0,0,0-.3-15.82q-1.47-8.21-2.63-14.65a76.53,76.53,0,0,0,.29-10.84c-.2-2.14.68-3.42,2.64-3.81.77-3.12,2.34-4.88,4.68-5.27a11.46,11.46,0,0,1,6.74.88,13.85,13.85,0,0,1,5.27,4.1,6.65,6.65,0,0,1,1.47,5.56,11.74,11.74,0,0,1,.29,8.5Q1705.88,1663.8,1708.82,1666.13Zm-184.89-25.06c-1.57-3.52-1.57-6.24,0-8.2q-1.18-8.79-1.47-11.14a14.64,14.64,0,0,0-1.46-4.68,2.14,2.14,0,0,0-2.64.58c-.59.79-1.86,1-3.81.59-1.17-3.52-2.25-5.66-3.22-6.45a7,7,0,0,1-2-2.34,38.92,38.92,0,0,0,8.2-4.1,45.07,45.07,0,0,0,4.69-4.1,35.45,35.45,0,0,1-.59-10.84,44.9,44.9,0,0,0,0-10.26c-2.34,1.17-4.39,1.28-6.15.3s-2.64-1.08-2.64-.3q.59,2.94-4.1,2c-3.13-.58-5.27-.29-6.44.88,3.9.79,6.24,1.27,7,1.47A2.66,2.66,0,0,1,1511,1586a17.7,17.7,0,0,0-5,2.93,22,22,0,0,1-4.4,2.93,10.82,10.82,0,0,0,8.5,1.17c2.93-.77,5.36-.38,7.32,1.18a17.09,17.09,0,0,1-7,7.32l-7.62,3.81q0-5.85,1.76-5.28c1.17.4,2,.21,2.34-.58a30.34,30.34,0,0,1-4.39-.29c-1.37-.2-3-.49-5-.88a17.66,17.66,0,0,0-2.34,2.93q-1.18,1.76,1.17,3.51a23.73,23.73,0,0,1-7.33,2.64,22.06,22.06,0,0,0-5.56,1.46q1.76,1.77,3.22.3c1-1,2-.49,3.22,1.46,1.17,3.13,1.47,5,.88,5.57a7.62,7.62,0,0,1-2,1.46c-2.34.79-5.67,0-10-2.34a31.4,31.4,0,0,1-6.74,1.17c-1.37,0-2.25-.38-2.64-1.17a17.19,17.19,0,0,1,4.69-2.93q1.76-.58,5.86.59c-.39-2-.88-3.13-1.46-3.52s-.88-1.36-.88-2.93q6.43-3.51,6.44-2.34a1,1,0,0,0,1.17,1.17,44.24,44.24,0,0,1,8.21-.59q-1.18-3.51.88-4.69c1.36-.77,2.05-2.34,2.05-4.68q-5.87,4.7-5.86,2.34t-2.93-1.17c0,2-.59,3.22-1.76,3.81a5.83,5.83,0,0,1-4.1.29q-7.62.58-8.79,4.69a58.21,58.21,0,0,0-5,7.91,7.18,7.18,0,0,1-2.64,3.22q4.1,2.36,3.52,2.93c-.4.39-.59,1.37-.59,2.93a11.14,11.14,0,0,1,5.86-2c2.35-.19,3.9.1,4.69.88q-3.51,7-4.4,6.44a3.68,3.68,0,0,0-2.05-.58q-1.75,6.45,4.11,9.37a39.29,39.29,0,0,1-4.69,5c-1.57,1.38-2.74,3.62-3.52,6.74a26.87,26.87,0,0,1,2.64,6.74,20.45,20.45,0,0,0,.88,3.81A6.12,6.12,0,0,0,1473,1661c.38.4,1.36,0,2.93-1.17q0,4.7-1.47,6.15c-1,1-1.08,3.23-.29,6.74a54.94,54.94,0,0,1,8.79,2.93c0,3.13-.79,4.6-2.34,4.4s-2.15.68-1.76,2.63a7.59,7.59,0,0,0,7-4.1q5.85-4.68,5.27-6.15c-.39-1-.39-1.66,0-2.05a71.27,71.27,0,0,0,8.79.58q-1.17-2.92-5-2.93a16.16,16.16,0,0,1-7.32-1.75,12.35,12.35,0,0,1,5.56-3.23q3.22-.87,7.33-2a16.54,16.54,0,0,1,1.76-5.56q1.17-2.06,3.51-.88-1.76,5.27-.29,6.15c1,.59,2,1.27,3.22,2l-2.93-7q5.28-6.45,10.26-8.79A22.8,22.8,0,0,0,1523.93,1641.07Zm9.37-131.25q-8.79.59-14.35,4.39a69.11,69.11,0,0,1-12.6,6.74q-9.37,5.28-6.45,7.62a7.84,7.84,0,0,1,2.93,6.45l-3.51,3.51a6.77,6.77,0,0,1-1.76,1.17c-2.34.79-3.52.79-3.52,0s-1-.78-2.93,0c-3.91,1.17-5.86,2.55-5.86,4.1a23.1,23.1,0,0,0,.59,5c.39,1.75.78,3.42,1.17,5a8,8,0,0,0-4.39,4.39q-1.47,3.22-6.15,3.22c-.4,2-.88,4.1-1.47,6.45a50.86,50.86,0,0,1-2,6.44c.38,3.13,0,5.48-1.17,7s-1.57,3.91-1.17,7a12.49,12.49,0,0,1,1.46,6.73,7.55,7.55,0,0,0,.88,5c2.73-2,5.37-2.72,7.91-2.34s4.78-.59,6.74-2.93q2.34-4.68,1.17-5.27c-.79-.39-1-1.17-.59-2.35a36.84,36.84,0,0,1,6.45-4.1,35.62,35.62,0,0,0,6.44-4.1,8.07,8.07,0,0,0,5.28-1.46A7.12,7.12,0,0,1,1511,1576a5.83,5.83,0,0,0,4.1-.29,11.46,11.46,0,0,0,2.93-2q4.68-4.1,5.86-3.81c.77.2,1.17-.09,1.17-.88a8,8,0,0,1-1.47-7,10.1,10.1,0,0,0-2.05-8.2q4.68-1.17,6.16-6.74t-2.64-9.08a8,8,0,0,0-4.69,2.63,11.68,11.68,0,0,1-4.69,3.22q5.85-8.19,11.72-6.44-1.17-5.85-4.1-6.45a91.42,91.42,0,0,1-11.13,8.21c1.55-2.73,2.14-4.3,1.76-4.69a2.34,2.34,0,0,1-.59-1.76q5.28-1.17,6.15-2.05l2-2c3.9.79,6.16-.29,6.74-3.22a27.66,27.66,0,0,1,2-6.74c-3.13-.39-5.27.59-6.44,2.93s-3.33,2.93-6.45,1.76a20.13,20.13,0,0,1-5.86,7.32q-3.51,2.64-8.2.88a37.56,37.56,0,0,1,3.22-4.69c1-1.17,2.64-1.36,5-.58a8.35,8.35,0,0,1,1.17-4.69c.78-1.17,2.35-1.56,4.69-1.17,0-2.35.59-3.42,1.76-3.23a6.7,6.7,0,0,0,4.1-.87q4.68-2.34,5.86-3.81A10,10,0,0,1,1533.3,1509.82Zm-35.74,119.53c-2.34,2.74-4,4-5,3.81s-1.47.1-1.47.88q-7.62-1.76-9.66-.29a12.8,12.8,0,0,1-5,2,2.76,2.76,0,0,1,2.34-2.93q2.34-.58,1.17-3.52a3.64,3.64,0,0,0,4.4,1.47,18.73,18.73,0,0,0,4.39-2A9.92,9.92,0,0,0,1497.56,1629.35Zm-8.2,40.43a10.73,10.73,0,0,1-5.86,3.52q-1.18-2.34.88-3.23A8.48,8.48,0,0,1,1489.36,1669.78Zm5.86,8.2c-2,.4-3.23,0-3.81-1.17s-1.86-1.17-3.81,0a5.82,5.82,0,0,0,3.51,1.47,5.93,5.93,0,0,1,3.52,1.46Zm-1.18,4.69q-.58-2.93-3.22-2.34c-1.76.39-2.84,1.17-3.22,2.34a2.26,2.26,0,0,0,2.64.59A10.34,10.34,0,0,1,1494,1682.67Zm81.45,75.59a6.17,6.17,0,0,0-5.57-4.69c-2.93-.38-4.79-2.14-5.56-5.27a9.66,9.66,0,0,1-6.16-5.28,6,6,0,0,0-6.73-3.51c-.4-3.12-1.47-4.88-3.23-5.28a35.23,35.23,0,0,1-5.56-1.75q2.92-2.34.88-7.91t-4.4-7.91q-4.7-2.34-4.69-3.52a13.32,13.32,0,0,1,1.18-4.1c-1.57-.78-2.84-1.47-3.81-2s-1.47-1.85-1.47-3.81a4.56,4.56,0,0,0,2.93-4.69,5.76,5.76,0,0,0-2.93-5.27c-.79.79-1.86.69-3.22-.29a8.2,8.2,0,0,1-2.64-2.64c-1.56-2.73-3.13-3.52-4.69-2.34a41,41,0,0,0-4.39,3.8l-4.1,4.11q-2.05,2.06-6.15,2.05c-1.18,1.17-2.15.88-2.93-.88a13.18,13.18,0,0,0-2.35-3.81q-5.26-5.85-6.74-5.27a8.16,8.16,0,0,1-4.39,0,5.18,5.18,0,0,0,3.22,2.92,3.68,3.68,0,0,0,3.81-1.17,50.36,50.36,0,0,1,3.22,6.45,11.31,11.31,0,0,1,.3,7.62c-4.31,2.34-7,5.08-8.21,8.2a23.29,23.29,0,0,0,9.67.29,11.28,11.28,0,0,0,5.57-2.64c1.56,3.52,2.53,5.09,2.93,4.69s1-.19,1.76.59a2.83,2.83,0,0,1,2-2.64,5.08,5.08,0,0,1,4.39.29,8,8,0,0,1,4.69-5.56,17.8,17.8,0,0,0,5.86-3.81,29.15,29.15,0,0,1-9.67,12.6,123.57,123.57,0,0,1-12.6,7.91q1.76,6.45,4.4,9.08a20.09,20.09,0,0,0,7.32,4.39q-.59-3.51,1.17-5.27c1.17-1.17,1-2-.58-2.34,3.12,0,4.48,2,4.1,5.86-.39,3.13.29,5.56,2,7.32a34.36,34.36,0,0,0,5.86,4.69,24.73,24.73,0,0,0,6.15,2.93,8.68,8.68,0,0,0,6.45-.88l7-.59,8.2,2.35q4.68,5.87,8.79,6.44A60.76,60.76,0,0,0,1575.49,1758.26ZM1504,1617.05c-2.34,1.17-4.2,1.37-5.56.58a5.76,5.76,0,0,0-4.4-.58,54.54,54.54,0,0,0,5-3.81,4.54,4.54,0,0,1,3.23-.88Zm-1.75-64.46a14,14,0,0,0-5.86,2.93c.38-1.55,1.26-2.24,2.63-2A3.57,3.57,0,0,0,1502.25,1552.59Zm5.27-10a5.76,5.76,0,0,0-2.93,1.17c-1.17.79-2.25,1.47-3.22,2.06a5.72,5.72,0,0,1-2.93.87c-1,0-1.47-.77-1.47-2.34A71.73,71.73,0,0,0,1507.52,1542.63Zm-1.76,26.37a2.71,2.71,0,0,1-2,1.46c-1,.21-1.86.4-2.64.59a3.69,3.69,0,0,0-1.75.88c-.4.39-.2,1.17.58,2.34.39-3.12,1-4.88,1.76-5.27S1503.8,1568.62,1505.76,1569Zm38.09-86.13q-4.11-1.17-6.15.29c-1.38,1-2.84.88-4.4-.29a35,35,0,0,1-6.15,5.86,22.76,22.76,0,0,1-8.5,3.51,75,75,0,0,1-9.08,8.79q-4.39,3.51-3.22,8.2c-5.48,2.74-7.62,4.89-6.45,6.45-.39,3.52.2,4.39,1.76,2.64a22.48,22.48,0,0,1,5.27-4.4,73.58,73.58,0,0,0,8.21-4.69c2.34-1.55,3.51-3.12,3.51-4.68a124,124,0,0,0,12.6-10.55Q1537.4,1488.15,1543.85,1482.87Zm-17.58,191c-2,1.17-3.42,1.08-4.39-.29s-2.45-1.66-4.4-.88a25.77,25.77,0,0,1-4.69,4.69c-1.56,4.3-3.13,6.06-4.68,5.27-4.31,1.17-6.84,2.15-7.62,2.93a3,3,0,0,1,2.34,3.22c0,1.76,1.37,2.26,4.1,1.47,3.13.79,4.49.69,4.11-.29s.38-1.27,2.34-.88c-.39-1.17.09-2.83,1.46-5s4.4-2.83,9.09-2.05a17.85,17.85,0,0,1,.58-5.28A7.33,7.33,0,0,1,1526.27,1673.88Zm-14.65-57.42c-1.56,1.17-2.84,1.17-3.81,0s-1.86-2.14-2.63-2.93c2.34-.78,3.81-.68,4.39.29A13.32,13.32,0,0,0,1511.62,1616.46Zm1.17-72.66a6.55,6.55,0,0,1-7,3.52,4.7,4.7,0,0,1,3.52-2A5.78,5.78,0,0,0,1512.79,1543.8Zm7,158.79a13.36,13.36,0,0,1-3.51,2.35,5.21,5.21,0,0,0-2.93,3.51q-5.87,2.94-5.86,1.47a3.68,3.68,0,0,0-1.17-2.64c3.12-1.56,4.88-3.31,5.27-5.27a11,11,0,0,1,4.1-.3C1516.5,1701.92,1517.87,1702.21,1519.82,1702.59Zm-7.61-140c-.4,2.35-2.15,3.91-5.28,4.69a5.88,5.88,0,0,0,1.47-3.51Q1508.69,1561.39,1512.21,1562.55Zm7.61-1.17a20,20,0,0,1-2.92,1.17,3.82,3.82,0,0,1-3.52-.58c0-1.56.68-2.35,2-2.35s2.24-.77,2.64-2.34Zm7.22,136.53q-7,3.51-7,1.75a1.54,1.54,0,0,0-1.75-1.75c2.73-2,4.48-3,5.27-3.23a16,16,0,0,1,3.52-.29Zm6.85,36.32c-.79.79-1.76,1.67-2.93,2.64a2.69,2.69,0,0,1-3.52.29,15.9,15.9,0,0,1,3.22-2.34C1532,1734,1533.1,1733.85,1533.89,1734.23ZM1637.6,1610c-2.35-3.13-4.1-5.08-5.28-5.86a54.05,54.05,0,0,0,5.28-23.44,8.56,8.56,0,0,1-4.1-5.57,15.65,15.65,0,0,1,.29-6.74c.59-2.34,1.07-4.68,1.46-7a14.68,14.68,0,0,0,0-5.86c-2.34.79-4.3.79-5.85,0a28.49,28.49,0,0,1-4.69-2.93q4.1-7,6.44-9.08a9.63,9.63,0,0,0,2.93-6.15q-7.62-1.17-6.74-6.74a68.3,68.3,0,0,1,2.64-10.84,25.41,25.41,0,0,0-3.81-4.1c-1.37-1.17-2.63-2.34-3.81-3.52a19.61,19.61,0,0,0,2.05-4.1,20.12,20.12,0,0,1,2.06-4.1q-1.77-5.26-3.81-10.25a57.85,57.85,0,0,0-4.69-9.09,19.57,19.57,0,0,0-6.74-6.44c-2.74-1.56-6.44-2.14-11.13-1.76q-8.22-2.33-12.31-.88a27.67,27.67,0,0,1-9.37,1.47,33.84,33.84,0,0,0-6.45,7.32,15.38,15.38,0,0,1-8.2,6.15,3.78,3.78,0,0,1-3.81.3c-1.37-.59-2.44.1-3.22,2,3.12.79,4.59,1.56,4.39,2.34s.1,2,.88,3.52l-4.1,4.1a26.61,26.61,0,0,0-3.81,4.69,6.48,6.48,0,0,0-1.17,4.39c.19,1.37,1.66,2.64,4.39,3.81q-4.1,6.45-5.56,5.27a5.05,5.05,0,0,0-3.22-1.17,16.3,16.3,0,0,1,.29,5c-.2,1-1.27,1.27-3.22.88q-1.77,10.54-11.72,17.58c.38,3.13,1.07,4.69,2,4.69s1.46.58,1.46,1.75q-2.94,2.35-3.51,7.62a27.6,27.6,0,0,0,0,8.2,63.19,63.19,0,0,0-2.93,17.58,37.79,37.79,0,0,1-2.93,14.65,27.65,27.65,0,0,1,2.34,6.15q.59,2.64,1.17,7.91,15.24-1.15,31.35-.88t31.35,1.47a40.83,40.83,0,0,0,10.84-.29,36.9,36.9,0,0,1,10.25-.3q6.45.6,11.72.88A19.26,19.26,0,0,0,1637.6,1610Zm-101.95,108.39q-2.94-1.15-4.11,0a1.9,1.9,0,0,1-2.34.59A33.73,33.73,0,0,1,1535.65,1718.41Zm101.95-237.89c-2.35-.77-5.08-1.85-8.2-3.22s-5.67-1.26-7.62.29a8.24,8.24,0,0,1,4.39,6.16,6.84,6.84,0,0,0,5.57,5.56,15.83,15.83,0,0,1,2.93-4.1A13.84,13.84,0,0,0,1637.6,1480.52Zm30.47,33.4a4.92,4.92,0,0,0,2.63-5c-.2-2.14-1.46-3.61-3.8-4.39-3.14,3.13-5.67,4.78-7.62,5a6.46,6.46,0,0,0-4.69,2.63q4.68-7,6.45-7.91a4.57,4.57,0,0,0,2.34-3.22,11.13,11.13,0,0,0-4.1-.29,6.55,6.55,0,0,0-2.35,1.17,6.32,6.32,0,0,1-2.63,1.17c-1,.2-2.25-.29-3.81-1.46a22.82,22.82,0,0,1-8.2,8.49c-3.13,1.76-5.09,3.62-5.86,5.57q4.1,7.62,3.22,8.2a4.48,4.48,0,0,0-1.47,1.76,8,8,0,0,1,1.76,2.64,3.85,3.85,0,0,0,2.93,2,25.38,25.38,0,0,1,4.4-7,11.32,11.32,0,0,1,7.32-3.52,10.23,10.23,0,0,1,5-5A11.52,11.52,0,0,1,1668.07,1513.92Zm12.3,18.75a10.85,10.85,0,0,0-7,0,25.38,25.38,0,0,0-6.44,3.22,50.05,50.05,0,0,1-6.45,3.81,24.88,24.88,0,0,1-7,2.35l-2.35,2.34a19.74,19.74,0,0,0-2.34,2.93,4.36,4.36,0,0,1-2.93,2,9.11,9.11,0,0,0-3.51,1.47q-1.77,7.62,4.1,8.78a15,15,0,0,1,6.44-8.2l9.38-5.86a10.14,10.14,0,0,1,7.91-7.32A21,21,0,0,0,1680.37,1532.67Zm-8.79,32.23a61.8,61.8,0,0,0-13.77,7.32,122.79,122.79,0,0,1-12.59,7.91,10.6,10.6,0,0,0-.88,5.28,4.39,4.39,0,0,0,2.63,3.51q1.17-4.1,5.86-6.44a10.48,10.48,0,0,0,5.86-7q5.85-2.92,9.38-4.4T1671.58,1564.9ZM1652.25,1511a5.23,5.23,0,0,1-3.52,2.93c-1.56.4-2.34,2.15-2.34,5.28-2-1.56-2.25-3.52-.88-5.86S1649.12,1510.21,1652.25,1511Zm2.34-12c-1.56-.78-1.67-1.85-.29-3.23s1.26-2.43-.3-3.22c-.78,2.34-2.63,3.91-5.56,4.69s-4,2.34-3.22,4.69a5.51,5.51,0,0,1,5-2.93Zm34,46.54c0-4.29-1.17-6.74-3.51-7.32a14.54,14.54,0,0,0-7.62.29q-3.51,4.11-4.1,2.93c-.39-.78-1.37-1-2.93-.59q-1.76,10-4.39,10.26c-1.76.2-3,1.46-3.81,3.81q-6.45,1.17-9.08,5.86a16.41,16.41,0,0,1-7.91,7c.77,1.56,2.63,2.05,5.56,1.46s5-1.85,6.15-3.81a56.8,56.8,0,0,1,5.28-2.93,11.35,11.35,0,0,1,7-1.17c0-2.73,1.56-4.48,4.69-5.27s5.27-2.14,6.44-4.1C1683.1,1548.49,1685.84,1546.35,1688.57,1545.56Zm4.11,46.71q-10.54,2.93-16.41,8.78a11.4,11.4,0,0,0-9.37,3.23,83.66,83.66,0,0,1-8.21,6.74h16.7a59.13,59.13,0,0,0,14.36-1.76q-1.18-9.37,1.17-10.84C1692.48,1597.45,1693.06,1595.4,1692.68,1592.27Zm-10.55-66q-1.19-4.1-2.34-4.4a3.49,3.49,0,0,0-2.64.59c-1,.58-2.25,1.37-3.81,2.34a5.52,5.52,0,0,1-5.27.29,10.47,10.47,0,0,1-1.76,3.23,33.12,33.12,0,0,1-2.34,2.63c1.55-.38,2.93-.67,4.1-.87s2.53.29,4.1,1.46a64,64,0,0,0,5.27-3.81A7.11,7.11,0,0,1,1682.13,1526.23Zm11.13,35.74c-2.34.79-4.49,1.46-6.44,2a25.49,25.49,0,0,0-5.86,2.64q-6.45,4.1-8.5,8.79t-7.91,5.85q8.21-1.15,9.08-2.63c.59-1,2-1.27,4.4-.88q4.1-4.68,6.74-5.86c1.75-.78,3.41-1.47,5-2a10.8,10.8,0,0,0,3.81-2.34C1694.53,1566.56,1694.43,1564.71,1693.26,1562Zm6.45,92.58a50,50,0,0,0-4.4,10.25q-1.47,5,1.47,7.91a33.12,33.12,0,0,0,1.76-8.2C1698.92,1661,1699.31,1657.68,1699.71,1654.55Z"/><path class="cls-2" d="M1972.17,1672.71q-4.11,5.86-2.05,5.27c1.36-.38,1.85,0,1.46,1.18q.59,2.94-1.76,3.51a13.38,13.38,0,0,0-4.1,1.76,45.81,45.81,0,0,0,1.18,11.13,75.8,75.8,0,0,1,1.75,11.14q-2.34,12.88-6.15,16.69c-2.54,2.55-4,6.74-4.39,12.6a104.06,104.06,0,0,1-10.55,11.13,52.1,52.1,0,0,1-7.62,5.28q-4.11,2.34-7.91,4.69a17.63,17.63,0,0,0-6.15,6.44,212,212,0,0,0-24,9.38,29.1,29.1,0,0,0-9.09-1.18q-5.57,0-7.91,2.35a58.56,58.56,0,0,0-8.2-1.76,22.64,22.64,0,0,0-8.79.59q-10-2.94-18.16-6.16a141.52,141.52,0,0,0-17.58-5.56,17.8,17.8,0,0,0-8.79-8.5,20,20,0,0,1-9.37-9.08,17.39,17.39,0,0,1-7.62-3.81,57,57,0,0,0-6.45-5,13.4,13.4,0,0,1-7.32.29,15.86,15.86,0,0,0-6.74-.29,13.48,13.48,0,0,0-7.62,5,58.54,58.54,0,0,0-5.27,8.2q-2.35,4.39-4.69,8.5a17,17,0,0,1-6.44,6.45,103.34,103.34,0,0,1-2.35-27.84q.58-15.51,2.35-28.41-2.94-3.53-1.47-9.38c1-3.9,1.85-7,2.64-9.37a34.15,34.15,0,0,1-2.64-9.67A10,10,0,0,1,1763,1671q-1.76-2.92,0-7a58.83,58.83,0,0,0,2.93-8.79,39.7,39.7,0,0,0,1.17-9.67q0-5,8.79-4.39c.78,1.57,1.66,3.42,2.64,5.57a7.59,7.59,0,0,1,.29,6.15c1.56,1.56,2.93,3,4.1,4.39s1.76,3.62,1.76,6.74a25.83,25.83,0,0,0,7,1.17,7.35,7.35,0,0,0-.88,4.4c.19,1.37-.49,2.84-2,4.39a124.55,124.55,0,0,1,6.45,26.66,86.47,86.47,0,0,0,6.44,24.32q5.28,8.21,11.72,11.43t13.48,6.15q7,5.26,10.25,5.27a4.35,4.35,0,0,1,4.39,2.93,46.17,46.17,0,0,1,11.43,2.64q5.57,2.06,10.84,4.1t10.55,3.81a26.66,26.66,0,0,0,11.13,1.17,46.07,46.07,0,0,0,19.34-5.27,48.09,48.09,0,0,0,14.94-12.31,47.36,47.36,0,0,0,8.79-16.7,45.5,45.5,0,0,0,1.46-18.46c.39-9.75-.69-17.87-3.22-24.31a55.11,55.11,0,0,0-10.84-17.29q-7-3.51-7.33-1.17a22.56,22.56,0,0,1-.87,4.1,50.12,50.12,0,0,1-3.52-6.15,8.58,8.58,0,0,1-.59-3.22,49.4,49.4,0,0,0-9.66-4.69,46.14,46.14,0,0,0-10.26-2.34q-11.13-.58-17.28-3.52a20.34,20.34,0,0,0-12.6-1.76,118,118,0,0,0-17.29-5.86q-10.85-2.92-20.8-5.86a26.48,26.48,0,0,0-16.4.59,4.64,4.64,0,0,1-3.81-2.93,20.37,20.37,0,0,0-2-4.1,53.21,53.21,0,0,0-9.08-1.47,11,11,0,0,1-7.33-3.22q1.17-10-4.69-8.2a53,53,0,0,1-2.34-5.57,8.2,8.2,0,0,1,.59-6.74,26.32,26.32,0,0,1-6.45-17.57,40.16,40.16,0,0,0-4.1-18.17,2.54,2.54,0,0,0,1.46-3.51,33.4,33.4,0,0,1-1.46-5.28q7.61-28.7,18.46-46.29t22-35.74c2-1.17,4.1-2.43,6.44-3.81s3.32-3.6,2.93-6.74a5.91,5.91,0,0,0,3.52-.87,21.59,21.59,0,0,0,2.34-2.06c2-.38,3.32-.29,4.1.3a3.93,3.93,0,0,0,2.35.88c4.69-.78,9.27-1.47,13.77-2a46.56,46.56,0,0,1,13.77.29,16.62,16.62,0,0,1,5,1.76,39.38,39.38,0,0,0,5,2.34,42.55,42.55,0,0,0,7.62,1.76,31.07,31.07,0,0,1,7,1.76,73.32,73.32,0,0,1,19,8.79,120.23,120.23,0,0,1,15.53,11.71,68.36,68.36,0,0,0,7.91-5.27q3.79-2.92,10.25-2.93a23.74,23.74,0,0,0,8.2-9.37q2.93-5.85,10.55-7.62a8.13,8.13,0,0,1,.88,4.69,16.51,16.51,0,0,1-1.17,4.39,10.3,10.3,0,0,0-.88,4.1c0,1.38.78,2.84,2.34,4.4q-1.76,12.89-5,26.36a34,34,0,0,0,3.23,25.2c-.4,5.08-.88,9.47-1.47,13.18s-2.25,6.36-5,7.91a5.59,5.59,0,0,1-2.93-2.63c-.39-1-1.56-1.47-3.52-1.47a120.17,120.17,0,0,0-14.94-21.39,61.19,61.19,0,0,1-12.59-23.73q-12.32-19.9-35.16-27-7.62-1.17-12.6-2.34t-10.84-2.35q-18.17.6-26.07,7.33a67.63,67.63,0,0,0-13.19,14.94,88,88,0,0,0-10.84,22.85q-3.81,12.3.88,29.3c2.35,3.13,3.71,4.89,4.1,5.27q7.62,4.11,11.14,5.86l7,3.52a43.84,43.84,0,0,0,7.62,2.93,19,19,0,0,0,9.37,0q8.2,8.21,22.27,9.37a97.08,97.08,0,0,0,26.36-1.17,5,5,0,0,0,2.05,4.39c1.37,1,1.08,2.26-.87,3.81a132.67,132.67,0,0,0,20.8,4.1,78.79,78.79,0,0,0,21.38-.58c3.9.39,6.16,1,6.74,1.76s.68,2,.29,3.51a7.19,7.19,0,0,1-2.93,1.76,7.26,7.26,0,0,0-2.92,1.76,6.46,6.46,0,0,0,6.44,2c2.34-.59,4.69.1,7,2.05-1.56,4.3-2.74,6.25-3.51,5.86.38,2,1.85,2.84,4.39,2.63s4.19.3,5,1.47a7.29,7.29,0,0,0,0,4.1,2.38,2.38,0,0,1-1.17,2.93c1.17,1.57,2.24,2.93,3.22,4.1s2.64,1.57,5,1.17q1.17,4.69,3.81,4.11a5.52,5.52,0,0,1,4.4.58,42.37,42.37,0,0,0-2.64,5.86c-.2.79.29,1,1.46.59q-5.26,2.34-2.63,6.44a38,38,0,0,0,5,6.45c-1.57,5.86-2.05,9.87-1.47,12a61.72,61.72,0,0,1,1.47,7.32,5.4,5.4,0,0,1,4.39,1.76C1970.5,1671,1971.38,1671.93,1972.17,1672.71Zm-195.7-110.16a20.57,20.57,0,0,0-6.45,1.18l3.52,1.17C1774.71,1565.29,1775.68,1564.51,1776.47,1562.55ZM1791.7,1726a14.05,14.05,0,0,0-.59-3.81,7.47,7.47,0,0,0-1.75-3.22,4.69,4.69,0,0,0-5.86,5.86c-4.31-1.17-6.16-2.64-5.57-4.4a46.47,46.47,0,0,0,1.47-5.56,42.8,42.8,0,0,1-5.57,8.49,7.18,7.18,0,0,0-.88,8.5c5.07-.78,7.81-1.85,8.2-3.22a5.56,5.56,0,0,1,2.35-3.22,6.1,6.1,0,0,0,3.81.87A24.67,24.67,0,0,1,1791.7,1726Zm-10-144.73c-2,.79-3.81,1.47-5.57,2.06a6.11,6.11,0,0,0-3.81,3.8,6.6,6.6,0,0,0,5.57-1.46A13.18,13.18,0,0,0,1781.74,1581.3Zm1.17-8.78a11.79,11.79,0,0,0-6.44,3.51Q1781.15,1576,1782.91,1572.52Zm5.27-14.07q-4.1,0-6.15,1.76a17.75,17.75,0,0,1-5,2.93,18,18,0,0,1,6.74-1.17Q1787.6,1562,1788.18,1558.45Zm24.61,25.2a6.17,6.17,0,0,0-6.44,1.46q-2.94,2.64-5.86.3a8.06,8.06,0,0,1-4.4,4.39,68.2,68.2,0,0,1-6.73,2.64c-2.35.78-4.69,1.66-7,2.63a12.44,12.44,0,0,0-5.27,3.81q.59,4.11,3.81,3.52c2.14-.39,3.61-1,4.39-1.76a38.58,38.58,0,0,0,10-5.86,32.18,32.18,0,0,1,8.78-5.27,13.94,13.94,0,0,1,4.69-2.93A8.58,8.58,0,0,0,1812.79,1583.65Zm-17-14.06q-4.69-3.52-7-1.76l-4.69,3.51c1.56,2,3.23,2.05,5,.3A7.5,7.5,0,0,1,1795.8,1569.59Zm52.15,24q-.59-4.68-5.86-4.4c-3.52.21-5.67,1.28-6.44,3.23,0-2.35.87-3.71,2.63-4.1a12.93,12.93,0,0,0,5-2.35q-4.69-4.68-9.67-3.22a19.3,19.3,0,0,1-8.49.88,12.64,12.64,0,0,1-7,5q-4.69,1.47-9.38,2.64a57.62,57.62,0,0,1-10,7q-5.26,2.94-10.55,5.27-1.76,5.28,0,5.86a3.53,3.53,0,0,1,2.35,2.34q1.17,5.28,4.69,5a34.32,34.32,0,0,1,7.61.3,72,72,0,0,0,9.08-5.86,10.49,10.49,0,0,1,9.09-1.76q5.26-6.43,7.91-7.91a25.18,25.18,0,0,1,6.15-2.34l7-1.76A10.68,10.68,0,0,0,1848,1593.61Zm-40.43-15.82c-.79-.78-1.86-.88-3.22-.29s-2.45.49-3.23-.3a6.42,6.42,0,0,1-5.85,5.28c-3.14.39-5.28,1.75-6.45,4.1a76,76,0,0,1,10-4.1A26.77,26.77,0,0,0,1807.52,1577.79Zm14.65,45.7q-1.76-5.27-2.64-4.69a1.89,1.89,0,0,1-2,0c.39,2-.1,2.93-1.46,2.93s-2.26.79-2.64,2.35c2.34.79,4.19.68,5.57-.29S1821.38,1622.71,1822.17,1623.49Zm1.17-28.12a5.38,5.38,0,0,1-2.93,2.93,7.47,7.47,0,0,0-2.93,1.75c-1.17-2.72-1-3.7.59-2.93S1821.38,1597.33,1823.34,1595.37Zm43.36-.59q-5.28-1.76-11.13,2a38.92,38.92,0,0,1-10,5,28.76,28.76,0,0,1-13.19,5.57q-6.74.87-10.25,5.57a30.93,30.93,0,0,0,7-1.76,9.16,9.16,0,0,1,6.45,0,126,126,0,0,1,16.4-7.91A54.28,54.28,0,0,0,1866.7,1594.78Zm18.16,11.72q-5.86,2.36-10.84,3.81t-10.25,3.22q-5.87.59-7.32,1.76t-4.4.58c-.79,3.14-2.34,4.89-4.69,5.28a47.6,47.6,0,0,0-7.91,2,10,10,0,0,1-5.56.29q-5.28,4.69-7.33,5.28a5.58,5.58,0,0,0-3.22,2.34,7.83,7.83,0,0,0,5.57.29,7.09,7.09,0,0,0,3.81-2.63q11.12-3.52,21.68-7.33t20.5-7.91q1.17-2.92,5-3.51T1884.86,1606.5Zm39.26,7A18.07,18.07,0,0,0,1913,1610a16.3,16.3,0,0,1-9.38,4.39q-5.86.88-10,1.46,4.69-5.26,7-6.15a18.79,18.79,0,0,0,4.69-2.63,7,7,0,0,1-2.93-.88,10.51,10.51,0,0,0-4.69-.88c-.39.79-1.75,1.46-4.1,2.05s-3.51,1.66-3.51,3.22q-2.94,7-1.17,6.74c1.17-.19,1.55.29,1.17,1.46-2,.4-3.33.69-4.1.88a3.79,3.79,0,0,1-2.93-.88q-6.46,0-9.67,3.52c-2.15,2.34-4.6,3.13-7.33,2.34a22.92,22.92,0,0,0-5.86,4.4q-1.76,2.06-4.68.88c-.79,2-1.86,3.13-3.23,3.51a5.28,5.28,0,0,0-3.22,2.93,15.32,15.32,0,0,0,14.06,2.93q.58-4.68,5.28-5t8.79-.88a17.32,17.32,0,0,1,3.51-4.39,5.37,5.37,0,0,1,4.69-.88c3.12-2.34,5.57-3.61,7.32-3.81a11.59,11.59,0,0,1,5.57.88c2-3.12,3.12-4.59,3.52-4.39s.38-.68,0-2.64q7,0,10-5.27a5.33,5.33,0,0,0,4.1.58,7.22,7.22,0,0,0,2.93-1.76Zm23.53,22.85a4.59,4.59,0,0,0-4.68-3.51,22.2,22.2,0,0,0-7,1.17c2.73-2.34,4.11-4,4.11-5v-2.64a5.37,5.37,0,0,0-.59-2.34c-.39-.78-1.76-1-4.1-.59a11.67,11.67,0,0,0-4.69-3.81q-2.34-.87-5.27-2a3.4,3.4,0,0,0-1.47,3.52c.19,1.56-.68,2.15-2.63,1.76-1.57-3.13-2.64-4.2-3.23-3.23a3.43,3.43,0,0,1-3.22,1.47q-10.54,5.86-13.48,3.51c-2.34,2.35-3.91,3.33-4.68,2.93a20.07,20.07,0,0,0-3.52-1.17l5.27,4.69q-4.1,1.76-6.44,2.64t-7,.29a36.34,36.34,0,0,1-4.1,5.27c-1.18,1.17-3.13,1.57-5.86,1.17,2.73,3.14,5.27,4.4,7.61,3.81s4.49-1.07,6.45-1.46c.38-1.95,2-3.32,4.69-4.1a69.51,69.51,0,0,0,8.2-2.93c3.52,0,5.66.78,6.45,2.34s2.34,2.55,4.68,2.93a6.51,6.51,0,0,1-5.27,4.39,8.08,8.08,0,0,0-5.86,4.4,24.44,24.44,0,0,0,12,4.39,45.65,45.65,0,0,0,13.77-.29,75.66,75.66,0,0,1,4.4-6.44q2.63-3.52,7.32-2.35c.38-2.73,1.85-4.19,4.39-4.39S1947.65,1639.12,1947.65,1636.38Zm-65.72-19.33q-2.92-4.69-5.86-4.69Zm28.13,24.61c-2.34-2-4.6-2.35-6.74-1.18a12.88,12.88,0,0,0-5,4.69q5.28-3.51,7.91-2.34C1908,1643.62,1909.27,1643.22,1910.06,1641.66Zm14.65-11.64q-5.87,2.93-7.62,2.63a2.8,2.8,0,0,1-2.34-2.05q5.26,1.76,5.56.59a1.39,1.39,0,0,1,1.47-1.17Zm5.86,4c.78.79.19,1.37-1.76,1.76a8.11,8.11,0,0,0-4.1,1.75,3,3,0,0,1,2.63-2A5.46,5.46,0,0,0,1930.57,1634Zm27,36.33q1.76-4.68-.29-6.74a9.85,9.85,0,0,1-2.64-5.57c-1.17-3.51-1.86-5.66-2-6.44s-1.08-1.56-2.64-2.35a6.84,6.84,0,0,0-2.93-5,7.08,7.08,0,0,0-5.27-.88c-1.17,3.91-1.67,6.06-1.46,6.45a4.27,4.27,0,0,0,.87,1.17q-5.27-5.85-6.15-4.39a13,13,0,0,1-2,2.63q.58,5.87,2.34,5.86c1.18,0,1.37,1,.59,2.93a9.25,9.25,0,0,0-5.57,2.93,28.57,28.57,0,0,1-4.39,4.1q1.17,2.94,2.34,6.16a9.41,9.41,0,0,0,4.1,5q5.28-5.28,6.74-6.16a13.53,13.53,0,0,0,2.64-2,31.06,31.06,0,0,1-1.76,4.1c-.78,1.57-1,2.55-.58,2.93a6.24,6.24,0,0,1,5.56.3q2.64,1.47,5-1.47a29.1,29.1,0,0,0,4.4-1.46A10.44,10.44,0,0,0,1957.52,1670.37Zm-27-158.79c-2.74,3.91-3.91,6.44-3.52,7.62a3.51,3.51,0,0,0,2.35,2.34c1.55-.78,2.24-2.24,2-4.4A40.68,40.68,0,0,0,1930.57,1511.58Zm25.19,166.4q-2.94,2.94-8.2,1.18c-2.74,3.13-4.3,4.39-4.69,3.8a2,2,0,0,0-1.76-.87c-2.73,4.3-4.3,7.32-4.68,9.08s.58,2.84,2.93,3.22a7.29,7.29,0,0,1,2.93-4.1c1.55-1.17,3.22-2.34,5-3.52a47.51,47.51,0,0,0,5-3.81A12.87,12.87,0,0,0,1955.76,1678Zm-7,45.12a5.4,5.4,0,0,1-1.46-3.22c-.2-1.37-1.28-1.85-3.23-1.47a27.82,27.82,0,0,1-3.8,10.26q-3.24,5.57.29,7.91a4.16,4.16,0,0,1,.58-3.81,21.29,21.29,0,0,1,2.93-2.93c1.18-1,2.25-1.95,3.23-2.93A5.16,5.16,0,0,0,1948.73,1723.1Zm10-29.3c-3.13.79-5.27,2.35-6.44,4.69,1.55-.38,3-.78,4.39-1.17S1958.69,1695.76,1958.69,1693.8Z"/><path id="N" class="cls-3" d="M1610.69,1241.52h-82.15V832.86s-3-51.58,52.16-55.11,79.44,53.33,79.44,53.33l149.4,289V782.52h83v412.8s-.6,52-53.29,52S1767,1203,1767,1203L1612.54,909.49Z"/><path id="O" class="cls-2" d="M1106.26,836c37.93-48.07,84.15-53.33,84.15-53.33s86.37-12.37,135,2.45c49.78,14.22,61.11,29.77,76.93,49.3,22.63,26.47,33.59,90.18,34.18,110.92s5.19,64.29,1,127.16S1412,1173.8,1412,1173.8s-20.15,48.59-77.63,64c-49,13.34-84.79,10.12-117.48,8.45-23.68-3-63.56-8.67-97-41-10.67-13-43.26-53.33-48-142.22s8.3-163.56,8.3-163.56C1084.5,867.19,1106.26,836,1106.26,836Zm65.22,88.67A682.76,682.76,0,0,0,1167,1002v63.12s.44,33.77,9.33,58.22,26.22,34.66,26.22,34.66,16,13.34,48.45,12.89,43.55-4.89,43.55-4.89c41.63-14.81,44.89-51.11,49.78-84.44,3.41-33.63.89-137.33-2.22-156.89s-14.67-59.55-54.23-67.11c-11.11-4.41-43.55-3.11-43.55-3.11C1186.59,858.47,1179.48,896.25,1171.48,924.69Z"/><path id="R" class="cls-2" d="M1016.63,1244h-109l-96-175.41a423.37,423.37,0,0,1-54.59,0c-.59,15.41.07,175.45.07,175.45H664V791.87s45.63-9.26,78.81-10.26,46.82-4,87.7-3.37,80,9.48,89.49,14.22,32.59,11.85,46.22,29.63,21,29.69,27.41,50.52c3.9,19.71,6.37,53.92,4,76-5.32,49.52-24.89,69.63-24.89,69.63-6.29,8.56-28.45,34.37-63.74,39.55C917.67,1072.16,1016.63,1244,1016.63,1244ZM756,854.47V994l60.44,1.78s55.56,1.78,76.44-27.55,9.78-72,9.78-72-2.81-32-47.7-42.23C809.07,847.36,756,854.47,756,854.47Z"/><rect id="I" class="cls-3" x="468.54" y="781.52" width="93" height="462"/></g></g></g></svg>