<svg xmlns="http://www.w3.org/2000/svg" viewBox="0 0 1763.5 1892.78"><defs><style>.cls-1{fill:#fff;}.cls-2{fill:#242b2c;}</style></defs><g id="Camada_2" data-name="Camada 2"><g id="IronNotes_Logos"><g id="LightMode"><path class="cls-1" d="M972.49,23.38l693.92,382.9a187.81,187.81,0,0,1,97.09,164.45v751.32a187.83,187.83,0,0,1-97.09,164.46l-693.92,382.9a187.81,187.81,0,0,1-181.49,0L97.09,1486.51A187.83,187.83,0,0,1,0,1322.05V570.73A187.81,187.81,0,0,1,97.09,406.28L791,23.38A187.81,187.81,0,0,1,972.49,23.38Z"/><path class="cls-2" d="M1453.17,491.82a247.54,247.54,0,0,1-45.58,8.23q-22.78,1.89-40.51,4.41a181.46,181.46,0,0,0-32.29,13.91,295.88,295.88,0,0,0-27.21,17.71,6.85,6.85,0,0,1,1.89,6.32,46.24,46.24,0,0,0-.63,7.58q-17.71,6.33-21.52,29.73t-1.27,42.35q-7.59,8.85-7,13.91c.42,3.37-.2,5.9-1.89,7.58q6.33,12.65,3.8,25.29a134.94,134.94,0,0,0-2.53,26.56q2.54,46.79,3.8,100.53a848.36,848.36,0,0,1-3.8,104.31q5.05,12.64,3.15,24t-4.42,21.49a435.53,435.53,0,0,1,1.89,50l-1.26,41.72-1.27,41.73a224.71,224.71,0,0,0,1.91,38.56c0,1.68,1,4.63,3.15,8.85s1.07,8-3.15,11.38q3.8,5.05,7.59,9.49a37.72,37.72,0,0,1,6.33,10.74q-6.33,17.7-7.59,26.56t2.53,12.64q-3.79,17.7-.64,47.42t-4.42,49.94q3.79,40.47,1.26,72.08t-5.06,68.28q-7.61,0-10.77,2.53t-9.49,2.53q-5.07-2.54-10.13-16.44-11.38-6.33-20.89-20.86t-12-24.66q-16.47-5.06-17.73-12.65T1186,1355.45q-6.33-10.12-11.4-12.65t-5.06-11.38l-24.06-24a201.08,201.08,0,0,0-24-20.23,20.71,20.71,0,0,0-6.33-15.18,35.61,35.61,0,0,0-13.93-8.85,36.82,36.82,0,0,1-12-3.79,32.93,32.93,0,0,1-7-5.06q-12.66-32.88-27.23-51.84T1025.25,1162q-8.87-1.26-12-6.32a70.61,70.61,0,0,1-5.68-11.38,125.49,125.49,0,0,1-23.43-28.44q-9.5-15.81-19.62-29.72-13.92,2.52-19-5.06t0-13.91a32.75,32.75,0,0,0-6.33-7,32.55,32.55,0,0,1-6.33-7c-5.91-1.69-9.93-2.73-12-3.15s-3.15-1.91-3.15-4.44q10.13-8.85,5.69-17.06A75.38,75.38,0,0,0,910,1011.51a47.19,47.19,0,0,0-11.39,1.27,10.68,10.68,0,0,1-8.87-1.27q-5.06-8.85-2.53-16.43t-3.8-19q-6.33-1.26-10.12,1.26t-10.13,0a16.39,16.39,0,0,1,0-12.64q2.53-6.33,5.06-11.38A44.78,44.78,0,0,0,853.69,935q-9.5-6.94-12-17.08c-1.68-1.68-4.22-2.73-7.59-3.15a20.18,20.18,0,0,1-8.86-3.17q2.52-16.44-8.24-21.49a43,43,0,0,1-17.08-13.91q1.26-13.92-7-13.27t-8.22-9.49a9.45,9.45,0,0,1-10.13,3.79,8.93,8.93,0,0,1-7.59-7.59q5.06-1.26,6.95-3.15t8.24-1.91q-8.86-8.85-10.13-13.9a15.81,15.81,0,0,1,0-8.86q-15.19-1.26-24.69,8.23t-26,10.74q-1.26-15.16,6.33-19.59t19-1.9q-6.33-11.39-2.53-13.27t6.33-7q-7.59-3.8-17.1,1.27a32.36,32.36,0,0,1-19.62,3.79q1.28-12.64,4.43-18.33a48.61,48.61,0,0,1,8.24-10.75q-2.54-6.33-8.87-1.89t-10.13.62q-2.52-12.64,0-18.32t-3.79-12H688q0-8.87-1.89-13.92a32.44,32.44,0,0,1-1.88-11.39q-10.05,1.26-15.72-1.27t-9.42-3.8q-2.52-2.52,1.25-7a14.4,14.4,0,0,0,3.78-9.5q-2.52-6.33-6.29-7a12.22,12.22,0,0,0-8.18,1.89,31,31,0,0,0-8.16,7c-2.52,3-4.61,4.84-6.29,5.68q-6.29,7.6-6.92,21.52t-3.14,22.78q5,12.66,4.4,17.72a10.12,10.12,0,0,1-4.4,7.59q2.52,7.6,2.52,12V796.6a14.85,14.85,0,0,1,3.13,10.77c-.42,3.8-.83,7.37-1.25,10.75a81.82,81.82,0,0,0-.62,10.12,16.87,16.87,0,0,0,3.77,10.13q-6.29,2.53-5,7.59t-5,10.13c1.68,5.9,2.3,9.92,1.88,12a22.86,22.86,0,0,0,0,7.59,63,63,0,0,1,.63,8.86,11.47,11.47,0,0,1-3.77,8.22q2.52,2.54,5.65,9.5T625.15,913q3.78,11.4,1.26,13.92t-1.26,8.86c0,2.53,1,5.71,3.14,9.5s1.06,6.11-3.14,7a133.3,133.3,0,0,0-2.51,26,43.37,43.37,0,0,1-6.29,23.41q-2.51,20.25-3.15,37.34t-3.13,38.59q3.76,6.33,3.13,9.5a11,11,0,0,1-3.13,5.69q2.52,39.24,3.13,76.58a555.74,555.74,0,0,0,5.67,71.5q10.05,6.33,11.93,13.92a30,30,0,0,0,8.18,13.92q3.78,15.19,4.4,20.89a112,112,0,0,1,.63,12l6.29,6.33q3.76,3.8,3.77,10.12a133.83,133.83,0,0,0,34.56,43.67,106.86,106.86,0,0,0,50.92,23.41q2.52,10.13,13.83,8.23t18.86,4.43q0,11.38,1.26,16.45-6.29,7.59-20.12,7.59t-20.11-6.33q-22.63-7.59-33.32-1.26t-20.74,12.66c-2.51-.85-5-3.18-7.54-7s-4.61-5.7-6.29-5.7a53.21,53.21,0,0,1-16.34,0q-8.81-1.26-18.86-2.53a83.73,83.73,0,0,0-22.63,3.17Q596.24,1418,590,1418t-10.05-2.54q-3.78-2.52-8.8,2.54-11.33-6.33-22.63-1.89t-18.86-.65q-2.5,6.33-10.06,4.44c-5-1.26-7.54-.22-7.54,3.16q-17.6,0-25.14,2.53t-13.83-3.8q-17.6,6.33-39.61,5.07a246.39,246.39,0,0,0-43.36,1.26c.84-4.22-.2-7-3.15-8.22s-4.81-4-5.65-8.23c6.7-1.69,13.63-3.8,20.73-6.33s14.05-4.64,20.75-6.33a157.9,157.9,0,0,1,42.11-1.89,103.68,103.68,0,0,0,38.35-3.17q7.55-1.26,17-7.59a116.16,116.16,0,0,0,17.6-14.55,103.67,103.67,0,0,0,14.46-18.36,70.94,70.94,0,0,0,8.8-20.25q1.26-16.45,4.39-20.88a27.61,27.61,0,0,0,4.41-10.76,157.81,157.81,0,0,0,6.91-31.64q1.88-16.46,4.4-31.64a166.91,166.91,0,0,0,2.52-29.74v-26.76s1.37-38.39,2.21-57-1.21-55.68-1.21-55.68v-14.66a231.63,231.63,0,0,0,0-34.15q-1.27-16.43-2.53-30.34-1.27-41.73,0-85.35t-1.27-84.09q-1.26-32.88-.64-67.64t-9.49-62.6a268.8,268.8,0,0,0,.63-32.88,257.94,257.94,0,0,0-4.43-39.19q-12.66-6.33-10.76-10.12c1.26-2.53,2.75-5.48,4.43-8.85,0-3.37-.84-5.68-2.53-6.95a9.31,9.31,0,0,0-5.7-1.9h-6.33a4.55,4.55,0,0,1-4.43-2.53q3.81-20.24.63-25.29a43,43,0,0,0-8.22-9.48,78.46,78.46,0,0,0-10.13-7.58,13.42,13.42,0,0,1-6.33-8.23q-13.94-1.26-17.1-7T491,527.22q-3.8-7.58-13.92-10.74a151.26,151.26,0,0,0-23.43-5.05L427,507.63a92.89,92.89,0,0,1-24.68-7c.84-4.21.22-7.37-1.91-9.47s-2.73-5.28-1.89-9.5q44.31-1.26,85.45-3.79a318.62,318.62,0,0,1,80.4,5.06q6.33-3.8,15.82-3.8t15.83-5.05a59.53,59.53,0,0,0,20.26,4.43,217.59,217.59,0,0,0,23.41,0q12-.63,24.06-.64A62.68,62.68,0,0,1,686,481.7q17.73-6.31,25.32,1.27,6.33,15.16,14.55,19.61t10.77,17.06L764.45,550a91.65,91.65,0,0,1,20.25,36.67c6.76-.84,10.33,1.91,10.76,8.23s4,9.48,10.77,9.48q-3.81,7.57,2.53,12.64t3.8,11.38c4.22-1.68,7-2.73,8.22-3.15s4,.2,8.23,1.89c.85,3.37.63,5.9-.64,7.58s-2.73,3.8-4.42,6.33a237.25,237.25,0,0,0,16.46,19.6,81.67,81.67,0,0,0,20.26,15.8q12.66-2.52,16.45,2.53-5.05,15.18-1.9,17.08a29.15,29.15,0,0,1,5.7,4.42q6.33,0,9.49-3.8t9.5,0c0,5.06-.22,8.23-.64,9.49s-1.89,3.16-4.42,5.69q3.79,13.9,14.55,20.87t12,18.32a28.87,28.87,0,0,1,12.67,8.23,79.9,79.9,0,0,1,8.86,12q3.79,6.32,8.22,12.64t13.3,8.85q-3.79,7.59,2.53,12t2.53,10.74q13.94,6.33,15.2,10.12a8.34,8.34,0,0,1-1.27,7.58,95.49,95.49,0,0,0,12.66,20.88,81.6,81.6,0,0,1,12.66,23.38,23.17,23.17,0,0,1,9.49,11.38q3.16,7.59-.63,13.91,5.07-2.53,9.49,1.9a107.5,107.5,0,0,1,8.86,10.12,73.09,73.09,0,0,0,9.51,10.12,18.52,18.52,0,0,0,12.66,4.41q5.05,17.71,8.22,22.76T1086,963.46a14.51,14.51,0,0,0,4.42,13.29q5.7,5.68,7,8.21,0,7.59,5.07,8.85a43.07,43.07,0,0,1,11.39,5.06q10.13,24,25.32,39.84a341.85,341.85,0,0,1,29.12,34.76q12.66-2.52,17.73,2.53a31.78,31.78,0,0,0,12.66,7.59,114.51,114.51,0,0,0-5.07,12q-2.54,6.95-10.13,4.42,8.87,5.06,12.67,9.49t6.33,15.8q13.92-2.53,20.88,9.49a75,75,0,0,0,15.83,19.59q13.92-21.5,12.66-41.73-6.33-29.09-1.27-53.73a260.33,260.33,0,0,0,5.07-52.48v-39.2q0-21.5-1.27-43a97.22,97.22,0,0,1,0-22.12,72.27,72.27,0,0,0-1.26-23.4q-2.54-8.87-1.27-23.39a146.82,146.82,0,0,0,0-27.19q-2.53-13.92-5.7-27.18t-5.69-27.2q-5.07-32.87-8.24-65.75a264.62,264.62,0,0,0-13.29-62,159.08,159.08,0,0,1-8.23-31.61,35.6,35.6,0,0,0-12-22.76q-6.33,1.26-13.3,2.53t-10.76-2.53q2.53-8.85,5.69-18.32t-4.42-14.55a24,24,0,0,0-7.6,1.26,28.14,28.14,0,0,1-8.86,1.26q-5.07-5.05-5.06-8.85t2.53-10.11q-3.8-10.12-13.93-17.7a186.44,186.44,0,0,0-21.52-13.91q-17.73-10.12-23.43-9.48a18.94,18.94,0,0,1-10.75-1.9q-19-10.12-32.3-8.21a234.68,234.68,0,0,0-23.41,4.41q-8.86-12.64-7.6-15.17t-1.26-8.85a33.16,33.16,0,0,1,28.48-6.95,177.94,177.94,0,0,0,34.82,3.15,377.15,377.15,0,0,0,55.71,5.7q26.58.63,53.17,1.89,29.11-8.85,56.33-5.68a342.29,342.29,0,0,0,55.08,1.89q13.92-1.26,29.74-1.89a121.23,121.23,0,0,1,28.5,1.89q11.39,6.32,16.46,3.79a20.48,20.48,0,0,1,8.86-2.53q13.92,0,31,.64a103.31,103.31,0,0,0,31-3.17q6.33,3.8,6.33,10.12A15.7,15.7,0,0,1,1453.17,491.82ZM509.94,511q-6.31-5.07-8.86-8.86c-1.68-2.53-4.64-3.8-8.85-3.8q1.26,6.33,7.59,7A13.82,13.82,0,0,1,509.94,511Zm39.24-8.86q-12.66,5.06-19,6.33t-10.12,7.59q12.66-5.07,19.61-6.33A11.84,11.84,0,0,0,549.18,502.17Zm81-1.27a92.23,92.23,0,0,0-39.24,20.25q-2.52-7.59,3.8-10.12t7.59-11.39a142.43,142.43,0,0,0-20.89,1.26q-8.22,1.28-20.87,3.8c0,3.37-1.27,5.7-3.8,7a26.85,26.85,0,0,1-8.23,2.53,20,20,0,0,0-7.6,2.53c-2.11,1.27-2.73,4-1.89,8.22q1.28,7.59,2.53,13.92,8.86,3.79,12,1.91a30.6,30.6,0,0,1,8.23-3.18q12.66,6.33,20.25-3.15t24-9.5q2.54-10.12,10.75-13.28A27.64,27.64,0,0,0,630.18,500.9Zm134.15,83.89a37.14,37.14,0,0,0-7.59-9.48c-2.53-2.11-3.8-5.71-3.8-10.77q-10.12-3.79-15.82-10.75A94.48,94.48,0,0,1,727,538.6a126.05,126.05,0,0,0-10.12-15.82,37.55,37.55,0,0,0-13.29-11.39c-4.21,3.37-7.39,5.06-9.5,5.06H684.6q-13.92,13.92-25.31,20.89A236.23,236.23,0,0,1,634,550.62q-10.12,19-32.91,24Q601.07,562,615,562q7.59-11.38,11.39-11.39t3.8-3.8q5.05-11.39,12.65-16.45a115.92,115.92,0,0,1,15.82-8.86q8.22-3.79,16.45-8.22a95.77,95.77,0,0,0,15.83-10.76A121.91,121.91,0,0,0,677,500.64q-7.6-.64-15.19-.65-24,13.93-47.47,30.38T566.9,563.28q8.85,6.32,14.54,1.26t13.3-1.26a33.68,33.68,0,0,0-8.86,6.32,33.55,33.55,0,0,1-8.86,6.33q1.28,6.33,0,9.5c-.84,2.11-.42,4.42,1.27,7q8.85-8.86,9.48-8.86a26.53,26.53,0,0,1,4.44,1.26q20.25-6.33,29.11-14.55t25.31-10.76a37.43,37.43,0,0,1,10.13-12.66,26.5,26.5,0,0,0,10.75-2.53c3.79-1.69,7.17-3.15,10.12-4.42a22.28,22.28,0,0,1,8.86-1.91q4.43,0,7,6.33a174.7,174.7,0,0,1-44.3,36.08A126.17,126.17,0,0,0,607.4,619q16.46-2.52,25.93-13.92t23.43-11.39Q661.82,581,670.68,581q0-10.12,15.19-7.59,6.32-6.33,20.87-12.66T730.16,557q-5.05,12.66-15.83,18.36a44,44,0,0,0-17.07,15.81q-11.4,1.26-8.86,4.44T685.87,600q-7.61-2.54-10.77,0a27.77,27.77,0,0,0-5.69,6.33,12,12,0,0,1-10.12,5.06q-6.33,0-3.8,8.86-6.33,0-9.5,3.8a23.24,23.24,0,0,1-9.48,6.32q-1.28,6.33,1.89,8.86c2.11,1.69,2.33,3.38.64,5.07Q653,646.8,659.91,638t18.36-7.6q15.19-7.59,24.05-16.45T725.1,600a71.33,71.33,0,0,1,22.14-8.22Q758,589.86,764.33,584.79ZM649.16,566.71Q632.71,576.84,615,587t-27.84,25.32q10.13,5.06,13.92-1.89c2.53-4.64,4.64-7.82,6.33-9.5a15.72,15.72,0,0,1,6.33-3.8,15.75,15.75,0,0,0,6.32-3.8q12.66-11.38,12.66-12.65c0-.85.84-2.11,2.53-3.8a69.25,69.25,0,0,1,7.59-4.42A16.23,16.23,0,0,0,649.16,566.71ZM639,1326.09q-13.92-12.66-19-24.67T615,1271.67q-5.06-2.54-7-6.33t-4.42-8.86a49.66,49.66,0,0,0-3.8,10.12,18.72,18.72,0,0,1-5.06,8.86q5.07,3.81,2.53,10.77t-5.06,9.48c2.53,1.69,4.84,3.18,6.95,4.44a11.19,11.19,0,0,1,4.44,4.42q10.13-3.79,12-2.53c1.26.85,1.9,3,1.9,6.33q-2.53,3.8-5.06,7a45.87,45.87,0,0,0-5.06,8.22q8.85-5.07,17.72.64T639,1326.09Zm-31.64-567q-5.07-24-.64-41.77t-1.89-39.23c-5.07.84-8.24,2.75-9.5,5.7a21.62,21.62,0,0,0-1.27,10.75q.63,6.33,1.91,12.66a58.87,58.87,0,0,1,1.26,11.39q1.28,15.18,1.27,17.72T596,746.43a20.5,20.5,0,0,0,.62,11.39A12.21,12.21,0,0,1,596,768q7.59-10.12,8.22-8.22C604.65,761,605.71,760.78,607.4,759.09Zm0-205a7.7,7.7,0,0,1-4.44,5.06,38.32,38.32,0,0,0-7,3.8,28.72,28.72,0,0,1,5.68-4.42A29.7,29.7,0,0,0,607.4,554.06Zm2.53,222.75q-3.79,0-7.6-5.06t-6.32,0q7.59,11.38,8.22,12.65t4.43,0Zm3.8,35.44q-5.07,0-6.33-3.8t-6.33-3.8q-6.33,24,5.06,38c.85-8.44,1.89-14.77,3.16-19A70.25,70.25,0,0,1,613.73,812.25Zm32.9,534.09q0-8.86-4.44-12a51.1,51.1,0,0,0-10.75-5.7q1.27,15.2-1.9,17.09a34.3,34.3,0,0,1-7,3.16c-2.53.84-4.85,1.69-7,2.53s-2.74,2.53-1.89,5.06q7.59,1.27,10.75-.62c2.1-1.27,5.28-.64,9.5,1.89q1.26-11.38,5.68-10.75C642.62,1347.4,644.94,1347.18,646.63,1346.34Zm12.66-745.45q-11.4-3.81-21.52,7a248.22,248.22,0,0,1-19,18.35q6.33,3.79,10.12.64a25.23,25.23,0,0,0,6.33-8.24,19.27,19.27,0,0,0,10.13-5.06,82,82,0,0,0,7.59-8.86Zm-16.46,73.4c-.84-4.22-2.53-7.37-5.06-9.48s-5.9-2.33-10.12-.64c.84,3.37.62,5.9-.64,7.59s-1,4.64.64,8.86c3.37,0,5.9-.62,7.59-1.89A52.09,52.09,0,0,1,642.83,674.29Zm29.11,705q-5.06-12.66-17.09-7T639,1385.57q7.59,5.07,17.72,1.91T671.94,1379.25ZM815,668a51.42,51.42,0,0,1-1.91-7.59c-.42-2.53-2.73-3.8-6.95-3.8q-12.66,8.86-16.45,6.33t-5.07,3.8l-12.65,10.12q-6.33,5.07-12.66,2.53c.85-4.21,2.31-7.17,4.42-8.85s4.86-1.27,8.24,1.26q8.85-6.33,11.39-13.28T798.51,654q-7.6-11.38-8.86-7.59t-7.6,2.53c-.84-3.38-.64-5.69.63-7a14.83,14.83,0,0,1,5.06-3.18,14.79,14.79,0,0,0,5.06-3.15c1.27-1.27,1.49-3.6.64-7q-6.32-2.54-11.39,0a22.41,22.41,0,0,1-10.12,2.53q1.26,2.54-1.91,3.17a58.49,58.49,0,0,0-6.95,1.89,16,16,0,0,0-6.33,3.8q-2.54,2.53,0,7.59-6.33-3.8-7.59-5.68t0-8.24a17.15,17.15,0,0,0-12,1.91q-5.7,3.16-8.22-.64,7.59-1.27,11.39-7t15.19-3.17q13.92-12.64,17.71-15.18t1.27-10.13q-25.32,6.33-39.23,17.72t-31.65,25.31q-2.52-11.39,1.27-15.19t8.86,1.27c-.84-7.59-1.91-12.23-3.17-13.92s-3.16-2.11-5.69-1.27c-2.53,5.06-5.28,8.24-8.23,9.5a55.25,55.25,0,0,1-10.75,3.16,9,9,0,0,1-7.6,7.59,63.94,63.94,0,0,1-12.65,1.27c0,3.37-.85,5.7-2.54,7a24.66,24.66,0,0,1-5.7,3.15,15,15,0,0,0-5.06,3.17c-1.27,1.27-1.47,3.58-.63,7q11.4,2.54,20.25-4.42t16.46-13.3a68.13,68.13,0,0,0-3.8,21.51q-3.79-2.52-9.5,0a11.61,11.61,0,0,0-7,8.86q7.59,10.13,10.12,16.46a73.92,73.92,0,0,0,12-.63q3.16-.63,9.5,1.89,6.33-17.71,12.65-19.61a13.24,13.24,0,0,0,8.86-8.23q7.61-6.33,12.66-10.13,7.59,6.33,3.8,10.77t-13.93,3.16A70.14,70.14,0,0,1,708,679.35a70.35,70.35,0,0,0-15.82,17.72,84,84,0,0,1,8.86-7.59q5.07-3.79,8.86,2.53a11.57,11.57,0,0,0-6.33,8.24q-1.26,5.68-3.79,8.21,12.66,1.27,17.72-2.53t12.65-1.26q2.54-10.12,7.6-12.66,0,8.87-1.27,12.66t-7.59,5.06q-10.12,0-10.13,10.12,8.87,3.81,13.92.65t7.6-.65c-5.06.85-8.66,3-10.77,6.33a72,72,0,0,0-5.69,11.39q11.4,0,15.82-8.22t13.29-7q-3.8-6.33-7.59-5.07t-5.06-1.26a7.48,7.48,0,0,1,8.22-4.42,7.54,7.54,0,0,0,8.23-4.44q7.59-5.07,8.22-2.53c.42,1.68,2.33,2.11,5.7,1.26q5.07-16.45,12.66-16.45Q792.19,671.76,815,668ZM674.48,589.5a35.53,35.53,0,0,1-8.24,3.17,5.89,5.89,0,0,0-4.42,3.15q6.33-2.52,10.12-2.53C674.48,593.29,675.32,592,674.48,589.5Zm20.25-12.66L682.07,587q10.13-5.06,12-6.32C695.35,579.79,695.57,578.53,694.73,576.84ZM913.68,770.48c0-5.06-1.91-8.22-5.7-9.48s-7.8-2.75-12-4.44a159.08,159.08,0,0,0-22.78,17.09q-8.86,8.24-22.78,14.55c0-7.6.62-11,1.89-10.13s2.33-.42,3.17-3.79q10.13-3.79,11.39-1.89c.84,1.26,1.69,1,2.53-.64q-1.26-6.33,5.06-10.75a33.72,33.72,0,0,1,12.66-5.71q-5.05-12.66-7.59-8.22t-5.07-1.9q7.6-12.66,5.69-14.55a17,17,0,0,1-3.15-4.44q-20.25-6.33-27.85.64a18.23,18.23,0,0,1-17.72,4.43,32.51,32.51,0,0,0-9.5,12q-3.17,7-9.48,1.89-2.53,7.59-8.24,10.12a113.12,113.12,0,0,0-12,6.33q7.59-6.33,6.33-15.19a51.94,51.94,0,0,0,19-10.75q7.59-7,20.25-10.76,0-3.79,2.53-5.07A23,23,0,0,1,846,718a22.59,22.59,0,0,0,5.7-1.9q2.54-1.27,2.53-6.33-15.18,0-16.45,1.91a4.26,4.26,0,0,1-3.8,1.89,6.1,6.1,0,0,0-5.06-4.43,23,23,0,0,0-7.59,0,19,19,0,0,1-7,0q-3.17-.63-3.16-4.43c4.22.84,7.38.64,9.49-.63s4.86-1.48,8.23-.64c.85-4.22,2.11-7.37,3.8-9.48a46.69,46.69,0,0,0,5.06-8.24q-10.12-7.59-25.31-1.26-1.27,11.39-11.39,11.39t-13.92,8.86Q777,711,771.29,715.43a42.39,42.39,0,0,1-14.55,7q-8.87,12.65-16.45,11.39A133,133,0,0,0,739,749a8.36,8.36,0,0,0,7.6-1.26q3.79-2.54,6.32-4.42a8.43,8.43,0,0,1,5.07-1.91q2.52,0,5.06,3.8l-11.39,7.59q-3.79,2.54,0,7.59,10.13,1.27,15.19-7.59t11.39-6.33q1.26-8.85,12.65-7.59,0-6.33,4.42-7.59t9.5-2.54q1.27-8.85,10.13-13.92t16.45,1.27a183.83,183.83,0,0,0-25.95,17.09,153.52,153.52,0,0,0-23.41,23.41q-2.52,3.8-.64,9.5t-3.15,5.69q-7.6-8.87-8.24-11.4c-.42-1.68-2.31-2.1-5.69-1.26,0,4.22,1.47,6.55,4.43,7a9.7,9.7,0,0,1,7,4.42q-2.54,5.06-6.33,7t-5.07,8.22a42,42,0,0,0,25.94-.63q13.29-4.42,23.42-3.17a23.05,23.05,0,0,1-8.23,7,93.29,93.29,0,0,0-10.75,6.95,16,16,0,0,0-6.33,8.86q-1.26,5.07,3.8,12.66,10.13,0,14.55-5.06a27.77,27.77,0,0,1,10.76-7.6q0,11.4-3.17,12c-2.11.42-2.31,2.74-.63,7q5.07,13.92.63,18.36t-1.89,10.75c4.22,0,7-1,8.22-3.16s4-2.33,8.23-.64q12.66-16.46,26.58-26.58l27.84-20.25q-2.52-8.86-5.7-2.53t-12,2.53Q854.2,811,849.13,813.51T839,809.71a33.53,33.53,0,0,0,13.28-8.21q5.69-5.7,12-3.18c1.69-4.22,4.84-7.79,9.48-10.75s8.66-2.32,12,1.89q0-10.12,10.75-12T913.68,770.48ZM758,680.62q-11.4,8.86-12.66,10.13t-5.06,0a39.35,39.35,0,0,0,6.33-8.22Q749.14,678.09,758,680.62Zm78.47,89.86-10.13,5.06q-5.05,2.54-11.39,5.06-3.8-8.85-7-5.68t-10.75.62l7.59-5.06A55.85,55.85,0,0,1,815,765.42q-5.07-3.79,3.16-7.6t10.76,1.27Zm11.39,17.72q-13.93,0-15.19,3.17c-.85,2.11-2.95,3.16-6.33,3.16q0,10.13-3.17,13.29c-2.11,2.11-2.31,4-.63,5.69q10.13,7.59,13.93,8.86c2.53.84,4.21,0,5.06-2.53q-10.12-12.66-7.6-13.92a20,20,0,0,0,5.07-3.8A135,135,0,0,1,847.87,788.2Zm15.18,56.95q-7.59-3.79-7.59-6.95c0-2.11-.84-3.17-2.53-3.17q-3.79,6.33-7.6,13.92t-16.45,1.26q15.2,7.6,20.25,2.54T863.05,845.15Zm-8.86-109.7q1.27,6.33-1.26,8.86a16,16,0,0,1-6.33,3.79L839,750.64q-3.79,1.26-3.8,6.32,10.13-7.59,15.19-21.51Zm-1.26,26.17c-.85,4.22-2.75,6.13-5.7,5.7a31.23,31.23,0,0,1-9.49-3.17c1.69-1.69,4.22-2.31,7.59-1.89S851.24,762.46,852.93,761.62ZM913.68,835q-5.07-6.33-10.77-5.69a31.62,31.62,0,0,0-10.75,3.16,124.62,124.62,0,0,0-24,19.62,125,125,0,0,1-24,19.61q10.13,2.53,19.61-4.42A154.34,154.34,0,0,1,885.83,854q7.6-8.87,12.66-13.92T913.68,835Zm-39.24-88.6c-5.9,2.53-11.18,3.6-15.82,3.17s-7.8,2.32-9.49,8.22q13.92-2.52,17.72-3.79T874.44,746.43ZM971.9,856.54q-3.79-6.33-8.24-6.95a13.64,13.64,0,0,0-8.86,1.89,60.08,60.08,0,0,0-9.48,7,24.81,24.81,0,0,1-10.13,5.69c-2.53-5.07-1.48-8.64,3.16-10.75a17.29,17.29,0,0,0,9.5-10.77q-2.54-2.54-7,.64t-7-1.91q-5.07,2.53-1.91,0a21.34,21.34,0,0,1,8.24-3.79,62.73,62.73,0,0,0,9.48-3.16,9.63,9.63,0,0,0,5.7-7q-15.18,0-24,3.8a30.9,30.9,0,0,0-13.92,11.39,24.35,24.35,0,0,0,2.53,5.7c.84,1.27.84,4,0,8.22q-10.12,6.33-12.66,6.33a11.15,11.15,0,0,1-5.06-1.27q-8.87,8.86-12.66,14.57a31.27,31.27,0,0,1-10.12,9.48l-11.39,3.8q-3.81,1.26-1.27,7.59a8.59,8.59,0,0,1-6.33,2.53q-3.79,0-6.33,3.8,15.19,8.86,19.61,1.27a21.65,21.65,0,0,1,13.3-10.13q0,10.13-2.53,11.39t-1.27,7.6q12.66-6.33,15.19-7a24.61,24.61,0,0,0,5.06-1.9,116.82,116.82,0,0,1-12,14.56,144.51,144.51,0,0,1-12,10.75q10.13,7.59,15.81,4.44t10.76-.64a51.61,51.61,0,0,0,4.43-8.22,9.65,9.65,0,0,1,7-5.71q17.71-13.92,24-21.51a80.3,80.3,0,0,1,15.19-13.92q-12.66-2.53-13.3-2.54c-.42,0-.62-.42-.62-1.26A15.88,15.88,0,0,0,951,878.7a29.63,29.63,0,0,0,5.7-4.44q11.38-7.59,13.28-10.12T971.9,856.54Zm-40.5-65.81a146.44,146.44,0,0,0-27.22,12,82.25,82.25,0,0,0-20.88,17.08q-6.33,6.33-21.51,8.86,19,5.06,32.26-7t33.55-17.1a49.38,49.38,0,0,1,2.53-6.33C931,796.64,931.4,794.1,931.4,790.73ZM902.29,894.51q-12.66,5.07-13.3,1.91a22.8,22.8,0,0,0-1.89-5.71,27.84,27.84,0,0,1,6.33,5.71Q896,899.59,902.29,894.51Zm13.92-48.09q-6.33-2.53-9.5,1.9c-2.11,3-4,5.69-5.69,8.22q6.33,3.8,9.49-1.89A38.08,38.08,0,0,1,916.21,846.42Zm12.66,29.11q-10.12,1.26-15.19,6.32a138.92,138.92,0,0,0-10.13,11.4q-2.52-8.87,1.27-10.13c2.53-.84,5.48-1.69,8.86-2.53q0-7.59,3.15-9.49a31.32,31.32,0,0,1,9.5-3.17Zm63.28,53.15q-7.6-10.12-9.5-12a3.49,3.49,0,0,0-4.42-.64q-1.28,6.33-6.33,7a83.81,83.81,0,0,0-10.13,1.89,68.59,68.59,0,0,1-13.92,10.76,68.18,68.18,0,0,0-13.92,10.75q-12.66,6.33-14.56,7.6c-1.27.84-2.74.42-4.43-1.27q2.53,6.33-3.79,5.7t-7.6,5.69c2.53.84,3.8,2.75,3.8,5.7s1.69,5.27,5.06,7q6.33-7.6,13.92-5.69a17.75,17.75,0,0,0,13.93-1.91q-7.6-7.59-3.18-11.39t14.57-5.06c-.85-3.38-.42-6.11,1.26-8.22a28.43,28.43,0,0,1,5.07-5.06,65.05,65.05,0,0,1,5.68-3.8,10.09,10.09,0,0,0,4.44-5.7q6.33-2.54,16.45,2.53Zm-45.57-2.53c-3.37-5.06-5.7-7.59-7-7.59s-3.16-.85-5.69-2.53q-2.53,11.38-7,13.29c-3,1.27-2.73,3.58.64,7a45.57,45.57,0,0,0,8.86-5.69A22.5,22.5,0,0,1,946.58,926.15Zm86.07,19a37.12,37.12,0,0,0-21.52,1.26,28.3,28.3,0,0,0-15.19,12.66,351.4,351.4,0,0,1-39.23,20.25Q939,986.9,927.6,1004.62q6.33,0,9.48,4.44t7,9.48a154.56,154.56,0,0,0,11.39-12.65,43,43,0,0,1,11.39-10.13,14.53,14.53,0,0,1,8.22-2.53,14.54,14.54,0,0,0,8.24-2.53,67,67,0,0,0,19.61-16.45,67,67,0,0,1,19.62-16.46q5.07-5.06,7.6-5.69C1031.8,951.68,1032.65,949.35,1032.65,945.14Zm-40.5-60.75c-5.07-.85-9.28-.21-12.66,1.9a49.5,49.5,0,0,0-8.86,7A107.22,107.22,0,0,0,958,903.37q-3.81,3.79-6.33,12.66a14.16,14.16,0,0,0,6.33-1.27q2.52-1.26,7.59,0a11.61,11.61,0,0,1,6.95-8.86c3.8-1.69,7.6-3.15,11.39-4.42a19.06,19.06,0,0,0,8.86-5.7Q995.94,892,992.15,884.39Zm30.37,49.36Q1020,919.82,1009.23,923t-14.55,13.28q-10.12,0-15.19,7A34.55,34.55,0,0,1,966.83,954c-4.21,1.68-7.59,3.17-10.12,4.43s-3,4.42-1.27,9.49a325,325,0,0,0,32.27-18.35Q1002.26,940.09,1022.52,933.75Zm39.24,49.35q-8.87-8.85-13.3-2.53t-9.48,0a38.49,38.49,0,0,1,16.45-11.39q-1.28-11.38-10.13-15.18a10.11,10.11,0,0,0-5.7,4.43c-1.27,2.11-4,2.74-8.22,1.89q-8.85,13.92-17.72,21.52t-17.72,7.59q-3.8,13.92-7,12a31.14,31.14,0,0,0-9.49-3.17q-5.06,11.4-6.33,13.92a43.2,43.2,0,0,1-11.39,7c-3.37,1.27-4.64,3.58-3.79,7q1.26,2.52,8.21.64t5.71,4.42q-6.33,0-8.24,5.06a15.07,15.07,0,0,1-5.68,7.59q11.38,8.87,13.28,8.86c1.26,0,2.32-.84,3.17-2.53-.85-1.68.62-3,4.42-3.79a38.45,38.45,0,0,0,8.23-2.54q7.6-8.85,11.4-13.92,13.92-2.52,16.45-8.22t10.12-12q11.4-12.64,19-17.08T1061.76,983.1Zm29.11,39.24q-8.86-13.92-14.57-8.22t-13.28.63a64.61,64.61,0,0,1,8.22-7,27.69,27.69,0,0,1,10.77-4.44c.84-3.37.62-5.68-.64-7a42.69,42.69,0,0,0-4.43-3.8c-1.68-1.26-3.17-2.32-4.43-3.17s-1.47-2.11-.63-3.79q-10.12,10.13-14.56,11.39t-9.49,2.53q-12.64,10.13-10.76,15.83t8.23,4.42c.85-4.22,3.58-6.53,8.22-7s7.39.63,8.24,3.16q-10.12,12.66-14.57,15.19t-12,2.53q2.53,5.05-1.27,8.23t-10.12.63q-12.66,5.06-12.66,12.66A52.4,52.4,0,0,0,994,1065.37,173.55,173.55,0,0,1,978.23,1078a49.38,49.38,0,0,0,6.32,8.86q2.54,2.52,0,7.59a60.32,60.32,0,0,1,13.93-1.27c1.68-4.21,3.37-6.75,5.06-7.59s5.9-1.27,12.65-1.27q2.53-15.18,6.33-11.39t6.33,0q2.54-7.59,5.69-11.39a32.52,32.52,0,0,1,7-6.32q12.65-5.07,17.07-3.16t4.44-4.44q7.59-12.66,7.6-12c0,.42.84.62,2.53.62,4.22-5.91,7.79-9.28,10.75-10.12A15.85,15.85,0,0,0,1090.87,1022.34Zm69.61,79.73q-2.54-11.38-12-8.22t-14.54-3.17q12.64-10.12,6.95-16.45a18.69,18.69,0,0,0-14.55-6.33q-15.18,6.33-17.72,5.7c-1.68-.42-2.53-1.9-2.53-4.43a50.26,50.26,0,0,0,15.19-17.72q-5.06-3.79-8.86-.63t-6.33-1.9q-15.18,5.05-18.36,11.39c-2.11,4.22-5.68,4.64-10.75,1.26a150,150,0,0,1-19,18.36q-8.87,7-16.45,8.22a36.43,36.43,0,0,1-16.46,14.56q-10.12,4.44-13.92,15.82,5.07,6.33,8.86,11.39t13.92,2.53a29,29,0,0,0,3.8-8.22q1.26-4.43,6.33-1.91-1.27-3.79,3.15-11.39t10.77-3.79a53.63,53.63,0,0,1,15.81-16.46q9.49-6.33,23.42-7.59c3.38-4.22,6.11-6.11,8.22-5.69a11,11,0,0,1,5.71,3.16q-20.25,11.39-25.32,19.62t-16.45,7q-13.92,5.05-19,15.18,6.32,13.92,7.59,10.77t7.59-.64a50,50,0,0,1,11.39-6.33q6.33-2.53,5.07,3.8a8.21,8.21,0,0,0-8.24-.63,9.5,9.5,0,0,0-5.69,5.69q-8.85,3.8-12,10.12t-12,7.6q6.33,10.13,10.75,17.72t14.56,13.92a113.28,113.28,0,0,0,19-18.34,97.54,97.54,0,0,1,17.72-17.1,15.76,15.76,0,0,1,7-3.8,29.05,29.05,0,0,0,8.23-3.79q6.33-5.07,12-14.55t18.36-8.23Q1149.09,1108.41,1160.48,1102.07ZM1037.71,985.64q-2.54,3.79-5.7,8.23t-9.49,4.42q6.33-7.59,7.6-10.75T1037.71,985.64Zm69.61,49.36q-12.66,5.05-20.25-1.27a87.34,87.34,0,0,1-2.53,10.12q-1.27,3.81-7.6,1.27,2.54,3.8,14.55,1.91T1107.32,1035Zm-6.33,74.67q-8.87,6.33-10.12,9.5c-.85,2.11-3,3.15-6.33,3.15q-3.8-7.59,5.06-8.22T1101,1109.67Zm92.39,35.43q-11.39-1.26-17.09,4.44a144.46,144.46,0,0,1-12,10.75q-3.8-6.33-7-1.26c-2.11,3.37-4.84,3.79-8.22,1.26a98.28,98.28,0,0,1-13.29,13.3q-8.24,7-18.35,4.42-6.32,11.38-16.45,15.83a39,39,0,0,0-16.45,13.28,16.27,16.27,0,0,0,6.33,5.7q3.8,1.9,2.53,9.49,11.38,10.13,25.31-1.89t27.84-17.1q3.79-12.64,10.75-20.25t15.83-1.26a11.2,11.2,0,0,1,3.16-10.75q4.43-4.44,8.86-8.24t8.23-7.59Q1197.18,1151.44,1193.38,1145.1Zm-67.08-38c-6.75-1.69-10.76-1.89-12-.63s-3.58,2.31-7,3.16c-1.69-3.38-1.69-5.69,0-7a10.3,10.3,0,0,1,6.33-1.9,35.61,35.61,0,0,0,6.95-.63q3.17-.63,4.44-4.43Zm60.75,21.51c-.84-4.22-2.75-6.53-5.7-7a11.89,11.89,0,0,1-6.95-3.17q-13.92,3.79-21.52,13.29t-21.51,9.49q1.26,12.66-7,15.19a34.79,34.79,0,0,0-14.55,8.85q12.66,2.54,15.81-3.79t13.3-6.33q6.33-12.66,21.52-15.81A75,75,0,0,0,1187.05,1128.65Zm50.63,65.81c0-3.37-1.91-6.11-5.7-8.21a30.8,30.8,0,0,0-12-3.8,21.82,21.82,0,0,0-10.77,1.26c-3,1.27-4,3.16-3.15,5.69q-7.59-3.8-2.53-10.75t12.65-8.23q0-8.87-4.43-8.86a21.42,21.42,0,0,1-9.49-2.53q-7.59,3.79-7.59,10.12t-7.6,5.06q0,12.66,3.16,11.39t3.17,3.8q-22.79,16.45-30.37,21.52a69.14,69.14,0,0,0-16.46,13.29,75.21,75.21,0,0,1-19,14.55q11.39,39.24,40.5,62,2.54-5.07,5.69-6.33a17,17,0,0,0,5.7-3.8,152.66,152.66,0,0,0,14.55-22.14q5.68-10.76,12-10.76c0-3.38-1.49-4-4.44-1.9a8.59,8.59,0,0,1-9.48.63q-2.53,10.13-12,12.66a134,134,0,0,0-18.34,6.32q0-21.51,12-31t26-19.62a22.28,22.28,0,0,1,9.48-12c4.64-3,8.24-5.28,10.77-7Q1225,1191.93,1237.68,1194.46Zm-77.2-696.09a39.27,39.27,0,0,0-7.6-2.53q-5.06-1.26-6.33,2.53Q1158,506,1160.48,498.37Zm50.62,5.06q-8.86,0-13.3,5.07T1187.05,511a7.59,7.59,0,0,1-5.06,5.06,15.85,15.85,0,0,0-6.33,3.8q7.6,7.59,12,3.17c3-3,7-4.86,12-5.71q0-6.32,4.42-7T1211.1,503.43Zm53.16,792.28q-5.07-10.12,0-19t-1.27-12.66a94.39,94.39,0,0,1-8.86,10.13q-5.06,5.05-11.39,3.8-10.12,8.85-7,11.39t-.62,5.06q-10.12,7.59-11.39,8.86t-6.33,0q0,7.59-10.13,10.12,2.54,6.33-1.26,7.6a7.59,7.59,0,0,0-5.06,5.06q7.59,1.26,13.92-5.06t16.45-6.33q2.54-7.59,13.92-7.6c1.69-4.21,4.42-6.75,8.22-7.59A46.36,46.36,0,0,0,1264.26,1295.71Zm-29.11-769.5q-5.07-2.52-12,.64t-4.43,10.75q-15.18-1.26-13.92,3.8-6.33,13.92,0,10.13t11.39-1.27a28.79,28.79,0,0,1,8.22-12.66A92.26,92.26,0,0,0,1235.15,526.21Zm25.31,811.27q-6.33,3.8-5.7,14.56t-8.22,5.69q-5.07-13.92-5.71-10.75c-.42,2.11-2.31,2.31-5.68.62a141.29,141.29,0,0,0,11.39-19q5.06-10.12,6.33-17.72-5.07,12.66-13.3,13.92a66.54,66.54,0,0,0-14.55,3.8,37.16,37.16,0,0,1-10.76,9.5,18.22,18.22,0,0,0-8.22,9.48,130.55,130.55,0,0,0,9.48,10.77q4.44,4.43,7,13.28,12.66,5.07,19,15.19a85.31,85.31,0,0,0,16.45,19,232.94,232.94,0,0,1,2.53-35.43A107.45,107.45,0,0,0,1260.46,1337.48Zm-31.64-98.72q-7.59-2.54-11.39-.62a19.66,19.66,0,0,1-8.86,1.89q13.92,8.85,15.19,6.32c.84-1.68,2.11-1.68,3.79,0Zm5.06-729c-4.22.84-8,1.49-11.39,1.91s-5.48,3.15-6.33,8.22a51.25,51.25,0,0,1,7,.64c3,.42,5.28.2,7-.64Zm13.92,53.16q-10.12-2.53-13.29,2.53t-12,3.8a48.28,48.28,0,0,0-3.17,10.76q-.63,4.43-1.89,12a38.09,38.09,0,0,0,8.22-8.22q3.16-4.44,5.7-8.86a27.78,27.78,0,0,1,6.33-7.6A22.44,22.44,0,0,1,1247.8,562.92Zm36.71-41.77c-1.69-5.9-3.18-8.44-4.44-7.59s-4,.84-8.22,0a50.41,50.41,0,0,0-7.59,12.65,15.27,15.27,0,0,1-8.86,8.86q-11.4,1.27-13.92,1.27-1.27,6.33-5.71,8.23a14,14,0,0,0-7,7q10.13-2.53,15.81-2.53a61.73,61.73,0,0,0,12-1.27q8.86-7.59,10.75-14.55t9.5-4.43Zm-39.24,696.1q-1.26-2.54-6.33-6.33t-7.59,1.26c4.22,2.53,7.17,4,8.86,4.44A20.87,20.87,0,0,0,1245.27,1217.25ZM1263,497.1q-3.79-1.26-14.56,0t-10.75,11.4Q1254.14,504.69,1263,497.1ZM1247.8,637.59q-8.85,12.66-9.5,13.92a13.25,13.25,0,0,0-.62,5.06A11.35,11.35,0,0,0,1244,649,90,90,0,0,1,1247.8,637.59Zm17.72,589.78q-10.12,2.54-13.92,11.39a48,48,0,0,1-10.12,15.19q7.59-3.79,17.07-8.86T1265.52,1227.37ZM1263,602.15q-8.87-2.53-15.19,0t-3.79,7.6a67.09,67.09,0,0,1,13.28-1.27Q1264.25,608.48,1263,602.15Zm-3.8,105.05q-5.06,12.66-8.23,23.42t7,14.55Q1265.52,728.72,1259.19,707.2Zm1.27-41.77a34.58,34.58,0,0,0-8.86,16.46q-2.53,10.13,3.8,13.92,3.8-5.07,4.42-13.92T1260.46,665.43Zm3.8,527.77a22.9,22.9,0,0,0-10.13,1.9c-2.53,1.27-3,3.58-1.26,7a11.26,11.26,0,0,1,6.32-3.16C1261.73,1198.48,1263.41,1196.57,1264.26,1193.2Zm-8.86-429.05q7.59,1.27,5.06-5.69t-6.33-8.23ZM1325,499.64a28.6,28.6,0,0,0-19.63-.63q-9.5,3.17-13.28,8.22c3.38,1.69,6.53,1.91,9.48.64a33.3,33.3,0,0,0,8.24-5.06,23.65,23.65,0,0,1,7.59-4.44A8.39,8.39,0,0,1,1325,499.64Z"/></g></g></g></svg>