<svg xmlns="http://www.w3.org/2000/svg" viewBox="0 0 1763.5 1892.78"><defs><style>.cls-1{fill:#242b2c;}.cls-2{fill:#fff;}</style></defs><g id="Camada_2" data-name="Camada 2"><g id="IronNotes_Logos"><g id="LightMode"><path class="cls-1" d="M972.49,23.38l693.92,382.9a187.81,187.81,0,0,1,97.09,164.45v751.32a187.83,187.83,0,0,1-97.09,164.46l-693.92,382.9a187.81,187.81,0,0,1-181.49,0L97.09,1486.51A187.83,187.83,0,0,1,0,1322.05V570.73A187.81,187.81,0,0,1,97.09,406.28L791,23.38A187.81,187.81,0,0,1,972.49,23.38Z"/><path class="cls-2" d="M1453.17,510.26a245.87,245.87,0,0,1-45.58,8.23q-22.78,1.89-40.51,4.42a180,180,0,0,0-32.29,13.91,297.8,297.8,0,0,0-27.21,17.7,6.86,6.86,0,0,1,1.89,6.32,46.27,46.27,0,0,0-.63,7.59q-17.71,6.32-21.52,29.72t-1.27,42.35q-7.59,8.85-7,13.91c.42,3.37-.2,5.9-1.89,7.59q6.33,12.64,3.8,25.29a134.84,134.84,0,0,0-2.53,26.55q2.54,46.78,3.8,100.53a848.52,848.52,0,0,1-3.8,104.32q5.05,12.63,3.15,24t-4.42,21.5a435.29,435.29,0,0,1,1.89,49.95l-1.26,41.73-1.27,41.72a224.71,224.71,0,0,0,1.91,38.56c0,1.69,1,4.64,3.15,8.85s1.07,8-3.15,11.38q3.8,5.07,7.59,9.5a37.59,37.59,0,0,1,6.33,10.74q-6.33,17.7-7.59,26.55t2.53,12.64q-3.79,17.72-.64,47.43t-4.42,49.94q3.79,40.46,1.26,72.07t-5.06,68.28q-7.61,0-10.77,2.53t-9.49,2.53q-5.07-2.53-10.13-16.44-11.38-6.32-20.89-20.85t-12-24.67q-16.47-5.06-17.73-12.64T1186,1373.89q-6.33-10.11-11.4-12.64t-5.06-11.38l-24.06-24a202,202,0,0,0-24-20.23,20.67,20.67,0,0,0-6.33-15.17,35.38,35.38,0,0,0-13.93-8.85,36.8,36.8,0,0,1-12-3.8,32.58,32.58,0,0,1-7-5.06q-12.66-32.87-27.23-51.84t-29.74-40.46q-8.87-1.26-12-6.32a71.45,71.45,0,0,1-5.68-11.38,125.54,125.54,0,0,1-23.43-28.45q-9.5-15.79-19.62-29.72-13.92,2.54-19-5.06t0-13.91a32.7,32.7,0,0,0-6.33-6.94,33,33,0,0,1-6.33-7q-8.87-2.54-12-3.16c-2.11-.42-3.15-1.9-3.15-4.43q10.13-8.85,5.69-17.06A75.38,75.38,0,0,0,910,1030a47.21,47.21,0,0,0-11.39,1.26,10.68,10.68,0,0,1-8.87-1.26q-5.06-8.85-2.53-16.44t-3.8-19q-6.33-1.26-10.12,1.27t-10.13,0a16.42,16.42,0,0,1,0-12.65q2.53-6.31,5.06-11.38a44.75,44.75,0,0,0-14.57-18.32q-9.5-7-12-17.08c-1.68-1.69-4.22-2.73-7.59-3.16a20.29,20.29,0,0,1-8.86-3.16q2.52-16.44-8.24-21.5a42.91,42.91,0,0,1-17.08-13.91q1.26-13.9-7-13.27t-8.22-9.49a9.43,9.43,0,0,1-10.13,3.79,8.93,8.93,0,0,1-7.59-7.58c3.37-.85,5.69-1.89,6.95-3.16s4-1.9,8.24-1.9q-8.86-8.85-10.13-13.91a15.78,15.78,0,0,1,0-8.85q-15.19-1.26-24.69,8.23t-26,10.74q-1.26-15.18,6.33-19.6t19-1.9q-6.33-11.38-2.53-13.27c2.53-1.26,4.64-3.59,6.33-7q-7.59-3.79-17.1,1.26a32.37,32.37,0,0,1-19.62,3.8q1.28-12.65,4.43-18.33a48.89,48.89,0,0,1,8.24-10.76q-2.54-6.32-8.87-1.89t-10.13.63q-2.52-12.65,0-18.33t-3.79-12H688c0-5.9-.63-10.55-1.89-13.92a32.4,32.4,0,0,1-1.88-11.39q-10.05,1.26-15.72-1.27t-9.42-3.79c-1.68-1.69-1.26-4,1.25-7a14.39,14.39,0,0,0,3.78-9.5q-2.52-6.33-6.29-6.95a12.28,12.28,0,0,0-8.18,1.89,31.38,31.38,0,0,0-8.16,7q-3.78,4.42-6.29,5.69-6.29,7.59-6.92,21.51T625.15,767q5,12.66,4.4,17.72a10.14,10.14,0,0,1-4.4,7.6q2.52,7.59,2.52,12v10.75a14.82,14.82,0,0,1,3.13,10.76q-.63,5.7-1.25,10.75a82,82,0,0,0-.62,10.13,16.85,16.85,0,0,0,3.77,10.12q-6.29,2.54-5,7.6t-5,10.12q2.52,8.87,1.88,12a22.92,22.92,0,0,0,0,7.6,62.75,62.75,0,0,1,.63,8.86,11.5,11.5,0,0,1-3.77,8.22q2.52,2.52,5.65,9.5c2.1,4.64,1.48,8.21-1.88,10.75q3.78,11.38,1.26,13.92t-1.26,8.86q0,3.79,3.14,9.5c2.09,3.79,1.06,6.11-3.14,7a133.38,133.38,0,0,0-2.51,25.95,43.37,43.37,0,0,1-6.29,23.41q-2.51,20.25-3.15,37.34t-3.13,38.6q3.76,6.33,3.13,9.5a10.93,10.93,0,0,1-3.13,5.68q2.52,39.24,3.13,76.58a555.74,555.74,0,0,0,5.67,71.5q10.05,6.33,11.93,13.92a29.94,29.94,0,0,0,8.18,13.93q3.78,15.18,4.4,20.89a111.62,111.62,0,0,1,.63,12l6.29,6.33q3.76,3.8,3.77,10.13a134,134,0,0,0,34.56,43.67,106.85,106.85,0,0,0,50.92,23.4q2.52,10.13,13.83,8.24t18.86,4.42q0,11.38,1.26,16.45-6.29,7.61-20.12,7.6t-20.11-6.33q-22.63-7.59-33.32-1.27t-20.74,12.66c-2.51-.84-5-3.17-7.54-6.95s-4.61-5.71-6.29-5.71a52.59,52.59,0,0,1-16.34,0q-8.81-1.26-18.86-2.53a83.73,83.73,0,0,0-22.63,3.17q-11.31,3.17-17.6,3.16t-10.05-2.53q-3.78-2.54-8.8,2.53-11.33-6.33-22.63-1.89t-18.86-.64q-2.5,6.33-10.06,4.44t-7.54,3.15q-17.6,0-25.14,2.53T473,1440.27q-17.6,6.33-39.61,5.06a248.33,248.33,0,0,0-43.36,1.26c.84-4.21-.2-6.95-3.15-8.21s-4.81-4-5.65-8.24c6.7-1.69,13.63-3.8,20.73-6.33s14.05-4.64,20.75-6.32a157.5,157.5,0,0,1,42.11-1.9,103.47,103.47,0,0,0,38.35-3.17q7.55-1.26,17-7.59a115.57,115.57,0,0,0,17.6-14.55,103.31,103.31,0,0,0,14.46-18.36,70.94,70.94,0,0,0,8.8-20.25q1.26-16.45,4.39-20.87a27.73,27.73,0,0,0,4.41-10.77,157.66,157.66,0,0,0,6.91-31.64q1.88-16.46,4.4-31.64a166.87,166.87,0,0,0,2.52-29.73v-27.54s1.37-38.39,2.21-57-1.21-55.69-1.21-55.69V1073a231.49,231.49,0,0,0,0-34.14q-1.27-16.44-2.53-30.35-1.27-41.73,0-85.34T580.87,839q-1.26-32.87-.64-67.64t-9.49-62.6a268.68,268.68,0,0,0,.63-32.87,258.07,258.07,0,0,0-4.43-39.2q-12.66-6.33-10.76-10.12c1.26-2.52,2.75-5.48,4.43-8.85q0-5.06-2.53-6.94a9.26,9.26,0,0,0-5.7-1.91h-6.33a4.53,4.53,0,0,1-4.43-2.53q3.81-20.22.63-25.29A42.92,42.92,0,0,0,534,571.6,79.5,79.5,0,0,0,523.9,564a13.39,13.39,0,0,1-6.33-8.23q-13.94-1.26-17.1-6.94T491,545.67q-3.8-7.59-13.92-10.74a150,150,0,0,0-23.43-5.06L427,526.08a92.9,92.9,0,0,1-24.68-7c.84-4.21.22-7.36-1.91-9.47s-2.73-5.28-1.89-9.49q44.31-1.27,85.45-3.8a319.08,319.08,0,0,1,80.4,5.06q6.33-3.8,15.82-3.79t15.83-5.06A59.53,59.53,0,0,0,616.32,497a212.54,212.54,0,0,0,23.41,0q12-.63,24.06-.64a62.68,62.68,0,0,1,22.16,3.8q17.73-6.33,25.32,1.26,6.33,15.18,14.55,19.61t10.77,17.06l27.86,30.35A91.58,91.58,0,0,1,784.7,605.1c6.76-.84,10.33,1.9,10.76,8.23s4,9.47,10.77,9.47q-3.81,7.59,2.53,12.65t3.8,11.38c4.22-1.69,7-2.74,8.22-3.16s4,.21,8.23,1.89c.85,3.37.63,5.9-.64,7.59s-2.73,3.79-4.42,6.32a239,239,0,0,0,16.46,19.61,82.14,82.14,0,0,0,20.26,15.8q12.66-2.53,16.45,2.52-5.05,15.18-1.9,17.08a29.54,29.54,0,0,1,5.7,4.42q6.33,0,9.49-3.79t9.5,0c0,5-.22,8.22-.64,9.49s-1.89,3.15-4.42,5.68q3.79,13.9,14.55,20.87t12,18.33a28.7,28.7,0,0,1,12.67,8.23,79.82,79.82,0,0,1,8.86,12q3.79,6.31,8.22,12.64t13.3,8.86c-2.53,5-1.69,9.07,2.53,12s5.07,6.52,2.53,10.74q13.94,6.31,15.2,10.11a8.37,8.37,0,0,1-1.27,7.59,95.19,95.19,0,0,0,12.66,20.87,81.6,81.6,0,0,1,12.66,23.38,23.22,23.22,0,0,1,9.49,11.38q3.16,7.59-.63,13.91,5.07-2.52,9.49,1.91a107.32,107.32,0,0,1,8.86,10.11,72.52,72.52,0,0,0,9.51,10.12,18.52,18.52,0,0,0,12.66,4.42q5.05,17.7,8.22,22.76T1086,981.91a14.49,14.49,0,0,0,4.42,13.28q5.7,5.7,7,8.21,0,7.59,5.07,8.86a43,43,0,0,1,11.39,5q10.13,24,25.32,39.84a342,342,0,0,1,29.12,34.77q12.66-2.54,17.73,2.53a31.65,31.65,0,0,0,12.66,7.58,115.42,115.42,0,0,0-5.07,12q-2.54,7-10.13,4.42,8.87,5.05,12.67,9.49t6.33,15.8q13.92-2.54,20.88,9.49a74.79,74.79,0,0,0,15.83,19.59q13.92-21.49,12.66-41.73-6.33-29.07-1.27-53.73a260.26,260.26,0,0,0,5.07-52.48V985.7q0-21.5-1.27-43a97.22,97.22,0,0,1,0-22.12,72.29,72.29,0,0,0-1.26-23.4q-2.54-8.85-1.27-23.39a146.82,146.82,0,0,0,0-27.19q-2.53-13.9-5.7-27.18t-5.69-27.19q-5.07-32.88-8.24-65.75a264.51,264.51,0,0,0-13.29-62,159.26,159.26,0,0,1-8.23-31.61,35.57,35.57,0,0,0-12-22.76q-6.33,1.26-13.3,2.53t-10.76-2.53q2.53-8.85,5.69-18.33t-4.42-14.55a24,24,0,0,0-7.6,1.26,27.84,27.84,0,0,1-8.86,1.27q-5.07-5.05-5.06-8.85t2.53-10.12q-3.8-10.11-13.93-17.7a187.77,187.77,0,0,0-21.52-13.91q-17.73-10.11-23.43-9.48a18.77,18.77,0,0,1-10.75-1.9q-19-10.11-32.3-8.21a231.66,231.66,0,0,0-23.41,4.42q-8.86-12.64-7.6-15.18t-1.26-8.85a33.19,33.19,0,0,1,28.48-6.94,178.71,178.71,0,0,0,34.82,3.15,378.51,378.51,0,0,0,55.71,5.7q26.58.63,53.17,1.89,29.11-8.86,56.33-5.69a341.14,341.14,0,0,0,55.08,1.89q13.92-1.26,29.74-1.89a121.77,121.77,0,0,1,28.5,1.89q11.39,6.33,16.46,3.8a20.35,20.35,0,0,1,8.86-2.53q13.92,0,31,.64a103.31,103.31,0,0,0,31-3.17q6.33,3.8,6.33,10.11A15.68,15.68,0,0,1,1453.17,510.26ZM509.94,528.7q-6.31-5.06-8.86-8.86c-1.68-2.53-4.64-3.79-8.85-3.79q1.26,6.33,7.59,7A13.84,13.84,0,0,1,509.94,528.7Zm39.24-8.86q-12.66,5.07-19,6.33t-10.12,7.6q12.66-5.07,19.61-6.33A11.86,11.86,0,0,0,549.18,519.84Zm81-1.26a92,92,0,0,0-39.24,20.25q-2.52-7.59,3.8-10.13t7.59-11.39a140.86,140.86,0,0,0-20.89,1.27q-8.22,1.26-20.87,3.8c0,3.37-1.27,5.7-3.8,7a26.86,26.86,0,0,1-8.23,2.54,20,20,0,0,0-7.6,2.53c-2.11,1.26-2.73,4-1.89,8.22q1.28,7.59,2.53,13.92,8.86,3.8,12,1.9a31,31,0,0,1,8.23-3.17q12.66,6.33,20.25-3.15t24-9.5q2.54-10.12,10.75-13.29A27.62,27.62,0,0,0,630.18,518.58Zm134.15,83.66a37.22,37.22,0,0,0-7.59-9.49q-3.79-3.16-3.8-10.76-10.12-3.81-15.82-10.75A95.37,95.37,0,0,1,727,556.05a125.44,125.44,0,0,0-10.12-15.83,37.65,37.65,0,0,0-13.29-11.39c-4.21,3.37-7.39,5.06-9.5,5.06H684.6q-13.92,13.92-25.31,20.89A236.23,236.23,0,0,1,634,568.06q-10.12,19-32.91,24.05,0-12.66,13.92-12.66,7.59-11.38,11.39-11.39t3.8-3.79q5.05-11.4,12.65-16.46A118.09,118.09,0,0,1,658.65,539q8.22-3.8,16.45-8.21A95.83,95.83,0,0,0,690.93,520,124.19,124.19,0,0,0,677,518.08q-7.6-.63-15.19-.64-24,13.92-47.47,30.37T566.9,580.72q8.85,6.33,14.54,1.27t13.3-1.27a33.94,33.94,0,0,0-8.86,6.33,33.78,33.78,0,0,1-8.86,6.33c.85,4.21.85,7.39,0,9.5s-.42,4.42,1.27,7q8.85-8.87,9.48-8.86a26,26,0,0,1,4.44,1.27q20.25-6.33,29.11-14.55t25.31-10.77a37.29,37.29,0,0,1,10.13-12.65,26.66,26.66,0,0,0,10.75-2.53q5.68-2.54,10.12-4.43a22.44,22.44,0,0,1,8.86-1.9q4.43,0,7,6.33a174.87,174.87,0,0,1-44.3,36.07,126.3,126.3,0,0,0-41.76,38.6q16.46-2.53,25.93-13.92t23.43-11.4q5.06-12.65,13.92-12.65,0-10.12,15.19-7.6,6.32-6.32,20.87-12.65t23.42-3.8q-5.05,12.66-15.83,18.36a44.06,44.06,0,0,0-17.07,15.81q-11.4,1.28-8.86,4.44t-2.53,4.42q-7.61-2.52-10.77,0a27.77,27.77,0,0,0-5.69,6.33,12,12,0,0,1-10.12,5.06q-6.33,0-3.8,8.86-6.33,0-9.5,3.8a23.35,23.35,0,0,1-9.48,6.33q-1.28,6.33,1.89,8.86c2.11,1.68,2.33,3.37.64,5.06q13.92,2.53,20.87-6.33t18.36-7.59q15.19-7.59,24.05-16.46t22.78-13.92a71.33,71.33,0,0,1,22.14-8.22Q758,607.31,764.33,602.24ZM649.16,584.39Q632.71,594.52,615,604.64T587.15,630q10.13,5.07,13.92-1.89t6.33-9.5a15.81,15.81,0,0,1,6.33-3.79,15.86,15.86,0,0,0,6.32-3.8q12.66-11.38,12.66-12.66c0-.84.84-2.11,2.53-3.79a71,71,0,0,1,7.59-4.43A16.2,16.2,0,0,0,649.16,584.39ZM639,1343.77q-13.92-12.66-19-24.68T615,1289.34q-5.06-2.52-7-6.32t-4.42-8.86a49.66,49.66,0,0,0-3.8,10.12,18.72,18.72,0,0,1-5.06,8.86q5.07,3.79,2.53,10.77c-1.69,4.64-3.37,7.79-5.06,9.48,2.53,1.69,4.84,3.17,6.95,4.44a11.07,11.07,0,0,1,4.44,4.42q10.13-3.8,12-2.53c1.26.84,1.9,3,1.9,6.33q-2.53,3.79-5.06,7a46.11,46.11,0,0,0-5.06,8.21q8.85-5.06,17.72.65T639,1343.77Zm-31.64-567q-5.07-24.06-.64-41.77t-1.89-39.23c-5.07.84-8.24,2.75-9.5,5.7a21.6,21.6,0,0,0-1.27,10.75q.63,6.33,1.91,12.66a58.79,58.79,0,0,1,1.26,11.39q1.28,15.18,1.27,17.71T596,764.11a20.5,20.5,0,0,0,.62,11.39,12.21,12.21,0,0,1-.62,10.13q7.59-10.12,8.22-8.22C604.65,778.67,605.71,778.45,607.4,776.77Zm0-205A7.72,7.72,0,0,1,603,576.8a38.84,38.84,0,0,0-7,3.79,29.49,29.49,0,0,1,5.68-4.42A29.31,29.31,0,0,0,607.4,571.73Zm2.53,222.75q-3.79,0-7.6-5.06t-6.32,0q7.59,11.4,8.22,12.66t4.43,0Zm3.8,35.44q-5.07,0-6.33-3.79c-.85-2.54-3-3.8-6.33-3.8q-6.33,24,5.06,38c.85-8.44,1.89-14.77,3.16-19A70.62,70.62,0,0,1,613.73,829.92Zm32.9,534.1q0-8.87-4.44-12a50.65,50.65,0,0,0-10.75-5.7c.85,10.12.21,15.83-1.9,17.09a34.86,34.86,0,0,1-7,3.16q-3.8,1.26-7,2.53t-1.89,5.06q7.59,1.26,10.75-.62c2.1-1.27,5.28-.64,9.5,1.89q1.26-11.4,5.68-10.75C642.62,1365.08,644.94,1364.86,646.63,1364Zm12.66-745.46q-11.4-3.79-21.52,7a252.11,252.11,0,0,1-19,18.35q6.33,3.79,10.12.64a25.23,25.23,0,0,0,6.33-8.24,19.27,19.27,0,0,0,10.13-5.06,83,83,0,0,0,7.59-8.86ZM642.83,692q-1.26-6.33-5.06-9.49t-10.12-.64c.84,3.38.62,5.91-.64,7.6s-1,4.64.64,8.86q5.05,0,7.59-1.89A52.09,52.09,0,0,1,642.83,692Zm29.11,705q-5.06-12.66-17.09-7T639,1403.25q7.59,5.07,17.72,1.91T671.94,1396.92ZM815,685.64a51.42,51.42,0,0,1-1.91-7.59c-.42-2.53-2.73-3.8-6.95-3.8q-12.66,8.87-16.45,6.33t-5.07,3.8L771.93,694.5q-6.33,5.07-12.66,2.53c.85-4.22,2.31-7.17,4.42-8.86s4.86-1.26,8.24,1.27q8.85-6.33,11.39-13.28t15.19-4.44q-7.6-11.38-8.86-7.59t-7.6,2.53c-.84-3.38-.64-5.69.63-7a15,15,0,0,1,5.06-3.17,14.79,14.79,0,0,0,5.06-3.15c1.27-1.27,1.49-3.6.64-7q-6.32-2.53-11.39,0a22.54,22.54,0,0,1-10.12,2.53q1.26,2.53-1.91,3.17a58.49,58.49,0,0,0-6.95,1.89,15.85,15.85,0,0,0-6.33,3.8c-1.69,1.68-1.69,4.22,0,7.59q-6.33-3.79-7.59-5.69c-.85-1.26-.85-4,0-8.23a17.15,17.15,0,0,0-12,1.91q-5.7,3.15-8.22-.65,7.59-1.26,11.39-7t15.19-3.17q13.92-12.66,17.71-15.19t1.27-10.12q-25.32,6.33-39.23,17.72t-31.65,25.31q-2.52-11.4,1.27-15.19t8.86,1.27c-.84-7.6-1.91-12.24-3.17-13.93s-3.16-2.1-5.69-1.26q-3.79,7.59-8.23,9.5a56,56,0,0,1-10.75,3.16,9,9,0,0,1-7.6,7.59,64.68,64.68,0,0,1-12.65,1.26c0,3.38-.85,5.71-2.54,7a24.32,24.32,0,0,1-5.7,3.16,14.82,14.82,0,0,0-5.06,3.17c-1.27,1.27-1.47,3.58-.63,7q11.4,2.53,20.25-4.42t16.46-13.29a68.13,68.13,0,0,0-3.8,21.51q-3.79-2.53-9.5,0a11.59,11.59,0,0,0-7,8.86q7.59,10.13,10.12,16.45a74.28,74.28,0,0,0,12-.62c2.11-.42,5.28.2,9.5,1.89q6.33-17.72,12.65-19.61a13.28,13.28,0,0,0,8.86-8.23q7.61-6.33,12.66-10.13,7.59,6.33,3.8,10.77t-13.93,3.15A70.18,70.18,0,0,1,708,697a70.18,70.18,0,0,0-15.82,17.72,84,84,0,0,1,8.86-7.59q5.07-3.79,8.86,2.53a11.58,11.58,0,0,0-6.33,8.23c-.84,3.8-2.1,6.53-3.79,8.22q12.66,1.26,17.72-2.53t12.65-1.27q2.54-10.12,7.6-12.65,0,8.85-1.27,12.65c-.84,2.54-3.37,4.22-7.59,5.07q-10.12,0-10.13,10.12,8.87,3.79,13.92.64t7.6-.64c-5.06.85-8.66,3-10.77,6.33a71.58,71.58,0,0,0-5.69,11.39q11.4,0,15.82-8.22t13.29-7q-3.8-6.33-7.59-5.06t-5.06-1.27a7.51,7.51,0,0,1,8.22-4.42,7.53,7.53,0,0,0,8.23-4.43q7.59-5.07,8.22-2.54c.42,1.69,2.33,2.11,5.7,1.27q5.07-16.46,12.66-16.45Q792.19,689.43,815,685.64ZM674.48,607.17a35.08,35.08,0,0,1-8.24,3.17,5.9,5.9,0,0,0-4.42,3.16q6.33-2.54,10.12-2.53C674.48,611,675.32,609.7,674.48,607.17Zm20.25-12.65-12.66,10.12q10.13-5.05,12-6.33C695.35,597.47,695.57,596.2,694.73,594.52ZM913.68,788.16c0-5.07-1.91-8.22-5.7-9.49s-7.8-2.75-12-4.44a159.07,159.07,0,0,0-22.78,17.1q-8.86,8.22-22.78,14.55c0-7.6.62-11,1.89-10.13s2.33-.42,3.17-3.8c6.75-2.53,10.55-3.15,11.39-1.89s1.69,1.05,2.53-.64c-.84-4.22.85-7.79,5.06-10.75A33.69,33.69,0,0,1,887.1,773q-5.05-12.66-7.59-8.22t-5.07-1.91q7.6-12.65,5.69-14.54a17,17,0,0,1-3.15-4.44q-20.25-6.33-27.85.64a18.2,18.2,0,0,1-17.72,4.42,32.59,32.59,0,0,0-9.5,12q-3.17,7-9.48,1.89-2.53,7.6-8.24,10.13a113.12,113.12,0,0,0-12,6.33q7.59-6.33,6.33-15.19a51.94,51.94,0,0,0,19-10.75q7.59-7,20.25-10.77c0-2.53.84-4.21,2.53-5.06a22.64,22.64,0,0,1,5.69-1.89,22.21,22.21,0,0,0,5.7-1.91q2.54-1.26,2.53-6.32-15.18,0-16.45,1.9a4.24,4.24,0,0,1-3.8,1.89,6.08,6.08,0,0,0-5.06-4.42,23,23,0,0,0-7.59,0,19.4,19.4,0,0,1-7,0q-3.17-.63-3.16-4.44,6.33,1.27,9.49-.62c2.11-1.27,4.86-1.49,8.23-.64q1.27-6.33,3.8-9.49a46.94,46.94,0,0,0,5.06-8.23q-10.12-7.59-25.31-1.27-1.27,11.4-11.39,11.39t-13.92,8.86q-10.12,6.33-15.83,10.77a42.39,42.39,0,0,1-14.55,6.95q-8.87,12.66-16.45,11.39A133.16,133.16,0,0,0,739,766.64a8.42,8.42,0,0,0,7.6-1.26c2.53-1.69,4.64-3.16,6.32-4.43a8.47,8.47,0,0,1,5.07-1.9q2.52,0,5.06,3.79l-11.39,7.6q-3.79,2.53,0,7.59,10.13,1.28,15.19-7.59t11.39-6.33q1.26-8.86,12.65-7.59,0-6.33,4.42-7.6t9.5-2.53q1.27-8.86,10.13-13.92t16.45,1.26a184.76,184.76,0,0,0-25.95,17.1,153.43,153.43,0,0,0-23.41,23.4q-2.52,3.81-.64,9.5t-3.15,5.69q-7.6-8.85-8.24-11.39c-.42-1.69-2.31-2.11-5.69-1.26,0,4.21,1.47,6.54,4.43,7a9.75,9.75,0,0,1,7,4.43q-2.54,5.05-6.33,7t-5.07,8.21a42,42,0,0,0,25.94-.62q13.29-4.43,23.42-3.17a23.05,23.05,0,0,1-8.23,7,93.29,93.29,0,0,0-10.75,7,15.92,15.92,0,0,0-6.33,8.86q-1.26,5.05,3.8,12.65,10.13,0,14.55-5.06a27.85,27.85,0,0,1,10.76-7.59c0,7.59-1.06,11.61-3.17,12s-2.31,2.73-.63,6.95q5.07,13.92.63,18.36c-3,3-3.58,6.53-1.89,10.75,4.22,0,7-1,8.22-3.15s4-2.33,8.23-.64q12.66-16.46,26.58-26.58L883.3,819.8q-2.52-8.87-5.7-2.53t-12,2.53q-11.39,8.85-16.45,11.39T839,827.39a33.55,33.55,0,0,0,13.28-8.22c3.79-3.79,7.81-4.86,12-3.17q2.53-6.33,9.48-10.75t12,1.89q0-10.12,10.75-12T913.68,788.16ZM758,698.3q-11.4,8.85-12.66,10.12t-5.06,0a38.84,38.84,0,0,0,6.33-8.22Q749.14,695.78,758,698.3Zm78.47,89.86-10.13,5.06q-5.05,2.53-11.39,5.06-3.8-8.85-7-5.69t-10.75.63l7.59-5.06A56.47,56.47,0,0,1,815,783.09q-5.07-3.8,3.16-7.59t10.76,1.27Zm11.39,17.72q-13.93,0-15.19,3.17c-.85,2.11-2.95,3.15-6.33,3.15q0,10.13-3.17,13.3c-2.11,2.11-2.31,4-.63,5.69q10.13,7.59,13.93,8.86c2.53.84,4.21,0,5.06-2.53q-10.12-12.66-7.6-13.93A19.91,19.91,0,0,0,839,819.8,135,135,0,0,1,847.87,805.88Zm15.18,57q-7.59-3.8-7.59-7c0-2.11-.84-3.18-2.53-3.18q-3.79,6.33-7.6,13.93t-16.45,1.26q15.2,7.59,20.25,2.53T863.05,862.83Zm-8.86-109.94q1.27,6.33-1.26,8.86a16,16,0,0,1-6.33,3.8L839,768.08q-3.79,1.26-3.8,6.33,10.13-7.6,15.19-21.52Zm-1.26,26.41q-1.27,6.33-5.7,5.7a31.23,31.23,0,0,1-9.49-3.17c1.69-1.69,4.22-2.31,7.59-1.89S851.24,780.14,852.93,779.3Zm60.75,73.4q-5.07-6.33-10.77-5.68a31.6,31.6,0,0,0-10.75,3.15,125,125,0,0,0-24,19.63,125,125,0,0,1-24,19.61c6.75,1.68,13.28.22,19.61-4.43a154.34,154.34,0,0,1,22.15-13.29q7.6-8.87,12.66-13.92T913.68,852.7Zm-39.24-88.59q-8.85,3.79-15.82,3.17t-9.49,8.22q13.92-2.54,17.72-3.8T874.44,764.11ZM971.9,874.22q-3.79-6.33-8.24-7a13.58,13.58,0,0,0-8.86,1.89,58.84,58.84,0,0,0-9.48,7,24.67,24.67,0,0,1-10.13,5.68q-3.8-7.59,3.16-10.75a17.27,17.27,0,0,0,9.5-10.76q-2.54-2.53-7,.64t-7-1.91q-5.07,2.54-1.91,0a21.35,21.35,0,0,1,8.24-3.8,62.72,62.72,0,0,0,9.48-3.15,9.67,9.67,0,0,0,5.7-7q-15.18,0-24,3.8a30.83,30.83,0,0,0-13.92,11.39A24.54,24.54,0,0,0,920,866c.84,1.27.84,4,0,8.22q-10.12,6.33-12.66,6.33a11.15,11.15,0,0,1-5.06-1.27q-8.87,8.87-12.66,14.56a31.19,31.19,0,0,1-10.12,9.49l-11.39,3.8q-3.81,1.26-1.27,7.59a8.59,8.59,0,0,1-6.33,2.53q-3.79,0-6.33,3.8,15.19,8.85,19.61,1.26a21.67,21.67,0,0,1,13.3-10.12q0,10.13-2.53,11.39t-1.27,7.59q12.66-6.33,15.19-6.95a24.09,24.09,0,0,0,5.06-1.91,116.25,116.25,0,0,1-12,14.57,146.33,146.33,0,0,1-12,10.75q10.13,7.59,15.81,4.43t10.76-.64a50.76,50.76,0,0,0,4.43-8.22,9.63,9.63,0,0,1,7-5.7q17.71-13.92,24-21.52a80.63,80.63,0,0,1,15.19-13.92q-12.66-2.52-13.3-2.53c-.42,0-.62-.42-.62-1.26a15.88,15.88,0,0,0,8.22-1.89,29.63,29.63,0,0,0,5.7-4.44q11.38-7.59,13.28-10.13C971.26,880.13,971.9,877.59,971.9,874.22Zm-40.5-65.81a146.44,146.44,0,0,0-27.22,12,82.25,82.25,0,0,0-20.88,17.08q-6.33,6.32-21.51,8.86,19,5.05,32.26-7t33.55-17.09a49.38,49.38,0,0,1,2.53-6.33Q931.41,813.46,931.4,808.41ZM902.29,912.19q-12.66,5.05-13.3,1.9a22.72,22.72,0,0,0-1.89-5.7,27.81,27.81,0,0,1,6.33,5.7Q896,917.26,902.29,912.19Zm13.92-48.1q-6.33-2.52-9.5,1.91T901,874.22q6.33,3.79,9.49-1.89A38.45,38.45,0,0,1,916.21,864.09Zm12.66,29.11q-10.12,1.27-15.19,6.33a138.71,138.71,0,0,0-10.13,11.39q-2.52-8.85,1.27-10.12t8.86-2.53c0-5.07,1.05-8.22,3.15-9.49a31,31,0,0,1,9.5-3.17Zm63.28,53.16q-7.6-10.12-9.5-12a3.51,3.51,0,0,0-4.42-.64q-1.28,6.33-6.33,7a85.81,85.81,0,0,0-10.13,1.89,68.28,68.28,0,0,1-13.92,10.77,68.18,68.18,0,0,0-13.92,10.75q-12.66,6.33-14.56,7.59c-1.27.85-2.74.42-4.43-1.26q2.53,6.33-3.79,5.7t-7.6,5.69c2.53.84,3.8,2.75,3.8,5.7s1.69,5.27,5.06,7q6.33-7.59,13.92-5.68a17.75,17.75,0,0,0,13.93-1.91q-7.6-7.59-3.18-11.39t14.57-5.06c-.85-3.38-.42-6.11,1.26-8.22a28.43,28.43,0,0,1,5.07-5.06,62.87,62.87,0,0,1,5.68-3.8,10.13,10.13,0,0,0,4.44-5.7q6.33-2.53,16.45,2.53Zm-45.57-2.53c-3.37-5.06-5.7-7.6-7-7.6s-3.16-.84-5.69-2.53q-2.53,11.4-7,13.3t.64,7a45.09,45.09,0,0,0,8.86-5.68A22.39,22.39,0,0,1,946.58,943.83Zm86.07,19a37.21,37.21,0,0,0-21.52,1.27,28.33,28.33,0,0,0-15.19,12.65A351.4,351.4,0,0,1,956.71,997q-17.72,7.6-29.11,25.32,6.33,0,9.48,4.43c2.11,3,4.44,6.11,7,9.49a153,153,0,0,0,11.39-12.66,43,43,0,0,1,11.39-10.12,14.53,14.53,0,0,1,8.22-2.53,14.62,14.62,0,0,0,8.24-2.53,67.07,67.07,0,0,0,19.61-16.46,67,67,0,0,1,19.62-16.45q5.07-5.07,7.6-5.69C1031.8,969.36,1032.65,967,1032.65,962.81Zm-40.5-60.75c-5.07-.84-9.28-.2-12.66,1.91a49.91,49.91,0,0,0-8.86,6.95A108.11,108.11,0,0,0,958,921.05q-3.81,3.8-6.33,12.65a14.16,14.16,0,0,0,6.33-1.26q2.52-1.28,7.59,0a11.61,11.61,0,0,1,6.95-8.86q5.7-2.54,11.39-4.42a19.08,19.08,0,0,0,8.86-5.71Q995.94,909.66,992.15,902.06Zm30.37,49.36q-2.53-13.92-13.29-10.75T994.68,954q-10.12,0-15.19,7a34.45,34.45,0,0,1-12.66,10.75q-6.32,2.54-10.12,4.44c-2.53,1.27-3,4.42-1.27,9.48a323,323,0,0,0,32.27-18.34Q1002.26,957.75,1022.52,951.42Zm39.24,49.36q-8.87-8.85-13.3-2.53t-9.48,0a38.49,38.49,0,0,1,16.45-11.39q-1.28-11.39-10.13-15.19a10.17,10.17,0,0,0-5.7,4.44c-1.27,2.11-4,2.73-8.22,1.89q-8.85,13.92-17.72,21.52t-17.72,7.59q-3.8,13.92-7,12a30.87,30.87,0,0,0-9.49-3.17q-5.06,11.38-6.33,13.92a43.47,43.47,0,0,1-11.39,7q-5.06,1.91-3.79,7,1.26,2.54,8.21.64t5.71,4.43q-6.33,0-8.24,5.06a15.15,15.15,0,0,1-5.68,7.59q11.38,8.87,13.28,8.86c1.26,0,2.32-.84,3.17-2.53-.85-1.69.62-2.95,4.42-3.8a38,38,0,0,0,8.23-2.53q7.6-8.85,11.4-13.92,13.92-2.53,16.45-8.22t10.12-12q11.4-12.66,19-17.08T1061.76,1000.78Zm29.11,39.24q-8.86-13.93-14.57-8.22t-13.28.62a65.36,65.36,0,0,1,8.22-7A27.69,27.69,0,0,1,1082,1021c.84-3.37.62-5.69-.64-6.95a41.51,41.51,0,0,0-4.43-3.8c-1.68-1.26-3.17-2.33-4.43-3.17s-1.47-2.11-.63-3.8q-10.12,10.13-14.56,11.39t-9.49,2.53q-12.64,10.13-10.76,15.83t8.23,4.42c.85-4.21,3.58-6.53,8.22-7s7.39.63,8.24,3.16q-10.12,12.66-14.57,15.19t-12,2.53q2.53,5.05-1.27,8.23c-2.53,2.11-5.9,2.31-10.12.63q-12.66,5.06-12.66,12.65A52.42,52.42,0,0,0,994,1083.05a173.52,173.52,0,0,1-15.81,12.65,49,49,0,0,0,6.32,8.86q2.54,2.54,0,7.6a59.77,59.77,0,0,1,13.93-1.27q2.52-6.33,5.06-7.59t12.65-1.27q2.53-15.18,6.33-11.39t6.33,0q2.54-7.59,5.69-11.39a32.84,32.84,0,0,1,7-6.33q12.65-5.06,17.07-3.15t4.44-4.44q7.59-12.66,7.6-12c0,.42.84.63,2.53.63,4.22-5.91,7.79-9.28,10.75-10.13A15.84,15.84,0,0,0,1090.87,1040Zm69.61,79.73q-2.54-11.38-12-8.22t-14.54-3.17q12.64-10.12,6.95-16.45a18.69,18.69,0,0,0-14.55-6.33q-15.18,6.33-17.72,5.7c-1.68-.42-2.53-1.9-2.53-4.44a50.15,50.15,0,0,0,15.19-17.71c-3.37-2.54-6.33-2.74-8.86-.63s-4.64,1.47-6.33-1.91q-15.18,5.07-18.36,11.39c-2.11,4.22-5.68,4.65-10.75,1.27a150.73,150.73,0,0,1-19,18.36q-8.87,7-16.45,8.22a36.43,36.43,0,0,1-16.46,14.56q-10.12,4.42-13.92,15.81,5.07,6.33,8.86,11.39t13.92,2.54a29.15,29.15,0,0,0,3.8-8.22q1.26-4.44,6.33-1.91-1.27-3.8,3.15-11.39t10.77-3.8a53.6,53.6,0,0,1,15.81-16.45q9.49-6.33,23.42-7.59c3.38-4.22,6.11-6.11,8.22-5.69a11.09,11.09,0,0,1,5.71,3.15q-20.25,11.4-25.32,19.63t-16.45,7q-13.92,5.07-19,15.19,6.32,13.92,7.59,10.77t7.59-.64a49.21,49.21,0,0,1,11.39-6.33q6.33-2.54,5.07,3.79a8.21,8.21,0,0,0-8.24-.62,9.48,9.48,0,0,0-5.69,5.69q-8.85,3.79-12,10.12t-12,7.6q6.33,10.13,10.75,17.71t14.56,13.93a112.93,112.93,0,0,0,19-18.35,97.49,97.49,0,0,1,17.72-17.09,15.76,15.76,0,0,1,7-3.8,29.08,29.08,0,0,0,8.23-3.8q6.33-5.06,12-14.54t18.36-8.24Q1149.09,1126.08,1160.48,1119.75Zm-122.77-116.44q-2.54,3.8-5.7,8.24t-9.49,4.42q6.33-7.59,7.6-10.75T1037.71,1003.31Zm69.61,49.36q-12.66,5.07-20.25-1.26a87.34,87.34,0,0,1-2.53,10.12q-1.27,3.79-7.6,1.27,2.54,3.79,14.55,1.9T1107.32,1052.67Zm-6.33,74.67q-8.87,6.33-10.12,9.5t-6.33,3.16q-3.8-7.59,5.06-8.22T1101,1127.34Zm92.39,35.44q-11.39-1.26-17.09,4.44a146.27,146.27,0,0,1-12,10.75q-3.8-6.33-7-1.27c-2.11,3.38-4.84,3.8-8.22,1.27a98.28,98.28,0,0,1-13.29,13.3q-8.24,7-18.35,4.42-6.32,11.38-16.45,15.83a39,39,0,0,0-16.45,13.28,16.35,16.35,0,0,0,6.33,5.7c2.53,1.27,3.37,4.42,2.53,9.48q11.38,10.13,25.31-1.89t27.84-17.09q3.79-12.66,10.75-20.25t15.83-1.27a11.22,11.22,0,0,1,3.16-10.75q4.43-4.43,8.86-8.23t8.23-7.59Q1197.18,1169.12,1193.38,1162.78Zm-67.08-38q-10.12-2.52-12-.62t-7,3.15q-2.53-5.05,0-6.95a10.31,10.31,0,0,1,6.33-1.91,35.64,35.64,0,0,0,6.95-.62c2.11-.42,3.59-1.91,4.44-4.44Zm60.75,21.52c-.84-4.22-2.75-6.53-5.7-6.95a11.9,11.9,0,0,1-6.95-3.18q-13.92,3.79-21.52,13.3t-21.51,9.48q1.26,12.66-7,15.19a34.81,34.81,0,0,0-14.55,8.86q12.66,2.54,15.81-3.8t13.3-6.32q6.33-12.66,21.52-15.82A75,75,0,0,0,1187.05,1146.33Zm50.63,65.81c0-3.37-1.91-6.11-5.7-8.22a30.79,30.79,0,0,0-12-3.79,21.71,21.71,0,0,0-10.77,1.26c-3,1.27-4,3.16-3.15,5.69q-7.59-3.8-2.53-10.75t12.65-8.24q0-8.85-4.43-8.86a21.29,21.29,0,0,1-9.49-2.53q-7.59,3.79-7.59,10.13t-7.6,5.06q0,12.66,3.16,11.39c2.11-.84,3.17.42,3.17,3.8q-22.79,16.45-30.37,21.51a69.43,69.43,0,0,0-16.46,13.3,75.21,75.21,0,0,1-19,14.55q11.39,39.22,40.5,62,2.54-5.06,5.69-6.32a17,17,0,0,0,5.7-3.8,153.21,153.21,0,0,0,14.55-22.14q5.68-10.76,12-10.77c0-3.37-1.49-4-4.44-1.89a8.61,8.61,0,0,1-9.48.63q-2.53,10.13-12,12.65a135.41,135.41,0,0,0-18.34,6.33q0-21.51,12-31t26-19.62a22.2,22.2,0,0,1,9.48-12c4.64-3,8.24-5.28,10.77-7Q1225,1209.61,1237.68,1212.14Zm-77.2-696.09a38.59,38.59,0,0,0-7.6-2.53c-3.37-.85-5.48,0-6.33,2.53Q1158,523.64,1160.48,516.05Zm50.62,5.06q-8.86,0-13.3,5.06t-10.75,2.53a7.62,7.62,0,0,1-5.06,5.07,16,16,0,0,0-6.33,3.79q7.6,7.61,12,3.17c3-3,7-4.85,12-5.7,0-4.22,1.47-6.53,4.42-6.95S1209.41,525.33,1211.1,521.11Zm53.16,792.28q-5.07-10.12,0-19t-1.27-12.66a94.39,94.39,0,0,1-8.86,10.13q-5.06,5.05-11.39,3.79-10.12,8.86-7,11.39t-.62,5.07q-10.12,7.59-11.39,8.85t-6.33,0q0,7.61-10.13,10.13,2.54,6.33-1.26,7.59a7.6,7.6,0,0,0-5.06,5.07q7.59,1.26,13.92-5.07t16.45-6.32q2.54-7.61,13.92-7.6c1.69-4.22,4.42-6.75,8.22-7.59A46.83,46.83,0,0,0,1264.26,1313.39Zm-29.11-769.5q-5.07-2.53-12,.64t-4.43,10.75q-15.18-1.26-13.92,3.8-6.33,13.92,0,10.12t11.39-1.26a28.79,28.79,0,0,1,8.22-12.66A92.26,92.26,0,0,0,1235.15,543.89Zm25.31,811.27q-6.33,3.79-5.7,14.56t-8.22,5.69q-5.07-13.92-5.71-10.75c-.42,2.11-2.31,2.31-5.68.62a141.29,141.29,0,0,0,11.39-19q5.06-10.12,6.33-17.72-5.07,12.66-13.3,13.92a66,66,0,0,0-14.55,3.8,37.16,37.16,0,0,1-10.76,9.5,18.19,18.19,0,0,0-8.22,9.48,132.22,132.22,0,0,0,9.48,10.77q4.44,4.42,7,13.28,12.66,5.06,19,15.19a85.53,85.53,0,0,0,16.45,19,233.08,233.08,0,0,1,2.53-35.44A107.38,107.38,0,0,0,1260.46,1355.16Zm-31.64-98.72c-5.06-1.69-8.86-1.89-11.39-.63a19.53,19.53,0,0,1-8.86,1.89q13.92,8.86,15.19,6.33c.84-1.69,2.11-1.69,3.79,0Zm5.06-729q-6.33,1.26-11.39,1.9c-3.37.43-5.48,3.16-6.33,8.22a52.93,52.93,0,0,1,7,.64c3,.43,5.28.21,7-.64Zm13.92,53.15q-10.12-2.52-13.29,2.54t-12,3.79a48.34,48.34,0,0,0-3.17,10.77q-.63,4.42-1.89,12a37.87,37.87,0,0,0,8.22-8.22,104.65,104.65,0,0,0,5.7-8.85,27.64,27.64,0,0,1,6.33-7.6A22.45,22.45,0,0,1,1247.8,580.59Zm36.71-41.76c-1.69-5.91-3.18-8.44-4.44-7.6s-4,.85-8.22,0a50.28,50.28,0,0,0-7.59,12.66,15.3,15.3,0,0,1-8.86,8.86Q1244,554,1241.48,554q-1.27,6.32-5.71,8.23a14,14,0,0,0-7,7q10.13-2.52,15.81-2.53a61.69,61.69,0,0,0,12-1.26q8.86-7.6,10.75-14.55t9.5-4.44Zm-39.24,696.09c-.84-1.69-3-3.79-6.33-6.33s-5.9-2.11-7.59,1.27c4.22,2.53,7.17,4,8.86,4.44A20.86,20.86,0,0,0,1245.27,1234.92ZM1263,514.78q-3.79-1.26-14.56,0t-10.75,11.39Q1254.14,522.38,1263,514.78ZM1247.8,655.27q-8.85,12.65-9.5,13.92a13.25,13.25,0,0,0-.62,5.06,11.37,11.37,0,0,0,6.33-7.59A89.5,89.5,0,0,1,1247.8,655.27Zm17.72,589.78q-10.12,2.52-13.92,11.39a48.09,48.09,0,0,1-10.12,15.19q7.59-3.81,17.07-8.86T1265.52,1245.05ZM1263,619.83q-8.87-2.54-15.19,0t-3.79,7.59a67.86,67.86,0,0,1,13.28-1.26Q1264.25,626.16,1263,619.83Zm-3.8,105q-5.06,12.64-8.23,23.42t7,14.54Q1265.52,746.4,1259.19,724.88Zm1.27-41.77a34.54,34.54,0,0,0-8.86,16.45q-2.53,10.13,3.8,13.92,3.8-5.06,4.42-13.92T1260.46,683.11Zm3.8,527.77a22.9,22.9,0,0,0-10.13,1.9q-3.8,1.9-1.26,7a11.31,11.31,0,0,1,6.32-3.15C1261.73,1216.16,1263.41,1214.25,1264.26,1210.88Zm-8.86-429.05q7.59,1.26,5.06-5.69t-6.33-8.23ZM1325,517.31a28.66,28.66,0,0,0-19.63-.62q-9.5,3.16-13.28,8.22c3.38,1.68,6.53,1.9,9.48.64a33.34,33.34,0,0,0,8.24-5.07,23.79,23.79,0,0,1,7.59-4.43A8.38,8.38,0,0,1,1325,517.31Z"/></g></g></g></svg>