<?xml version="1.0" encoding="iso-8859-1"?>
<!-- Generator: Adobe Illustrator 19.0.0, SVG Export Plug-In . SVG Version: 6.00 Build 0)  -->
<svg version="1.1" id="Capa_1" xmlns="http://www.w3.org/2000/svg" xmlns:xlink="http://www.w3.org/1999/xlink" x="0px" y="0px"
	 viewBox="0 0 512 512" style="enable-background:new 0 0 512 512;" xml:space="preserve">
<g>
	<g>
		<path fill="#FAFBFB" d="M494.41,134.669c-23.42-23.42-62.352-23.499-85.85,0c-5.565,5.564-11.079,11.077-16.572,16.568V75.21
			c0-24.812-20.057-44.998-44.711-44.998H330.99V14.999C330.99,6.716,324.275,0,315.991,0c-8.284,0-14.999,6.716-14.999,14.999
			v15.212h-29.999V14.999C270.993,6.716,264.277,0,255.993,0c-8.284,0-14.999,6.716-14.999,14.999v15.212h-29.999V14.999
			C210.995,6.716,204.279,0,195.996,0c-8.284,0-14.999,6.716-14.999,14.999v15.212h-29.999V14.999
			C150.997,6.716,144.282,0,135.998,0s-14.999,6.716-14.999,14.999v15.212H91V14.999C91,6.716,84.284,0,76,0
			c-8.284,0-14.999,6.716-14.999,14.999v15.212H46c-25.364,0-45.997,20.122-45.997,44.855v392.035
			c0,24.87,21.088,44.882,45.979,44.898l301.285-0.02c0.01,0,0.02,0,0.03,0c24.851,0,44.691-19.803,44.691-44.666V321.331
			c34.686-34.374,68.358-67.748,102.422-101.813C517.859,196.07,517.861,158.12,494.41,134.669z M361.989,467.315
			c0,8.255-6.394,14.767-14.703,14.767c-0.003,0-0.007,0-0.01,0l-301.283,0.02c-8.518-0.005-15.989-7.015-15.989-14.999L30,75.067
			C30,67.152,37.477,60.011,46,60.011h15v14.986c0,8.284,6.716,14.999,14.999,14.999s14.999-6.716,14.999-14.999V60.011h29.999
			v14.986c0,8.284,6.716,14.999,14.999,14.999c8.284,0,14.999-6.716,14.999-14.999V60.011h29.999v14.986
			c0,8.284,6.716,14.999,14.999,14.999s14.999-6.716,14.999-14.999V60.011h29.999v14.986c0,8.284,6.716,14.999,14.999,14.999
			c8.284,0,14.999-6.716,14.999-14.999V60.011h29.999v14.986c0,8.284,6.716,14.999,14.999,14.999
			c8.284,0,14.999-6.716,14.999-14.999V60.011h16.286c8.25,0,14.712,6.789,14.712,15.199v106.005
			c-30.546,30.517-60.301,60.222-89.987,89.873H76c-8.284,0-14.999,6.716-14.999,14.999c0,8.284,6.716,14.899,14.999,14.899h165.974
			c-17.855,17.842-28.646,28.734-30.011,30.099H76c-8.284,0-14.999,6.716-14.999,14.999c0,8.284,6.716,14.999,14.999,14.999h122.473
			l-10,29.999H76c-8.284,0-14.999,6.716-14.999,14.999S67.717,421.083,76,421.083h102.474l-4.684,14.051
			c-3.919,11.759,7.331,22.854,18.973,18.973l95.455-31.819c2.209-0.737,4.217-1.977,5.863-3.624
			c22.936-22.936,45.624-45.487,67.907-67.592V467.315z M261.333,399.63l-49.597,16.532l16.532-49.597L261.333,399.63z
			 M287.234,383.107l-42.432-42.432c47.107-47.091,92.373-92.264,139.655-139.501l43.193,42.525
			C407.825,263.402,313.251,357.15,287.234,383.107z M473.198,198.306c-8.13,8.13-16.223,16.206-24.281,24.233l-43.239-42.57
			c7.965-7.96,15.986-15.979,24.095-24.088c11.741-11.741,31.7-11.726,43.425,0C484.893,167.577,484.893,186.61,473.198,198.306z"/>
	</g>
</g>
<g>
	<g>
		<path fill="#FAFBFB" d="M185.98,151.094H76c-8.284,0-14.999,6.716-14.999,14.999S67.717,181.093,76,181.093h109.98
			c8.284,0,14.999-6.716,14.999-14.999S194.264,151.094,185.98,151.094z"/>
	</g>
</g>
<g>
	<g>
		<path fill="#FAFBFB" d="M248.175,211.092H76c-8.284,0-14.999,6.716-14.999,14.999c0,8.284,6.716,14.999,14.999,14.999h172.174
			c8.284,0,14.999-6.716,14.999-14.999C263.174,217.807,256.458,211.092,248.175,211.092z"/>
	</g>
</g>
<g>
</g>
<g>
</g>
<g>
</g>
<g>
</g>
<g>
</g>
<g>
</g>
<g>
</g>
<g>
</g>
<g>
</g>
<g>
</g>
<g>
</g>
<g>
</g>
<g>
</g>
<g>
</g>
<g>
</g>
</svg>
