<svg height="512pt" viewBox="0 0 512 512" width="512pt" fill="#2a2e2f" xmlns="http://www.w3.org/2000/svg"><path d="m346.390625 138.332031c-28.269531 0-51.265625 22.996094-51.265625 51.265625 0 28.265625 22.996094 51.265625 51.265625 51.265625 28.265625 0 51.261719-23 51.261719-51.265625 0-28.269531-22.996094-51.265625-51.261719-51.265625zm0 72.527344c-11.726563 0-21.265625-9.539063-21.265625-21.261719 0-11.726562 9.539062-21.265625 21.265625-21.265625 11.722656 0 21.261719 9.539063 21.261719 21.265625 0 11.722656-9.539063 21.261719-21.261719 21.261719zm0 0"/><path d="m171.863281 167.027344c-30.695312 0-55.667969 24.972656-55.667969 55.667968h30c0-14.152343 11.515626-25.667968 25.667969-25.667968 14.152344 0 25.667969 11.515625 25.667969 25.667968h30c0-30.695312-24.972656-55.667968-55.667969-55.667968zm0 0"/><path d="m437.019531 74.980469c-48.351562-48.351563-112.640625-74.980469-181.019531-74.980469s-132.667969 26.628906-181.019531 74.980469c-48.351563 48.351562-74.980469 112.640625-74.980469 181.019531s26.628906 132.667969 74.980469 181.019531c48.351562 48.351563 112.640625 74.980469 181.019531 74.980469s132.667969-26.628906 181.019531-74.980469c48.351563-48.351562 74.980469-112.640625 74.980469-181.019531s-26.628906-132.667969-74.980469-181.019531zm-258.167969 265.6875v46.261719c-22.40625-18.929688-37.789062-45.921876-41.625-76.457032h237.546876c-3.832032 30.535156-19.222657 57.515625-41.625 76.441406v-46.246093zm30 94.183593v-64.183593h32.148438v40.832031h30v-40.832031h32.148438v64.183593c0 25.996094-21.152344 47.148438-47.148438 47.148438s-47.148438-21.152344-47.148438-47.148438zm114.96875 36.746094c5.949219-10.929687 9.328126-23.453125 9.328126-36.746094v-11.128906c43.445312-26.234375 72.5625-73.902344 72.5625-128.25v-15h-299.421876v15c0 54.347656 29.117188 102.003906 72.5625 128.238282v11.140624c0 13.292969 3.378907 25.816407 9.328126 36.746094-91.585938-28.871094-158.179688-114.601562-158.179688-215.597656 0-124.617188 101.382812-226 226-226s226 101.382812 226 226c0 100.996094-66.59375 186.726562-158.179688 215.597656zm0 0"/></svg>